<svg width="114" height="157" viewBox="0 0 114 157" fill="none" xmlns="http://www.w3.org/2000/svg">
<g id="blue-cone-broken-linear">
<path d="M101.842 3.50087C96.4028 1.8354 90.726 0.747758 84.8113 0.33989L94.9071 10.4346L101.842 3.50087Z" fill="#022169"/>
<path d="M101.842 3.50087C96.4028 1.8354 90.726 0.747758 84.8113 0.33989L94.9071 10.4346L101.842 3.50087Z" fill="url(#paint0_radial)"/>
<path d="M27.6019 50.9155L44.3602 34.159L61.2885 51.0855L78.0468 34.3289L94.9411 51.2214L112.073 34.091L129.274 51.2894L144.502 36.0623C142.735 33.3432 140.797 30.7261 138.689 28.2109L129.274 37.6258L112.073 20.4274L94.9411 37.5579L78.0468 20.6653L61.2885 37.4219L44.3602 20.4954L27.6019 37.252L10.9116 20.5294L0 31.4398C0 35.9944 0 40.5489 0 45.1034L10.9116 34.193L27.6019 50.9155Z" fill="#022169"/>
<path d="M27.6019 50.9155L44.3602 34.159L61.2885 51.0855L78.0468 34.3289L94.9411 51.2214L112.073 34.091L129.274 51.2894L144.502 36.0623C142.735 33.3432 140.797 30.7261 138.689 28.2109L129.274 37.6258L112.073 20.4274L94.9411 37.5579L78.0468 20.6653L61.2885 37.4219L44.3602 20.4954L27.6019 37.252L10.9116 20.5294L0 31.4398C0 35.9944 0 40.5489 0 45.1034L10.9116 34.193L27.6019 50.9155Z" fill="url(#paint1_radial)"/>
<path d="M71.5543 0.067978C64.6878 0.033989 57.8553 0 50.9888 0L61.2885 10.2987L71.5543 0.067978Z" fill="#022169"/>
<path d="M71.5543 0.067978C64.6878 0.033989 57.8553 0 50.9888 0L61.2885 10.2987L71.5543 0.067978Z" fill="url(#paint2_radial)"/>
<path d="M40.1452 147.036C44.8702 149.721 49.7991 151.863 54.9319 153.46L44.3263 142.856L40.1452 147.036Z" fill="#022169"/>
<path d="M40.1452 147.036C44.8702 149.721 49.7991 151.863 54.9319 153.46L44.3263 142.856L40.1452 147.036Z" fill="url(#paint3_radial)"/>
<path d="M27.6019 30.5221L44.3602 13.7656L61.2885 30.6921L78.0468 13.9355L94.9411 30.828L112.073 13.6976L129.274 30.896L135.494 24.676C134.067 23.1805 132.571 21.719 131.007 20.3254C123.631 13.6976 115.575 8.66721 106.872 5.26831L94.9411 17.1984L78.0468 0.271928L61.2885 17.0285L44.3602 0.101984L27.6019 16.8586L10.9116 0.135973L0 11.0464C0 15.601 0 20.1555 0 24.71L10.9116 13.7995L27.6019 30.5221Z" fill="#022169"/>
<path d="M27.6019 30.5221L44.3602 13.7656L61.2885 30.6921L78.0468 13.9355L94.9411 30.828L112.073 13.6976L129.274 30.896L135.494 24.676C134.067 23.1805 132.571 21.719 131.007 20.3254C123.631 13.6976 115.575 8.66721 106.872 5.26831L94.9411 17.1984L78.0468 0.271928L61.2885 17.0285L44.3602 0.101984L27.6019 16.8586L10.9116 0.135973L0 11.0464C0 15.601 0 20.1555 0 24.71L10.9116 13.7995L27.6019 30.5221Z" fill="url(#paint4_radial)"/>
<path d="M37.7317 0C31.0012 0 24.2707 0.033989 17.5402 0.033989L27.602 10.0947L37.7317 0Z" fill="#022169"/>
<path d="M37.7317 0C31.0012 0 24.2707 0.033989 17.5402 0.033989L27.602 10.0947L37.7317 0Z" fill="url(#paint5_radial)"/>
<path d="M94.9411 153.188L112.073 136.058L120.741 144.725C123.495 142.958 126.112 141.054 128.628 138.947L112.073 122.394L94.9411 139.525L78.0469 122.632L61.2885 139.389L44.3603 122.462L28.1458 138.675C30.6953 140.816 33.2787 142.754 35.9981 144.487L44.3603 136.126L61.2885 153.052L78.0469 136.296L94.9411 153.188Z" fill="#022169"/>
<path d="M94.9411 153.188L112.073 136.058L120.741 144.725C123.495 142.958 126.112 141.054 128.628 138.947L112.073 122.394L94.9411 139.525L78.0469 122.632L61.2885 139.389L44.3603 122.462L28.1458 138.675C30.6953 140.816 33.2787 142.754 35.9981 144.487L44.3603 136.126L61.2885 153.052L78.0469 136.296L94.9411 153.188Z" fill="url(#paint6_radial)"/>
<path d="M4.24907 0.0679614C3.1613 0.0679614 2.10754 0.0679614 1.01978 0.0679614C0.713843 0.0679614 0.40791 0.10195 0 0.135939C0 0.543807 0 0.815719 0 1.08763C0 2.17528 0 3.26293 0 4.35057L4.24907 0.0679614Z" fill="#022169"/>
<path d="M4.24907 0.0679614C3.1613 0.0679614 2.10754 0.0679614 1.01978 0.0679614C0.713843 0.0679614 0.40791 0.10195 0 0.135939C0 0.543807 0 0.815719 0 1.08763C0 2.17528 0 3.26293 0 4.35057L4.24907 0.0679614Z" fill="url(#paint7_radial)"/>
<path d="M78.0469 143.026L65.1977 155.873C68.053 156.349 70.9764 156.689 73.9338 156.859C79.7125 157.199 85.4232 156.927 91.032 156.009L78.0469 143.026Z" fill="#022169"/>
<path d="M78.0469 143.026L65.1977 155.873C68.053 156.349 70.9764 156.689 73.9338 156.859C79.7125 157.199 85.4232 156.927 91.032 156.009L78.0469 143.026Z" fill="url(#paint8_radial)"/>
<path d="M112.073 142.788L101.196 153.664C101.23 153.664 101.23 153.664 101.264 153.63C106.669 151.965 111.767 149.823 116.526 147.206L112.073 142.788Z" fill="#022169"/>
<path d="M112.073 142.788L101.196 153.664C101.23 153.664 101.23 153.664 101.264 153.63C106.669 151.965 111.767 149.823 116.526 147.206L112.073 142.788Z" fill="url(#paint9_radial)"/>
<path d="M146.508 101.933L129.274 119.165L112.073 101.967L94.9411 119.097L78.0469 102.205L61.2885 118.961L44.3603 102.035L27.6019 118.791L10.9116 102.103L5.5408 107.473C6.79852 110.702 8.2602 113.795 9.92583 116.752L10.9116 115.766L27.6019 132.455L44.3603 115.698L61.2885 132.625L78.0469 115.868L94.9411 132.761L112.073 115.63L129.274 132.829L146.508 115.596L147.29 116.378C148.955 113.387 150.417 110.26 151.641 107.065L146.508 101.933Z" fill="#022169"/>
<path d="M146.508 101.933L129.274 119.165L112.073 101.967L94.9411 119.097L78.0469 102.205L61.2885 118.961L44.3603 102.035L27.6019 118.791L10.9116 102.103L5.5408 107.473C6.79852 110.702 8.2602 113.795 9.92583 116.752L10.9116 115.766L27.6019 132.455L44.3603 115.698L61.2885 132.625L78.0469 115.868L94.9411 132.761L112.073 115.63L129.274 132.829L146.508 115.596L147.29 116.378C148.955 113.387 150.417 110.26 151.641 107.065L146.508 101.933Z" fill="url(#paint10_radial)"/>
<path d="M146.508 81.5395L129.274 98.772L112.073 81.5735L94.9411 98.704L78.0468 81.8114L61.2885 98.568L44.3602 81.6415L27.6019 98.3981L10.9116 81.7095L1.08774 91.5323C1.39368 93.4017 1.80159 95.2711 2.24349 97.1405C2.68539 98.9419 3.19528 100.743 3.77315 102.511L10.9116 95.3731L27.6019 112.062L44.3602 95.3051L61.2885 112.232L78.0468 95.475L94.9411 112.368L112.073 95.2371L129.274 112.436L146.508 95.2031L153.374 102.069C154.496 98.5 155.346 94.7952 155.958 90.9885L146.508 81.5395Z" fill="#022169"/>
<path d="M146.508 81.5395L129.274 98.772L112.073 81.5735L94.9411 98.704L78.0468 81.8114L61.2885 98.568L44.3602 81.6415L27.6019 98.3981L10.9116 81.7095L1.08774 91.5323C1.39368 93.4017 1.80159 95.2711 2.24349 97.1405C2.68539 98.9419 3.19528 100.743 3.77315 102.511L10.9116 95.3731L27.6019 112.062L44.3602 95.3051L61.2885 112.232L78.0468 95.475L94.9411 112.368L112.073 95.2371L129.274 112.436L146.508 95.2031L153.374 102.069C154.496 98.5 155.346 94.7952 155.958 90.9885L146.508 81.5395Z" fill="url(#paint11_radial)"/>
<path d="M156.672 71.3089L146.508 61.1461L129.274 78.3786L112.073 61.1801L94.9411 78.3106L78.0469 61.4181L61.2886 78.1746L44.3603 61.2481L27.602 78.0047L10.9116 61.3161L0.0340257 72.1926C0.0340257 74.4698 0.0340257 76.7471 0.0340257 79.0244C0.0340257 81.1996 0.136003 83.3749 0.339958 85.5502L10.9456 74.9457L27.636 91.6343L44.3943 74.8777L61.3225 91.8042L78.0809 75.0476L94.9751 91.9402L112.107 74.8097L129.308 92.0081L146.542 74.7757L156.74 84.9724C157.113 80.4179 157.079 75.8634 156.672 71.3089Z" fill="#022169"/>
<path d="M156.672 71.3089L146.508 61.1461L129.274 78.3786L112.073 61.1801L94.9411 78.3106L78.0469 61.4181L61.2886 78.1746L44.3603 61.2481L27.602 78.0047L10.9116 61.3161L0.0340257 72.1926C0.0340257 74.4698 0.0340257 76.7471 0.0340257 79.0244C0.0340257 81.1996 0.136003 83.3749 0.339958 85.5502L10.9456 74.9457L27.636 91.6343L44.3943 74.8777L61.3225 91.8042L78.0809 75.0476L94.9751 91.9402L112.107 74.8097L129.308 92.0081L146.542 74.7757L156.74 84.9724C157.113 80.4179 157.079 75.8634 156.672 71.3089Z" fill="url(#paint12_radial)"/>
<path d="M148.241 42.4862L146.508 40.7528L129.274 57.9852L112.073 40.7867L94.9411 57.9172L78.0468 41.0247L61.2885 57.7812L44.3602 40.8547L27.6019 57.6113L10.9116 40.9227L0 51.8332C0 56.3877 0 60.9422 0 65.4967L10.8776 54.6203L27.5679 71.3089L44.3262 54.5523L61.2545 71.4788L78.0128 54.7222L94.9071 71.6147L112.039 54.4843L129.24 71.6827L146.474 54.4503L155.482 63.4574C155.312 62.5737 155.108 61.69 154.904 60.8063C153.408 54.2804 151.165 48.1963 148.241 42.4862Z" fill="#022169"/>
<path d="M148.241 42.4862L146.508 40.7528L129.274 57.9852L112.073 40.7867L94.9411 57.9172L78.0468 41.0247L61.2885 57.7812L44.3602 40.8547L27.6019 57.6113L10.9116 40.9227L0 51.8332C0 56.3877 0 60.9422 0 65.4967L10.8776 54.6203L27.5679 71.3089L44.3262 54.5523L61.2545 71.4788L78.0128 54.7222L94.9071 71.6147L112.039 54.4843L129.24 71.6827L146.474 54.4503L155.482 63.4574C155.312 62.5737 155.108 61.69 154.904 60.8063C153.408 54.2804 151.165 48.1963 148.241 42.4862Z" fill="url(#paint13_radial)"/>
</g>
<defs>
<radialGradient id="paint0_radial" cx="0" cy="0" r="1" gradientUnits="userSpaceOnUse" gradientTransform="rotate(44.9922) scale(222.085 222.025)">
<stop stop-color="white"/>
<stop offset="0.0001" stop-color="white" stop-opacity="0.4"/>
<stop offset="0.961326" stop-color="white" stop-opacity="0"/>
</radialGradient>
<radialGradient id="paint1_radial" cx="0" cy="0" r="1" gradientUnits="userSpaceOnUse" gradientTransform="rotate(44.9922) scale(222.085 222.025)">
<stop stop-color="white"/>
<stop offset="0.0001" stop-color="white" stop-opacity="0.4"/>
<stop offset="0.961326" stop-color="white" stop-opacity="0"/>
</radialGradient>
<radialGradient id="paint2_radial" cx="0" cy="0" r="1" gradientUnits="userSpaceOnUse" gradientTransform="rotate(44.9922) scale(222.085 222.025)">
<stop stop-color="white"/>
<stop offset="0.0001" stop-color="white" stop-opacity="0.4"/>
<stop offset="0.961326" stop-color="white" stop-opacity="0"/>
</radialGradient>
<radialGradient id="paint3_radial" cx="0" cy="0" r="1" gradientUnits="userSpaceOnUse" gradientTransform="rotate(44.9922) scale(222.085 222.025)">
<stop stop-color="white"/>
<stop offset="0.0001" stop-color="white" stop-opacity="0.4"/>
<stop offset="0.961326" stop-color="white" stop-opacity="0"/>
</radialGradient>
<radialGradient id="paint4_radial" cx="0" cy="0" r="1" gradientUnits="userSpaceOnUse" gradientTransform="rotate(44.9922) scale(222.085 222.025)">
<stop stop-color="white"/>
<stop offset="0.0001" stop-color="white" stop-opacity="0.4"/>
<stop offset="0.961326" stop-color="white" stop-opacity="0"/>
</radialGradient>
<radialGradient id="paint5_radial" cx="0" cy="0" r="1" gradientUnits="userSpaceOnUse" gradientTransform="rotate(44.9922) scale(222.085 222.025)">
<stop stop-color="white"/>
<stop offset="0.0001" stop-color="white" stop-opacity="0.4"/>
<stop offset="0.961326" stop-color="white" stop-opacity="0"/>
</radialGradient>
<radialGradient id="paint6_radial" cx="0" cy="0" r="1" gradientUnits="userSpaceOnUse" gradientTransform="rotate(44.9922) scale(222.085 222.025)">
<stop stop-color="white"/>
<stop offset="0.0001" stop-color="white" stop-opacity="0.4"/>
<stop offset="0.961326" stop-color="white" stop-opacity="0"/>
</radialGradient>
<radialGradient id="paint7_radial" cx="0" cy="0" r="1" gradientUnits="userSpaceOnUse" gradientTransform="rotate(44.9922) scale(222.085 222.025)">
<stop stop-color="white"/>
<stop offset="0.0001" stop-color="white" stop-opacity="0.4"/>
<stop offset="0.961326" stop-color="white" stop-opacity="0"/>
</radialGradient>
<radialGradient id="paint8_radial" cx="0" cy="0" r="1" gradientUnits="userSpaceOnUse" gradientTransform="rotate(44.9922) scale(222.085 222.025)">
<stop stop-color="white"/>
<stop offset="0.0001" stop-color="white" stop-opacity="0.4"/>
<stop offset="0.961326" stop-color="white" stop-opacity="0"/>
</radialGradient>
<radialGradient id="paint9_radial" cx="0" cy="0" r="1" gradientUnits="userSpaceOnUse" gradientTransform="rotate(44.9922) scale(222.085 222.025)">
<stop stop-color="white"/>
<stop offset="0.0001" stop-color="white" stop-opacity="0.4"/>
<stop offset="0.961326" stop-color="white" stop-opacity="0"/>
</radialGradient>
<radialGradient id="paint10_radial" cx="0" cy="0" r="1" gradientUnits="userSpaceOnUse" gradientTransform="rotate(44.9922) scale(222.085 222.025)">
<stop stop-color="white"/>
<stop offset="0.0001" stop-color="white" stop-opacity="0.4"/>
<stop offset="0.961326" stop-color="white" stop-opacity="0"/>
</radialGradient>
<radialGradient id="paint11_radial" cx="0" cy="0" r="1" gradientUnits="userSpaceOnUse" gradientTransform="rotate(44.9922) scale(222.085 222.025)">
<stop stop-color="white"/>
<stop offset="0.0001" stop-color="white" stop-opacity="0.4"/>
<stop offset="0.961326" stop-color="white" stop-opacity="0"/>
</radialGradient>
<radialGradient id="paint12_radial" cx="0" cy="0" r="1" gradientUnits="userSpaceOnUse" gradientTransform="rotate(44.9922) scale(222.085 222.025)">
<stop stop-color="white"/>
<stop offset="0.0001" stop-color="white" stop-opacity="0.4"/>
<stop offset="0.961326" stop-color="white" stop-opacity="0"/>
</radialGradient>
<radialGradient id="paint13_radial" cx="0" cy="0" r="1" gradientUnits="userSpaceOnUse" gradientTransform="rotate(44.9922) scale(222.085 222.025)">
<stop stop-color="white"/>
<stop offset="0.0001" stop-color="white" stop-opacity="0.4"/>
<stop offset="0.961326" stop-color="white" stop-opacity="0"/>
</radialGradient>
</defs>
</svg>
