<svg width="167" height="167" viewBox="0 0 167 167" fill="none" xmlns="http://www.w3.org/2000/svg">
<g id="blue-cone-linear">
<path d="M0 0.144587C0 0.578399 0 0.867607 0 1.15682C0 6.00106 0 10.8453 0 15.7257C8.57013 15.7257 15.5492 8.74854 15.5492 0.180738C15.5492 0.144587 15.5492 0.108435 15.5492 0.0722844C10.7398 0.0722844 5.93038 0.0722844 1.12099 0.0722844C0.795539 0.0722844 0.470091 0.108435 0 0.144587Z" fill="#022169"/>
<path d="M0 0.144587C0 0.578399 0 0.867607 0 1.15682C0 6.00106 0 10.8453 0 15.7257C8.57013 15.7257 15.5492 8.74854 15.5492 0.180738C15.5492 0.144587 15.5492 0.108435 15.5492 0.0722844C10.7398 0.0722844 5.93038 0.0722844 1.12099 0.0722844C0.795539 0.0722844 0.470091 0.108435 0 0.144587Z" fill="url(#paint0_radial)"/>
<path d="M20.6117 0.180702C20.6117 11.5321 11.3545 20.7868 0 20.7868C0 25.1249 0 29.4631 0 33.8012C18.5505 33.8012 33.6296 18.7262 33.6296 0.180702C33.6296 0.144551 33.6296 0.0722491 33.6296 0.0360981C29.2903 0.0360981 24.951 0.0360981 20.6117 0.0722491C20.6117 0.0722491 20.6117 0.144551 20.6117 0.180702Z" fill="#022169"/>
<path d="M20.6117 0.180702C20.6117 11.5321 11.3545 20.7868 0 20.7868C0 25.1249 0 29.4631 0 33.8012C18.5505 33.8012 33.6296 18.7262 33.6296 0.180702C33.6296 0.144551 33.6296 0.0722491 33.6296 0.0360981C29.2903 0.0360981 24.951 0.0360981 20.6117 0.0722491C20.6117 0.0722491 20.6117 0.144551 20.6117 0.180702Z" fill="url(#paint1_radial)"/>
<path d="M38.6921 0.180755C38.6921 21.5099 21.3349 38.8624 0 38.8624C0 43.2005 0 47.5386 0 51.8768C28.4948 51.8768 51.7101 28.6678 51.7101 0.180755C51.7101 0.108453 51.7101 0.0723021 51.7101 0C47.3708 0 43.0314 0 38.6921 0C38.6921 0.0723021 38.6921 0.108453 38.6921 0.180755Z" fill="#022169"/>
<path d="M38.6921 0.180755C38.6921 21.5099 21.3349 38.8624 0 38.8624C0 43.2005 0 47.5386 0 51.8768C28.4948 51.8768 51.7101 28.6678 51.7101 0.180755C51.7101 0.108453 51.7101 0.0723021 51.7101 0C47.3708 0 43.0314 0 38.6921 0C38.6921 0.0723021 38.6921 0.108453 38.6921 0.180755Z" fill="url(#paint2_radial)"/>
<path d="M56.7726 0.180755C56.7726 31.4876 31.3153 56.9379 0 56.9379C0 61.276 0 65.6142 0 69.9523C38.4752 69.9523 69.7905 38.6455 69.7905 0.180755C69.7905 0.144604 69.7905 0.108453 69.7905 0.036151C65.4512 0.036151 61.1119 0 56.7726 0C56.7726 0.0723021 56.7726 0.108453 56.7726 0.180755Z" fill="#022169"/>
<path d="M56.7726 0.180755C56.7726 31.4876 31.3153 56.9379 0 56.9379C0 61.276 0 65.6142 0 69.9523C38.4752 69.9523 69.7905 38.6455 69.7905 0.180755C69.7905 0.144604 69.7905 0.108453 69.7905 0.036151C65.4512 0.036151 61.1119 0 56.7726 0C56.7726 0.0723021 56.7726 0.108453 56.7726 0.180755Z" fill="url(#paint3_radial)"/>
<path d="M166.123 71.6152C165.798 69.3015 165.364 66.9879 164.785 64.6742C163.628 59.7215 162.073 54.9857 160.157 50.503C158.565 55.5641 156.721 60.5891 154.624 65.5057C146.162 85.4972 134.085 103.428 118.644 118.828C103.203 134.229 85.2674 146.339 65.3065 154.799C60.4248 156.859 55.4708 158.703 50.4444 160.258C57.1342 163.15 64.2217 165.138 71.6709 166.15C113.943 147.858 147.898 113.876 166.123 71.6152Z" fill="#022169"/>
<path d="M166.123 71.6152C165.798 69.3015 165.364 66.9879 164.785 64.6742C163.628 59.7215 162.073 54.9857 160.157 50.503C158.565 55.5641 156.721 60.5891 154.624 65.5057C146.162 85.4972 134.085 103.428 118.644 118.828C103.203 134.229 85.2674 146.339 65.3065 154.799C60.4248 156.859 55.4708 158.703 50.4444 160.258C57.1342 163.15 64.2217 165.138 71.6709 166.15C113.943 147.858 147.898 113.876 166.123 71.6152Z" fill="url(#paint4_radial)"/>
<path d="M156.866 43.6705C153.575 37.6332 149.561 32.066 144.752 26.9325C142.835 37.3802 139.762 47.6109 135.603 57.4802C128.19 75.0134 117.595 90.7391 104.071 104.26C90.5468 117.78 74.8169 128.372 57.2788 135.783C47.4792 139.941 37.318 142.977 26.9399 144.893C27.5908 145.508 28.2416 146.086 28.9287 146.665C33.5935 150.714 38.5475 154.148 43.7185 156.968C98.4661 141.676 141.678 98.4393 156.866 43.6705Z" fill="#022169"/>
<path d="M156.866 43.6705C153.575 37.6332 149.561 32.066 144.752 26.9325C142.835 37.3802 139.762 47.6109 135.603 57.4802C128.19 75.0134 117.595 90.7391 104.071 104.26C90.5468 117.78 74.8169 128.372 57.2788 135.783C47.4792 139.941 37.318 142.977 26.9399 144.893C27.5908 145.508 28.2416 146.086 28.9287 146.665C33.5935 150.714 38.5475 154.148 43.7185 156.968C98.4661 141.676 141.678 98.4393 156.866 43.6705Z" fill="url(#paint5_radial)"/>
<path d="M131.481 131.59C116.944 146.123 100.383 157.98 82.0852 166.982C90.8 167.162 99.3339 166.006 107.687 163.439C124.574 158.269 138.496 148.653 149.344 134.771C158.168 123.492 163.7 110.767 165.942 96.5956C166.702 91.7152 167.063 86.8348 166.991 81.9906C157.987 100.355 146.054 116.985 131.481 131.59Z" fill="#022169"/>
<path d="M131.481 131.59C116.944 146.123 100.383 157.98 82.0852 166.982C90.8 167.162 99.3339 166.006 107.687 163.439C124.574 158.269 138.496 148.653 149.344 134.771C158.168 123.492 163.7 110.767 165.942 96.5956C166.702 91.7152 167.063 86.8348 166.991 81.9906C157.987 100.355 146.054 116.985 131.481 131.59Z" fill="url(#paint6_radial)"/>
<path d="M87.8709 0.216853C86.8223 0.180702 85.7736 0.144551 84.7249 0.1084C81.4343 0.0722491 78.1437 0.0360981 74.853 0.0360981C74.853 0.0722491 74.853 0.1084 74.853 0.144551C74.853 41.3929 41.2957 74.9772 0 74.9772C0 78.0139 0 81.0144 0 84.0511C0 85.3526 0.0361609 86.6902 0.108483 87.9916C48.4917 87.9554 87.8348 48.587 87.8709 0.216853Z" fill="#022169"/>
<path d="M87.8709 0.216853C86.8223 0.180702 85.7736 0.144551 84.7249 0.1084C81.4343 0.0722491 78.1437 0.0360981 74.853 0.0360981C74.853 0.0722491 74.853 0.1084 74.853 0.144551C74.853 41.3929 41.2957 74.9772 0 74.9772C0 78.0139 0 81.0144 0 84.0511C0 85.3526 0.0361609 86.6902 0.108483 87.9916C48.4917 87.9554 87.8348 48.587 87.8709 0.216853Z" fill="url(#paint7_radial)"/>
<path d="M140.34 22.5221C140.015 22.1967 139.653 21.9075 139.328 21.5822C135.82 18.437 132.204 15.6534 128.443 13.1951C127.178 26.0288 123.996 38.5009 118.933 50.3946C112.424 65.7588 103.131 79.5685 91.27 91.426C79.4093 103.284 65.5958 112.574 50.2274 119.082C38.3667 124.107 25.9273 127.288 13.1625 128.553C15.8746 132.783 18.9844 136.723 22.492 140.447C82.9169 130.831 130.758 82.9667 140.34 22.5221Z" fill="#022169"/>
<path d="M140.34 22.5221C140.015 22.1967 139.653 21.9075 139.328 21.5822C135.82 18.437 132.204 15.6534 128.443 13.1951C127.178 26.0288 123.996 38.5009 118.933 50.3946C112.424 65.7588 103.131 79.5685 91.27 91.426C79.4093 103.284 65.5958 112.574 50.2274 119.082C38.3667 124.107 25.9273 127.288 13.1625 128.553C15.8746 132.783 18.9844 136.723 22.492 140.447C82.9169 130.831 130.758 82.9667 140.34 22.5221Z" fill="url(#paint8_radial)"/>
<path d="M123.634 10.303C119.548 8.02551 115.317 6.10951 110.942 4.59117C109.857 32.5721 98.4299 58.7454 78.5053 78.6647C58.6529 98.5116 32.581 109.899 4.70091 111.056C6.25583 115.503 8.10004 119.732 10.3059 123.745C70.5499 118.756 118.716 70.5307 123.634 10.303Z" fill="#022169"/>
<path d="M123.634 10.303C119.548 8.02551 115.317 6.10951 110.942 4.59117C109.857 32.5721 98.4299 58.7454 78.5053 78.6647C58.6529 98.5116 32.581 109.899 4.70091 111.056C6.25583 115.503 8.10004 119.732 10.3059 123.745C70.5499 118.756 118.716 70.5307 123.634 10.303Z" fill="url(#paint9_radial)"/>
<path d="M105.915 3.03667C101.721 1.87984 97.3813 1.08451 92.9335 0.61455C92.825 25.2696 83.17 48.4424 65.7043 65.8672C48.2748 83.292 25.168 92.9443 0.542413 93.0889C0.940183 96.5233 1.55492 99.9576 2.38662 103.356C2.60358 104.26 2.85671 105.163 3.10984 106.067C59.1592 104.404 104.433 59.0708 105.915 3.03667Z" fill="#022169"/>
<path d="M105.915 3.03667C101.721 1.87984 97.3813 1.08451 92.9335 0.61455C92.825 25.2696 83.17 48.4424 65.7043 65.8672C48.2748 83.292 25.168 92.9443 0.542413 93.0889C0.940183 96.5233 1.55492 99.9576 2.38662 103.356C2.60358 104.26 2.85671 105.163 3.10984 106.067C59.1592 104.404 104.433 59.0708 105.915 3.03667Z" fill="url(#paint10_radial)"/>
</g>
<defs>
<radialGradient id="paint0_radial" cx="0" cy="0" r="1" gradientUnits="userSpaceOnUse" gradientTransform="rotate(44.9922) scale(236.231 236.167)">
<stop stop-color="white"/>
<stop offset="0.0001" stop-color="white" stop-opacity="0.4"/>
<stop offset="0.961326" stop-color="white" stop-opacity="0"/>
</radialGradient>
<radialGradient id="paint1_radial" cx="0" cy="0" r="1" gradientUnits="userSpaceOnUse" gradientTransform="rotate(44.9922) scale(236.231 236.167)">
<stop stop-color="white"/>
<stop offset="0.0001" stop-color="white" stop-opacity="0.4"/>
<stop offset="0.961326" stop-color="white" stop-opacity="0"/>
</radialGradient>
<radialGradient id="paint2_radial" cx="0" cy="0" r="1" gradientUnits="userSpaceOnUse" gradientTransform="rotate(44.9922) scale(236.231 236.167)">
<stop stop-color="white"/>
<stop offset="0.0001" stop-color="white" stop-opacity="0.4"/>
<stop offset="0.961326" stop-color="white" stop-opacity="0"/>
</radialGradient>
<radialGradient id="paint3_radial" cx="0" cy="0" r="1" gradientUnits="userSpaceOnUse" gradientTransform="rotate(44.9922) scale(236.231 236.167)">
<stop stop-color="white"/>
<stop offset="0.0001" stop-color="white" stop-opacity="0.4"/>
<stop offset="0.961326" stop-color="white" stop-opacity="0"/>
</radialGradient>
<radialGradient id="paint4_radial" cx="0" cy="0" r="1" gradientUnits="userSpaceOnUse" gradientTransform="rotate(44.9922) scale(236.231 236.167)">
<stop stop-color="white"/>
<stop offset="0.0001" stop-color="white" stop-opacity="0.4"/>
<stop offset="0.961326" stop-color="white" stop-opacity="0"/>
</radialGradient>
<radialGradient id="paint5_radial" cx="0" cy="0" r="1" gradientUnits="userSpaceOnUse" gradientTransform="rotate(44.9922) scale(236.231 236.167)">
<stop stop-color="white"/>
<stop offset="0.0001" stop-color="white" stop-opacity="0.4"/>
<stop offset="0.961326" stop-color="white" stop-opacity="0"/>
</radialGradient>
<radialGradient id="paint6_radial" cx="0" cy="0" r="1" gradientUnits="userSpaceOnUse" gradientTransform="rotate(44.9922) scale(236.231 236.167)">
<stop stop-color="white"/>
<stop offset="0.0001" stop-color="white" stop-opacity="0.4"/>
<stop offset="0.961326" stop-color="white" stop-opacity="0"/>
</radialGradient>
<radialGradient id="paint7_radial" cx="0" cy="0" r="1" gradientUnits="userSpaceOnUse" gradientTransform="rotate(44.9922) scale(236.231 236.167)">
<stop stop-color="white"/>
<stop offset="0.0001" stop-color="white" stop-opacity="0.4"/>
<stop offset="0.961326" stop-color="white" stop-opacity="0"/>
</radialGradient>
<radialGradient id="paint8_radial" cx="0" cy="0" r="1" gradientUnits="userSpaceOnUse" gradientTransform="rotate(44.9922) scale(236.231 236.167)">
<stop stop-color="white"/>
<stop offset="0.0001" stop-color="white" stop-opacity="0.4"/>
<stop offset="0.961326" stop-color="white" stop-opacity="0"/>
</radialGradient>
<radialGradient id="paint9_radial" cx="0" cy="0" r="1" gradientUnits="userSpaceOnUse" gradientTransform="rotate(44.9922) scale(236.231 236.167)">
<stop stop-color="white"/>
<stop offset="0.0001" stop-color="white" stop-opacity="0.4"/>
<stop offset="0.961326" stop-color="white" stop-opacity="0"/>
</radialGradient>
<radialGradient id="paint10_radial" cx="0" cy="0" r="1" gradientUnits="userSpaceOnUse" gradientTransform="rotate(44.9922) scale(236.231 236.167)">
<stop stop-color="white"/>
<stop offset="0.0001" stop-color="white" stop-opacity="0.4"/>
<stop offset="0.961326" stop-color="white" stop-opacity="0"/>
</radialGradient>
</defs>
</svg>
