<svg width="30" height="96" viewBox="0 0 30 96" fill="none" xmlns="http://www.w3.org/2000/svg">
<path d="M14.7663 63.2798C6.77522 63.2798 1.6559 61.3969 1.34375 61.2773L2.03049 59.6036L1.68712 60.4405L2.03049 59.6036C2.15535 59.6335 13.3929 63.7281 28.5323 59.5737L29.063 61.3072C23.7251 62.7717 18.8556 63.2798 14.7663 63.2798Z" fill="#D6D6D6"/>
<path d="M14.5183 36.1714C6.52717 36.1714 1.40786 34.2885 1.0957 34.1689L1.78244 32.4952L1.43907 33.3321L1.78244 32.4952C1.9073 32.5251 13.1448 36.6197 28.2843 32.4653L28.8149 34.1988C23.4771 35.6932 18.6075 36.1714 14.5183 36.1714Z" fill="#D6D6D6"/>
<path d="M23.3809 92.5402C23.2561 92.5402 23.1 92.5103 22.9751 92.4505C22.5069 92.2413 22.3196 91.7033 22.5381 91.255C23.2561 89.8204 23.8492 86.0845 24.0364 84.7694C24.0989 84.2912 24.5671 83.9326 25.0978 83.9924C25.5972 84.0521 25.9718 84.5004 25.9094 85.0085C25.8782 85.2177 25.2226 90.0296 24.255 92.0022C24.0677 92.331 23.7243 92.5402 23.3809 92.5402Z" fill="#D6D6D6"/>
<path d="M21.8782 46.8117C21.8782 46.8117 21.847 46.8117 21.8782 46.8117C21.3476 46.8117 20.9418 46.3933 20.9418 45.8852L21.0354 42.1194C19.5995 42.2389 17.0399 42.2987 14.9484 41.3423C14.0432 41.7607 11.9518 42.5378 9.14238 42.4182L9.26724 45.7657C9.29846 46.2737 8.89266 46.6922 8.362 46.6922C7.83134 46.7221 7.39432 46.3335 7.39432 45.8254L7.20703 41.4618C7.20703 41.1929 7.30068 40.9538 7.51918 40.7744C7.73769 40.5951 7.98741 40.5054 8.26835 40.5353C11.9205 41.0135 14.3866 39.5789 14.4178 39.549C14.6987 39.3697 15.0733 39.3697 15.3854 39.549C17.8515 40.9239 21.7534 40.2365 21.7846 40.2066C22.0655 40.1468 22.3465 40.2365 22.565 40.4158C22.7835 40.5951 22.9083 40.8641 22.9083 41.1331L22.7835 45.945C22.7835 46.4232 22.3777 46.8117 21.8782 46.8117Z" fill="#D6D6D6"/>
<path d="M15.2003 57.9297C15.1067 57.9297 15.013 57.9297 14.8882 57.9297C11.0487 57.7204 8.0208 53.865 7.89594 53.7155C7.77108 53.5661 7.70865 53.3868 7.70865 53.2074L7.64622 51.9223C7.615 51.4142 8.0208 50.9958 8.55146 50.9958C9.08212 50.9659 9.51914 51.3544 9.51914 51.8625L9.55035 52.8488C10.1747 53.5661 12.4222 55.987 14.9506 56.1364C17.4478 56.2858 20.0075 53.6856 20.6942 52.8787L20.7254 51.8625C20.7254 51.3544 21.1625 50.9659 21.6931 50.9958C22.2238 50.9958 22.6296 51.4142 22.5984 51.9223L22.5672 53.2672C22.5672 53.4465 22.5047 53.6557 22.3799 53.8052C22.2862 53.9546 18.9774 57.9297 15.2003 57.9297Z" fill="#D6D6D6"/>
<path d="M25.2197 52.7889H21.7236C21.1929 52.7889 20.7871 52.4003 20.7871 51.8922C20.7871 51.3842 21.1929 50.9956 21.7236 50.9956H24.2832V46.4228C23.5653 46.5723 22.7849 46.6918 22.0045 46.7815C21.5051 46.8413 21.0056 46.5125 20.9432 46.0044C20.8808 45.4963 21.2241 45.048 21.7548 44.9882C22.9098 44.8388 24.0023 44.6595 25.0012 44.4204C25.2821 44.3606 25.5631 44.4204 25.8128 44.5997C26.0313 44.779 26.1561 45.0181 26.1561 45.317V51.8922C26.1561 52.4003 25.7191 52.7889 25.2197 52.7889Z" fill="#D6D6D6"/>
<path d="M21.7227 52.7893H8.61224C8.08158 52.7893 7.67578 52.4008 7.67578 51.8927C7.67578 51.3846 8.08158 50.9961 8.61224 50.9961H21.7227C22.2533 50.9961 22.6591 51.3846 22.6591 51.8927C22.6591 52.4008 22.2221 52.7893 21.7227 52.7893Z" fill="#D6D6D6"/>
<path d="M15.9485 47.1406C13.0143 47.1406 10.3298 46.9313 8.23833 46.6922C7.73888 46.6325 7.3643 46.1842 7.42673 45.706C7.48916 45.2278 7.95739 44.8691 8.45684 44.9289C11.8281 45.3174 16.885 45.6462 21.7234 45.0484C22.2228 44.9887 22.7222 45.3174 22.7847 45.8255C22.8471 46.3037 22.5037 46.7819 21.9731 46.8417C19.9753 47.0509 17.9151 47.1406 15.9485 47.1406Z" fill="#D6D6D6"/>
<path d="M8.61405 52.7893H4.96185C4.43119 52.7893 4.02539 52.4007 4.02539 51.8926V45.3174C4.02539 45.0484 4.15025 44.8093 4.36876 44.63C4.58727 44.4506 4.8682 44.3909 5.14914 44.4506C5.14914 44.4506 6.46019 44.6897 8.48918 44.9288C8.98863 44.9886 9.36321 45.4369 9.30078 45.9151C9.23835 46.3933 8.77012 46.752 8.27068 46.6922C7.303 46.5727 6.52262 46.483 5.92953 46.3933V51.0259H8.64526C9.17592 51.0259 9.58172 51.4144 9.58172 51.9225C9.58172 52.4306 9.14471 52.7893 8.61405 52.7893Z" fill="#D6D6D6"/>
<path d="M19.4474 95.2294C17.4809 95.2294 16.6693 94.2133 16.0138 93.3764C15.764 93.0477 15.5143 92.7189 15.1709 92.42C14.3281 91.7027 13.0795 92.7787 13.0483 92.7787C12.7049 93.0775 11.7685 93.7948 11.6436 93.8845C11.6124 93.9144 11.5812 93.9144 11.5812 93.9443C10.3326 94.7214 7.11738 95.4685 3.96463 92.7787C0.312436 89.5807 0.406082 80.6443 0.406082 80.2558C0.406082 80.1064 0.437298 65.2522 0.406082 63.4291C0.374867 61.7853 0.62459 60.53 0.718236 60.1714L0.312436 33.7807C-0.71767 27.594 1.12403 23.32 1.18647 23.1407C1.18647 23.1108 1.21768 23.0809 1.21768 23.0511L9.77068 8.37628C9.8019 8.31651 9.83311 8.16707 9.83311 8.04752V7.33022L9.3961 7.18078C8.95908 7.03134 8.74058 6.61292 8.80301 6.19449C8.86544 5.89562 9.05273 5.6864 9.30245 5.56685C9.27124 5.50708 9.27124 5.4473 9.27124 5.38753C9.08395 3.89315 9.24002 2.0999 9.33367 1.6217C9.52096 0.575638 10.6135 0.396313 10.9881 0.336537C11.3939 0.276762 13.9223 0.00777463 14.4842 0.00777463C14.9836 -0.0221129 15.5767 0.0376622 16.3883 0.127325C16.7005 0.157212 17.0126 0.1871 17.3872 0.216987C19.1977 0.366425 19.5099 1.29294 19.5723 1.65159C19.9157 3.89315 19.7284 5.11854 19.6659 5.53697C19.6659 5.59674 19.6347 5.62663 19.6347 5.6864C19.8845 5.80595 20.103 6.04505 20.1342 6.34393C20.1966 6.79224 19.9469 7.21067 19.5099 7.33022L19.1041 7.44977V7.95786C19.1041 7.98774 19.1041 8.04752 19.1041 8.10729L28.0317 21.736C28.0629 21.7659 28.0941 21.8257 28.0941 21.8556C30.8098 27.8629 29.8734 32.7645 29.6861 33.6014V59.8725C29.9046 60.3806 29.9982 61.1875 29.9982 62.2934C29.9982 62.3532 29.967 70.901 29.9982 79.658C30.0294 88.7737 29.2803 90.836 27.4698 92.2407C26.2212 93.1971 24.7228 93.0775 23.8176 92.8384C23.0684 94.1535 21.7886 95.08 20.2903 95.2593C20.103 95.2892 19.9157 95.2892 19.7284 95.3191C19.6972 95.2294 19.5723 95.2294 19.4474 95.2294ZM14.5154 90.3578C15.1709 90.3578 15.8265 90.567 16.4508 91.0751C16.919 91.4636 17.2311 91.9119 17.5433 92.2706C18.1676 93.0775 18.4798 93.4661 19.6972 93.4063C19.8532 93.4063 19.9781 93.3764 20.103 93.3764C21.1331 93.227 22.0383 92.4798 22.4441 91.4337C22.5065 91.2843 22.569 91.1946 22.6314 91.1348C22.725 90.9854 22.8811 90.8659 23.0684 90.8061C23.3181 90.7164 23.5991 90.7164 23.8176 90.836C23.8176 90.836 25.3783 91.5234 26.3772 90.7463C27.4386 89.9394 28.2189 88.5944 28.1877 79.5684C28.1565 70.8113 28.1877 62.2635 28.1877 62.1738C28.1877 61.5163 28.1253 60.7392 28.0629 60.5001C27.938 60.3507 27.9068 60.1714 27.9068 59.992V33.422C27.9068 33.3623 27.9068 33.2726 27.938 33.2128C27.938 33.153 29.1242 28.4308 26.5021 22.5729L17.4497 8.85448C17.4184 8.8246 17.4184 8.79471 17.4184 8.76482C17.356 8.67516 17.2624 8.46594 17.2624 7.86819L17.2936 6.73247C17.2936 6.70258 17.2936 6.67269 17.2936 6.67269C17.2624 6.61292 17.2624 6.52326 17.2624 6.46348L17.2311 5.65652C17.2311 5.35764 17.3248 5.05877 17.5745 4.87944C17.6682 4.81967 17.793 4.75989 17.8867 4.73C17.9179 4.22192 17.9491 3.35518 17.7618 2.07001C17.6682 2.04013 17.5121 2.01024 17.2624 1.98035C16.8878 1.95046 16.5444 1.92058 16.2323 1.89069C15.5143 1.80103 14.9836 1.77114 14.6091 1.77114C14.016 1.80103 11.6124 2.04013 11.3627 2.07001C11.3002 2.07001 11.2378 2.0999 11.1754 2.0999C11.1129 2.5781 11.0505 3.71383 11.1129 4.75989C11.4251 4.90933 11.6436 5.2082 11.6436 5.56685V6.34393C11.706 6.46348 11.7372 6.58303 11.7372 6.70258V8.04752C11.7372 8.07741 11.7372 8.07741 11.7372 8.10729C11.7372 8.25673 11.6748 8.76482 11.4875 9.15336C11.4875 9.15336 11.4875 9.18324 11.4563 9.18324L2.90331 23.8879C2.74723 24.3063 1.2489 28.1618 2.18536 33.5715C2.18536 33.6014 2.18536 33.6611 2.18536 33.691L2.59116 60.2311C2.59116 60.3208 2.59116 60.3806 2.55994 60.4702C2.55994 60.4702 2.24779 61.6657 2.279 63.3992C2.31022 65.2522 2.279 79.658 2.279 80.2857C2.24779 82.6468 2.71602 89.2519 5.24446 91.4636C7.92898 93.7948 10.2701 92.6292 10.5511 92.4798C10.9256 92.1809 11.5812 91.7027 11.7685 91.5234C12.424 90.9256 13.4541 90.3578 14.5154 90.3578Z" fill="#D6D6D6"/>
<path d="M14.5788 6.6729C11.8631 6.6729 10.0213 6.31425 9.89648 6.28436L10.3023 4.521C10.3335 4.521 14.0169 5.26818 18.6368 4.58077L18.9177 6.34414C17.3257 6.58324 15.8586 6.6729 14.5788 6.6729Z" fill="#D6D6D6"/>
</svg>
