<svg width="21" height="66" viewBox="0 0 21 66" fill="none" xmlns="http://www.w3.org/2000/svg">
<path d="M10.5523 7.08536C7.9658 7.08536 6.25227 6.73489 6.15527 6.70303L6.54324 4.82324C6.57557 4.82324 9.93797 5.52418 14.3673 4.88696L14.6583 6.76676C13.171 7.02164 11.7808 7.08536 10.5523 7.08536Z" fill="#D6D6D6"/>
<path d="M15.2385 63.8296C15.1092 63.8296 14.9475 63.7978 14.8182 63.734C14.3332 63.511 14.1393 62.9375 14.3656 62.4596C14.7212 61.7587 15.1092 59.7833 15.2385 58.7319C15.3032 58.2221 15.8205 57.8398 16.3378 57.9354C16.855 57.9991 17.243 58.5089 17.146 59.0186C17.1137 59.3372 16.6934 62.1091 16.0791 63.3199C15.9498 63.6385 15.5941 63.8296 15.2385 63.8296Z" fill="#D6D6D6"/>
<path d="M12.5554 65.4545C11.1329 65.4545 10.5186 64.7854 10.0336 64.2119C9.87197 64.0208 9.71031 63.8296 9.484 63.6703C9.09603 63.3835 8.41708 63.8615 8.41708 63.8933C8.28776 63.9889 7.77047 64.3712 7.47949 64.5624C6.83287 65.104 5.50731 65.6775 3.1795 63.9252C1.98326 62.9693 1.17499 61.2489 0.787022 58.7956C0.754691 58.7 0.30206 55.9281 0.884014 54.0483C0.948675 53.7616 1.01334 53.5067 1.01334 53.2836L0.884014 35.1229C0.884014 34.9955 0.851683 34.8681 0.787022 34.6769C0.787022 34.645 0.754691 34.645 0.754691 34.6132C0.366722 33.3069 0.463714 32.128 1.11033 30.4075C1.65995 28.9738 1.43364 27.7949 1.17499 27.3489C0.916345 26.8073 0.690029 26.2656 0.560706 25.7558V25.724C0.0434141 23.43 -0.409217 18.6827 2.53288 12.5973C2.59754 12.4699 3.85844 9.9847 5.76596 7.97747C5.83062 7.91375 5.83062 7.85003 5.83062 7.85003V7.69072L5.76596 7.65886C5.73363 7.65886 5.7013 7.627 5.66897 7.627C5.24867 7.40397 5.02235 6.95792 5.11934 6.51187C5.15167 6.35257 5.24867 6.19326 5.34566 6.06582C5.31333 5.97023 5.281 5.87465 5.281 5.77907C5.11934 4.34533 5.24867 2.62484 5.37799 2.14693C5.63664 1.1911 6.63889 0.968076 7.02686 0.904354C7.44716 0.808772 9.9043 0.585746 10.4539 0.553885C10.9389 0.522024 11.5532 0.585746 12.3938 0.649467C12.6524 0.681328 12.9757 0.681328 13.299 0.713189C15.1419 0.840633 15.4329 1.7646 15.4975 2.14693C15.7238 3.61253 15.7238 4.88696 15.5622 5.84279C15.5298 5.97023 15.4975 6.09768 15.4329 6.19326C15.4975 6.3207 15.5622 6.44815 15.5945 6.57559C15.6592 7.02164 15.4652 7.43583 15.0772 7.65886V7.81817C15.0772 7.88189 15.1419 8.00933 15.2065 8.10491C16.9524 10.0803 18.0516 12.5336 18.1163 12.6292C20.6381 18.2685 20.4441 22.7291 19.8622 25.4691C19.7652 25.9151 19.5712 26.4568 19.3125 27.0303C19.1509 27.4126 18.9246 28.5596 19.3772 30.1526C19.8622 31.8413 19.9268 32.9883 19.6682 34.1353C19.6035 34.3583 19.5712 34.5494 19.5712 34.6769L19.9915 52.7101C19.9915 53.0288 20.0238 53.3155 20.1531 53.666C20.1855 53.7616 20.2178 53.889 20.2501 54.0483C20.4118 54.7174 20.5734 55.5458 20.5411 55.9918C20.3795 61.2807 19.8622 62.5233 18.3426 63.5428C17.4697 64.1482 16.4998 64.1163 15.8208 63.9889C15.2389 64.7854 14.3336 65.3271 13.299 65.4226C13.2667 65.4226 13.2667 65.4226 13.2344 65.4226H13.202C13.1374 65.4226 13.0404 65.4545 12.9111 65.4545C12.7171 65.4545 12.6524 65.4545 12.5554 65.4545ZM9.22535 61.6631C9.71031 61.6631 10.2276 61.7905 10.7126 62.1728C11.0682 62.4277 11.2945 62.7145 11.5208 62.9693C11.9411 63.4473 12.0705 63.5747 12.7494 63.5428C12.7817 63.5428 12.7817 63.5428 12.8141 63.5428H12.8464C12.9111 63.5428 12.9757 63.511 13.0727 63.511C13.6223 63.4473 14.1396 63.0649 14.3659 62.5552C14.4306 62.4277 14.4953 62.3321 14.5923 62.2366L14.6246 62.2047C14.6892 62.141 14.7216 62.1091 14.8186 62.0454C15.0772 61.8542 15.4329 61.8224 15.7238 61.9498C15.7238 61.9498 16.6614 62.3003 17.211 61.9179C17.8577 61.4719 18.4073 61.0896 18.5689 55.8644C18.5689 55.8325 18.5689 55.8325 18.5689 55.8007C18.5689 55.6732 18.4719 55.0041 18.3426 54.4306C18.3103 54.3669 18.3103 54.3032 18.278 54.2076C18.1163 53.666 18.0193 53.1881 18.0193 52.6783L17.599 34.645C17.599 34.2627 17.696 33.9122 17.7607 33.6255C17.9223 32.9564 17.9223 32.1599 17.4697 30.5668C16.9201 28.5915 17.1464 26.9984 17.5344 26.17C17.7607 25.6921 17.89 25.3417 17.9547 24.9912C18.4073 22.9839 18.7629 18.7783 16.3381 13.3301C16.3381 13.3301 15.2712 11.0043 13.7193 9.25191C13.687 9.22004 13.687 9.22004 13.6547 9.18818C13.5253 9.02888 13.1374 8.45538 13.1374 7.7863V7.0535C13.1374 6.98978 13.1374 6.92606 13.1697 6.83048C13.1374 6.7349 13.1374 6.63931 13.105 6.54373L13.0727 6.06582C13.0727 6.03396 13.0727 6.03396 13.0727 6.0021C13.0727 5.55604 13.3314 5.20557 13.7193 5.01441C13.784 4.37719 13.7517 3.54881 13.6223 2.62484C13.5253 2.59298 13.396 2.56112 13.1697 2.56112C12.8464 2.52926 12.5231 2.4974 12.2644 2.4974C11.5208 2.43368 10.9712 2.40182 10.5832 2.40182C9.96896 2.43368 7.7058 2.6567 7.41483 2.68856C7.31784 2.78415 7.25317 2.78415 7.18851 2.81601C7.12385 3.26206 7.05919 4.24975 7.12385 5.14185C7.44716 5.33302 7.64114 5.68349 7.64114 6.06582V6.54373C7.64114 6.60745 7.64114 6.67117 7.64114 6.70303C7.7058 6.83048 7.7058 6.95792 7.7058 7.11723V7.85003C7.7058 8.3598 7.51182 8.80585 7.15618 9.25191L7.12385 9.28377C5.41032 11.0998 4.21408 13.4257 4.21408 13.4575C1.56296 18.9695 1.95093 23.207 2.40356 25.2779C2.50055 25.6603 2.66221 26.0745 2.88852 26.4886C3.37348 27.4445 3.63213 29.165 2.88852 31.0766C2.3389 32.5422 2.37123 33.275 2.56521 34.0397C2.69454 34.422 2.7592 34.7725 2.7592 35.0911L2.88852 53.2518C2.88852 53.666 2.82386 54.0802 2.69454 54.5581C2.30657 55.8007 2.53288 57.8079 2.66221 58.477C2.95318 60.4205 3.53514 61.7905 4.34341 62.3959C5.31333 63.1287 5.99227 63.288 6.18626 63.0968C6.25092 63.0331 6.31558 63.0012 6.34791 62.9693C6.38024 62.9693 6.38024 62.9375 6.41257 62.9375C6.5419 62.8738 7.02686 62.5233 7.18851 62.3959C7.57648 62.0772 8.35242 61.6631 9.22535 61.6631ZM14.3013 62.7782C14.3013 62.81 14.3013 62.8419 14.3013 62.8738C14.3013 62.8419 14.3013 62.81 14.3013 62.7782Z" fill="#D6D6D6"/>
<path d="M15.0458 31.3952C14.1405 31.3952 13.4616 31.2359 12.718 31.0447C11.8774 30.8536 11.0044 30.6305 9.61422 30.6305C8.38565 30.6305 7.67437 30.8217 6.9631 31.0129C6.21949 31.204 5.47588 31.4271 4.40897 31.2677C2.50145 31.0129 1.75785 29.8659 1.59619 29.2287L3.47138 28.7826V28.7507C3.47138 28.7826 3.66536 29.2605 4.69994 29.4198C5.34656 29.5154 5.79919 29.388 6.44581 29.1968C7.18941 28.9738 8.127 28.7189 9.61422 28.7189C11.2308 28.7189 12.33 28.9738 13.1706 29.1968C13.8495 29.3561 14.3668 29.4835 15.0458 29.4835C16.2744 29.4835 17.1473 28.4321 17.1473 28.4321L18.6668 29.611C18.6345 29.6747 17.2443 31.3952 15.0458 31.3952Z" fill="#D6D6D6"/>
<path d="M10.2933 56.0875C5.18501 56.0875 1.79028 55.0998 1.56396 55.036L2.11359 53.22L1.82261 54.1439L2.11359 53.22C2.17825 53.2518 9.54966 55.3865 18.7963 53.22L19.2489 55.0679C15.9512 55.8326 12.9121 56.0875 10.2933 56.0875Z" fill="#D6D6D6"/>
<path d="M5.80037 52.3916C5.60639 52.3916 5.44473 52.3279 5.28308 52.2323C5.02443 52.073 4.86278 51.8181 4.83045 51.5313L3.63421 41.8775C3.60188 41.527 3.7312 41.1766 4.05451 40.9854C4.28083 40.8261 9.45375 37.3533 16.3402 40.4756C16.6958 40.6349 16.9222 41.0173 16.8898 41.3996L16.3079 51.0216C16.2755 51.3083 16.1462 51.5632 15.9199 51.7225C15.6936 51.8818 15.4026 51.9455 15.144 51.9137C15.1116 51.9137 10.4237 50.9897 6.09135 52.3597C5.99436 52.3916 5.89737 52.3916 5.80037 52.3916ZM5.63872 42.2917L6.60864 50.225C9.77706 49.4604 12.8485 49.6834 14.4004 49.8746L14.8853 42.0049C10.3913 40.1889 6.89962 41.6226 5.63872 42.2917Z" fill="#D6D6D6"/>
<path d="M7.18715 47.3329C5.37663 47.3329 4.76234 46.5682 4.56836 46.2496L6.24956 45.2938C6.21723 45.2301 6.1849 45.1982 6.1849 45.1982C6.1849 45.1982 6.99317 45.8354 10.0323 44.8796C14.7202 43.3503 16.2398 45.3257 16.3691 45.5487L14.7525 46.6001C14.7525 46.6001 14.7525 46.632 14.7849 46.632C14.7849 46.632 13.8796 45.6443 10.6142 46.6957C9.15933 47.1417 8.02775 47.3329 7.18715 47.3329Z" fill="#D6D6D6"/>
</svg>
