<svg width="26" height="84" viewBox="0 0 26 84" fill="none" xmlns="http://www.w3.org/2000/svg">
<path d="M16.5728 83.8795C14.8365 83.8795 14.1158 83.0198 13.5588 82.3193C13.3295 82.0645 13.1329 81.8098 12.8709 81.5869C12.2812 81.1093 11.2983 81.8735 11.2983 81.8735C11.0362 82.1282 10.25 82.6695 10.1189 82.7651C10.0862 82.7969 10.0534 82.7969 10.0534 82.8287C9.92237 82.8924 6.84285 84.6437 3.46848 81.8735C0.290677 79.2943 0.290677 72.4483 0.323438 71.6523C0.323438 71.5568 0.356199 59.648 0.323438 58.1833C0.290677 56.8778 0.487242 55.8907 0.585525 55.5404L0.257916 34.493C-0.561106 29.6849 0.814851 26.3097 1.01142 25.8958L7.66187 8.15995V7.58679L7.23598 7.42759C6.77733 7.26838 6.51524 6.82259 6.61353 6.37681C6.67905 6.09023 6.84285 5.8355 7.10494 5.70813C7.10494 5.67629 7.07218 5.61261 7.07218 5.58077C6.87561 4.02052 7.03942 2.17371 7.1377 1.69608C7.33427 0.613462 8.44814 0.422412 8.84127 0.358728C9.2344 0.295045 11.7897 0.0403112 12.3794 0.00846946C12.8709 -0.0233722 13.4606 0.0403112 14.3123 0.103995C14.6072 0.135836 14.9348 0.167678 15.3279 0.19952C17.1953 0.358728 17.5229 1.31398 17.5557 1.69608C17.8833 4.02052 17.6867 5.26235 17.6539 5.67629C17.6539 5.70813 17.6539 5.73998 17.6212 5.80366C17.8833 5.93103 18.0798 6.18576 18.1126 6.50418C18.1781 6.9818 17.916 7.42759 17.4574 7.55495L17.0642 7.61864V8.09626L24.0751 24.7813C26.3683 29.5894 25.6148 33.5378 25.451 34.302V55.222C25.5821 55.5722 25.7131 56.1454 25.7131 57.228C25.7131 57.2917 25.6804 64.1377 25.7131 71.111C25.7459 78.5301 25.0907 80.2177 23.4854 81.364C22.437 82.1282 21.1921 82.0645 20.3731 81.9053C19.7179 82.9561 18.604 83.6566 17.3591 83.8158C17.1953 83.8477 17.0642 83.8477 16.9004 83.8477C16.7694 83.8795 16.6711 83.8795 16.5728 83.8795ZM12.4122 79.5172C13.0019 79.5172 13.5916 79.6764 14.1485 80.1222C14.5417 80.4725 14.8365 80.7909 15.0986 81.1093C15.6228 81.7461 15.8193 82.0008 16.7694 81.9372C16.9004 81.9372 16.9987 81.9053 17.097 81.9053C17.8833 81.8098 18.604 81.2685 18.8989 80.4725C18.9644 80.3451 19.0299 80.2177 19.0954 80.1859C19.1937 80.0267 19.3575 79.9311 19.5213 79.8675C19.7834 79.7719 20.0455 79.7719 20.3076 79.8675C20.3076 79.8675 21.5525 80.3769 22.306 79.8356C23.125 79.2306 23.7802 78.2117 23.7475 71.111C23.7147 64.1058 23.7475 57.2598 23.7475 57.1962C23.7475 56.7185 23.7147 56.1772 23.6492 55.9862C23.5509 55.827 23.4854 55.6359 23.4854 55.4449V34.1746C23.4854 34.0791 23.4854 34.0154 23.5181 33.9199C23.5181 33.888 24.4682 30.1307 22.306 25.5455C22.306 25.5455 22.306 25.5137 22.2732 25.5137L15.1969 8.63757C15.1314 8.5102 15.1314 8.38284 15.1314 8.25547L15.1641 6.91812C15.1641 6.88628 15.1641 6.88628 15.1641 6.85444C15.1314 6.79075 15.1314 6.72707 15.1314 6.63154L15.0986 5.80366C15.0986 5.51708 15.2296 5.19867 15.459 5.03946C15.5572 4.97577 15.6555 4.91209 15.7538 4.88025C15.7866 4.33894 15.8193 3.47921 15.6555 2.17371C15.5572 2.14186 15.4262 2.11002 15.1641 2.07818C14.771 2.04634 14.4434 2.0145 14.1485 1.98265C13.395 1.91897 12.8709 1.85529 12.5105 1.88713C11.9208 1.91897 9.49648 2.17371 9.2344 2.20555C9.20164 2.20555 9.13611 2.23739 9.07059 2.23739C9.00507 2.74686 8.93955 3.86132 9.00507 4.88025C9.33268 5.03946 9.52925 5.35788 9.52925 5.73998V6.53602C9.59477 6.66339 9.62753 6.79075 9.62753 6.91812V8.31915C9.62753 8.44652 9.59477 8.54205 9.56201 8.63757L2.81326 26.5644C2.81326 26.5963 2.7805 26.5963 2.7805 26.6281C2.7805 26.66 1.37179 29.7805 2.15805 34.2383C2.15805 34.302 2.15805 34.3338 2.15805 34.3975L2.48566 55.6359C2.48566 55.7314 2.48566 55.827 2.45289 55.8907C2.45289 55.8907 2.19081 56.8141 2.22357 58.1514C2.25633 59.648 2.22357 71.1747 2.22357 71.6841C2.19081 73.5628 2.58394 78.7212 4.64787 80.4088C6.81009 82.1601 8.67746 81.3322 8.93955 81.2048C9.26716 80.9819 9.79133 80.5998 9.92238 80.4725C10.5448 79.9948 11.4621 79.5172 12.4122 79.5172Z" fill="#233E7C"/>
<path d="M12.6112 58.3109C5.82969 58.3109 1.50525 56.8143 1.24316 56.7188L1.93114 54.9357C2.02943 54.9675 11.4646 58.2153 24.2085 54.9038L24.7327 56.7506C20.1789 57.9288 16.0838 58.3109 12.6112 58.3109Z" fill="#233E7C"/>
<path d="M12.4134 36.6263C5.66469 36.6263 1.3075 35.1297 1.04541 35.0342L1.73339 33.2511L1.40578 34.1426L1.73339 33.2511C1.83167 33.2829 11.2668 36.5308 24.0108 33.2192L24.535 35.0661C19.9812 36.2442 15.8533 36.6263 12.4134 36.6263Z" fill="#233E7C"/>
<path d="M12.4139 6.9176C9.66194 6.9176 7.79457 6.5355 7.69629 6.50366L8.12218 4.625C8.15494 4.625 11.8897 5.3892 16.509 4.68868L16.8038 6.56734C15.1985 6.82208 13.6915 6.9176 12.4139 6.9176Z" fill="#233E7C"/>
<path d="M19.8818 81.7464C19.718 81.7464 19.587 81.7146 19.4559 81.6509C18.9645 81.428 18.768 80.8549 19.03 80.3773C19.6197 79.2628 20.1112 76.3015 20.275 75.2826C20.3405 74.7731 20.8319 74.391 21.3888 74.4547C21.913 74.5184 22.3061 74.996 22.2406 75.5373C22.1751 75.9513 21.6509 79.6131 20.7991 81.237C20.5698 81.5554 20.2422 81.7464 19.8818 81.7464Z" fill="#233E7C"/>
<path d="M12.9699 54.0436C12.8716 54.0436 12.8061 54.0436 12.7078 54.0436C9.39898 53.8526 6.81087 50.7321 6.67983 50.6047C6.54878 50.4455 6.48326 50.2545 6.48326 50.0634L6.4505 49.0445C6.41774 48.5032 6.84363 48.0574 7.40057 48.0574C7.92474 48.0255 8.41615 48.4395 8.41615 48.9808L8.44891 49.6813C9.03861 50.3181 10.8405 52.0694 12.8389 52.1968C14.6407 52.2923 16.6391 50.6366 17.4909 49.745L17.5237 49.0126C17.5237 48.4713 17.9823 48.0574 18.5393 48.0892C19.0962 48.0892 19.5221 48.535 19.4893 49.0763L19.4566 50.1589C19.4566 50.3818 19.3583 50.5729 19.2272 50.7321C19.0634 50.7958 16.2132 54.0436 12.9699 54.0436Z" fill="#233E7C"/>
<path d="M18.606 45.1281C18.606 45.1281 18.5732 45.1281 18.606 45.1281C18.0491 45.1281 17.6232 44.6823 17.6232 44.141L17.6887 41.4026C16.4438 41.4981 14.4454 41.4663 12.7746 40.7658C11.9883 41.116 10.3175 41.6892 8.08977 41.6255L8.18805 44.0454C8.22081 44.5868 7.79492 45.0325 7.23799 45.0325C6.71381 45.0644 6.2224 44.6504 6.2224 44.1091L6.05859 40.6065C6.05859 40.32 6.15688 40.0652 6.3862 39.8742C6.58277 39.6831 6.87762 39.5876 7.17246 39.6194C10.2192 40.0015 12.2504 38.8552 12.2504 38.8552C12.5452 38.696 12.9056 38.696 13.2332 38.8552C14.904 39.7468 17.6232 39.5239 18.5405 39.3647C18.8353 39.301 19.1302 39.3966 19.3595 39.5876C19.5888 39.7787 19.7199 40.0652 19.6871 40.3518L19.5888 44.2046C19.5888 44.7141 19.1302 45.1281 18.606 45.1281Z" fill="#233E7C"/>
<path d="M21.422 49.9362H18.4735C17.9166 49.9362 17.4907 49.5223 17.4907 48.981C17.4907 48.4396 17.9166 48.0257 18.4735 48.0257H20.4392V44.8734C19.8823 44.9689 19.3253 45.0644 18.7356 45.1281C18.2115 45.1918 17.72 44.8097 17.6545 44.3002C17.589 43.7908 17.9821 43.3131 18.5063 43.2494C19.4564 43.1221 20.3737 42.9947 21.2255 42.8037C21.5203 42.74 21.8152 42.8037 22.0445 42.9947C22.2738 43.1858 22.4049 43.4405 22.4049 43.7271V49.0128C22.4049 49.4904 21.979 49.9362 21.422 49.9362Z" fill="#233E7C"/>
<path d="M7.43344 49.9363H4.35392C3.79699 49.9363 3.37109 49.5224 3.37109 48.9811V43.6953C3.37109 43.4088 3.50214 43.154 3.73146 42.963C3.96079 42.7719 4.25564 42.7082 4.55049 42.7719C4.55049 42.7719 5.66436 42.963 7.33516 43.154C7.85933 43.2177 8.25247 43.6953 8.18694 44.2048C8.12142 44.7143 7.63001 45.0964 7.10583 45.0327C6.41786 44.969 5.7954 44.8735 5.33675 44.8098V47.994H7.43344C7.99038 47.994 8.41627 48.4079 8.41627 48.9492C8.41627 49.4905 7.95762 49.9363 7.43344 49.9363Z" fill="#233E7C"/>
<path d="M18.4744 49.9359H7.434C6.87706 49.9359 6.45117 49.5219 6.45117 48.9806C6.45117 48.4393 6.87706 48.0254 7.434 48.0254H18.4744C19.0314 48.0254 19.4572 48.4393 19.4572 48.9806C19.4572 49.5219 19.0314 49.9359 18.4744 49.9359Z" fill="#233E7C"/>
<path d="M13.6264 45.4142C11.1693 45.4142 8.87606 45.2231 7.10697 45.0321C6.5828 44.9684 6.18967 44.4908 6.25519 43.9813C6.32071 43.4718 6.81213 43.0897 7.3363 43.1534C10.1865 43.4718 14.4127 43.7266 18.5078 43.249C19.0319 43.1853 19.5233 43.5674 19.5889 44.0768C19.6544 44.5863 19.2613 45.0639 18.7371 45.1276C17.0008 45.3187 15.2644 45.4142 13.6264 45.4142Z" fill="#233E7C"/>
</svg>
