<svg width="30" height="96" viewBox="0 0 30 96" fill="none" xmlns="http://www.w3.org/2000/svg">
<path d="M22.7624 92.7235C22.6457 92.7235 22.4998 92.6947 22.3831 92.6372C21.9454 92.436 21.7703 91.9185 21.9746 91.4873C22.6748 90.0211 23.2584 86.2549 23.4335 84.9325C23.4918 84.4725 23.9295 84.1275 24.4255 84.185C24.8923 84.2425 25.2425 84.6737 25.1841 85.1625C25.1549 85.3637 24.513 90.2223 23.5502 92.2347C23.4043 92.551 23.0833 92.7235 22.7624 92.7235Z" fill="#233E7C"/>
<path d="M14.7382 6.6773C12.0831 6.6773 10.3032 6.30356 10.1865 6.27481L10.5658 4.57861C10.595 4.57861 14.2422 5.32609 18.7648 4.63611L19.0274 6.33231C17.4518 6.59105 15.9929 6.6773 14.7382 6.6773Z" fill="#233E7C"/>
<path d="M18.7358 95.4545C16.8101 95.4545 16.0515 94.4196 15.4096 93.5859C15.147 93.2409 14.9136 92.9246 14.5926 92.6371C13.8048 91.9184 12.5793 92.8959 12.4626 93.0109C12.1417 93.3271 11.2663 93.9883 11.0913 94.1321C11.0621 94.1608 11.0621 94.1608 11.0329 94.1896C9.80745 94.9658 6.65626 95.7133 3.62177 93.0109C0.00373648 89.7622 0.120447 80.7637 0.120447 80.39C0.120447 80.2463 0.149625 65.2392 0.120447 63.3705C0.0912695 62.6231 -0.317219 44.6836 0.558113 41.5212C1.2292 39.0775 1.11249 38.0713 0.908246 36.4039C0.879068 36.0876 0.820713 35.7426 0.791535 35.3689C0.558113 33.0402 0.528935 30.654 0.528935 30.539C0.616468 18.0619 8.64034 9.40844 10.0992 7.94223V7.396L9.66156 7.22351C9.25307 7.07976 9.01965 6.67727 9.10719 6.27479C9.16554 5.98729 9.34061 5.7573 9.60321 5.64231C9.57403 5.58481 9.57403 5.49856 9.54485 5.44106C9.36979 3.88861 9.51567 2.07741 9.63239 1.58868C9.83663 0.582461 10.8578 0.409966 11.2372 0.323719C11.5873 0.266221 14.0966 0.0074785 14.651 0.0074785C15.147 -0.0212706 15.7305 0.0362276 16.5475 0.122475C16.8393 0.151224 17.1311 0.179973 17.4812 0.208722C19.2902 0.352468 19.582 1.27244 19.6112 1.61743C19.9321 3.94611 19.7571 5.12482 19.6987 5.52731C19.6987 5.58481 19.6695 5.6423 19.6695 5.6998C19.9321 5.8148 20.1364 6.04479 20.1655 6.36103C20.2239 6.79227 19.9905 7.19476 19.582 7.30975L19.1735 7.42475V7.68349C20.6324 9.1497 28.6563 17.8032 28.7438 30.2516C28.7438 30.3665 28.7438 32.7527 28.4812 35.1101C28.452 35.4264 28.4228 35.7139 28.3645 35.9726C28.1602 37.6976 28.0143 38.7325 28.7146 41.2337C29.5899 44.3961 29.1815 62.3356 29.1523 63.1118V64.8367C29.1523 64.8942 29.1231 70.7878 29.1523 79.6425C29.1815 88.8422 28.452 90.9122 26.7014 92.3209C25.4759 93.2984 23.9878 93.1259 23.0833 92.8959C22.383 94.2183 21.1284 95.1383 19.6695 95.3683C19.582 95.397 19.4653 95.397 19.3777 95.397C19.3194 95.397 19.261 95.397 19.2027 95.4258C19.1735 95.4258 19.1443 95.4258 19.1151 95.4258C18.9693 95.4545 18.8525 95.4545 18.7358 95.4545ZM13.9215 90.6534C14.5342 90.6534 15.1762 90.8547 15.7597 91.3722C16.1974 91.7747 16.5183 92.2059 16.8101 92.5796C17.4228 93.3846 17.7438 93.8158 18.9401 93.7583C19.0276 93.7583 19.1151 93.7296 19.1735 93.7296C19.2319 93.7296 19.261 93.7296 19.3194 93.7008H19.3486C20.3698 93.5571 21.3035 92.7521 21.6828 91.6884C21.712 91.5734 21.7703 91.4872 21.8578 91.4009C21.9162 91.2859 22.0329 91.1997 22.1204 91.1422C22.383 90.9984 22.704 90.9697 22.9666 91.0847C22.9666 91.0847 24.5422 91.7747 25.5342 90.9984C26.5846 90.1935 27.3724 88.8135 27.3433 79.7C27.3141 70.9315 27.3433 65.038 27.3433 64.8942V63.1405C27.46 57.9944 27.635 44.1661 26.964 41.7512C26.1762 38.905 26.3512 37.6113 26.5846 35.8289C26.6138 35.5701 26.643 35.2826 26.7014 34.9664C26.964 32.724 26.964 30.3378 26.964 30.309C26.8764 17.6594 17.8021 8.86221 17.7146 8.77596C17.6271 8.68971 17.5687 8.60346 17.5104 8.48847L17.452 8.34472C17.3937 8.22973 17.3937 8.11473 17.3937 7.99973L17.4228 6.84977C17.4228 6.82102 17.4228 6.82102 17.4228 6.79227C17.3937 6.73477 17.3937 6.64852 17.3937 6.59103L17.3645 5.7573C17.3645 5.46981 17.452 5.18232 17.6854 5.00982C17.773 4.95233 17.8897 4.89483 18.0064 4.86608C18.0647 4.08985 18.0356 3.16988 17.8897 2.10616C17.8021 2.07741 17.6271 2.01992 17.3061 1.99117C16.956 1.96242 16.635 1.93367 16.3433 1.90492C15.5846 1.81867 15.0594 1.78992 14.7093 1.78992C14.1258 1.81867 11.7915 2.04867 11.5289 2.07741C11.4706 2.07741 11.3539 2.10616 11.2955 2.13491C11.2372 2.62365 11.1496 3.80236 11.2372 4.89483C11.5289 5.03857 11.7624 5.32607 11.7624 5.67105V6.47603C11.8207 6.59103 11.8499 6.70602 11.8499 6.84977V8.22973C11.8499 8.31597 11.8207 8.40222 11.7915 8.48847L11.7332 8.66096C11.6748 8.80471 11.6165 8.9197 11.4998 9.00595C11.4122 9.0922 2.33795 17.8894 2.25042 30.5678C2.25042 30.5678 2.2796 32.954 2.51302 35.2251C2.5422 35.5701 2.60055 35.9151 2.62973 36.2314C2.83398 37.9851 2.97986 39.25 2.22124 42.0099C1.55016 44.4249 1.72522 58.2532 1.84193 63.3705C1.87111 65.268 1.84193 79.815 1.84193 80.4475C1.81276 82.8337 2.25042 89.5322 4.73053 91.7747C7.41488 94.1608 9.7491 92.9534 10.0117 92.7809C10.4202 92.4646 11.0329 91.9759 11.208 91.8322L11.2372 91.8034C11.8207 91.2572 12.8419 90.6534 13.9215 90.6534Z" fill="#233E7C"/>
<path d="M7.00495 77.9464C6.85906 77.9464 6.71317 77.9176 6.59646 77.8314C6.33386 77.6876 6.18798 77.4576 6.12962 77.1701L3.64951 58.4832C3.62034 58.2245 3.70787 57.937 3.91211 57.7357C9.45588 52.5034 14.737 52.5609 18.18 53.5383C21.623 54.4871 24.0156 56.5283 24.8909 57.3332C24.9201 57.362 24.9201 57.362 24.9493 57.3907C25.1243 57.5632 25.2119 57.7932 25.1827 58.0232L24.0739 75.6177C24.0447 75.9339 23.8697 76.1927 23.6071 76.3364C23.3445 76.4801 22.9943 76.4514 22.7317 76.3076C17.4506 72.9728 7.4718 77.7739 7.35508 77.8314C7.26755 77.9176 7.15084 77.9464 7.00495 77.9464ZM5.45853 58.7132L7.7344 75.8189C10.4187 74.6977 17.4506 72.1678 22.44 74.2377L23.432 58.3682C21.4479 56.6145 13.9201 51.0659 5.45853 58.7132Z" fill="#233E7C"/>
<path d="M14.9425 48.45C6.80195 48.45 0.878867 47.3 0.791334 47.3C0.324491 47.2137 0.00353574 46.7538 0.0910689 46.2938C0.178602 45.8338 0.645446 45.5176 1.11229 45.6038C1.229 45.6325 14.2714 48.1337 28.1017 45.6038C28.5685 45.5176 29.0354 45.8338 29.1229 46.2938C29.2104 46.7538 28.8895 47.2137 28.4226 47.3C23.6958 48.1625 19.0566 48.45 14.9425 48.45Z" fill="#233E7C"/>
<path d="M14.3598 83.1499C6.33594 83.1499 0.996413 81.1662 0.64628 81.0512C0.208615 80.8787 -0.0248071 80.39 0.150259 79.93C0.325326 79.4988 0.821347 79.2688 1.28819 79.4413C1.4049 79.4988 13.2219 83.8399 28.0442 79.4125C28.511 79.2688 29.007 79.5275 29.1237 79.9875C29.2696 80.4475 29.007 80.9362 28.5402 81.0512C23.3174 82.6324 18.4739 83.1499 14.3598 83.1499Z" fill="#233E7C"/>
<path d="M7.73508 70.9029C6.04277 70.9029 5.45922 70.2704 5.25497 69.9829C4.99238 69.5804 5.13826 69.0342 5.54675 68.8042C5.92606 68.5742 6.42208 68.6605 6.68468 69.0054C6.83057 69.0917 8.17275 69.8392 13.3664 67.7117C20.5733 64.7506 24.1913 69.4654 24.2497 69.5229C24.5415 69.8967 24.4539 70.4429 24.0746 70.7304C23.6953 71.0179 23.1409 70.9316 22.8491 70.5579C22.7324 70.4142 19.9605 66.9068 14.0666 69.3217C11.0613 70.5292 9.04808 70.9029 7.73508 70.9029Z" fill="#233E7C"/>
</svg>
