<svg width="22" height="65" viewBox="0 0 22 65" fill="none" xmlns="http://www.w3.org/2000/svg">
<path d="M11.2635 41.8318C16.9571 41.8318 20.6304 40.6242 20.8447 40.5288L20.2631 38.7173C20.1713 38.7491 12.2124 41.3869 1.46795 38.6855L1.0394 40.5288C4.86578 41.514 8.32482 41.8318 11.2635 41.8318Z" fill="#D6D6D6"/>
<path d="M11.45 26.1956C17.1437 26.1956 20.817 24.9879 21.0312 24.8926L20.4496 23.0811C20.3578 23.1129 12.3989 25.7507 1.65448 23.0493L1.22592 24.8926C5.0523 25.8778 8.51134 26.1956 11.45 26.1956Z" fill="#D6D6D6"/>
<path d="M10.958 39.3852C11.0192 39.3852 11.0804 39.3852 11.1722 39.3852C13.713 39.2263 15.6415 36.7157 15.7333 36.5885C15.8557 36.4296 15.917 36.239 15.917 36.0483L15.9476 35.2538C15.9782 34.7135 15.5802 34.2686 15.0598 34.2686C14.5395 34.2686 14.1109 34.6499 14.1109 35.1902L14.0803 35.6669C13.5293 36.3025 12.2742 37.4466 11.0498 37.5102C9.82536 37.5737 8.47848 36.3979 7.83565 35.6987V35.222C7.83565 34.6817 7.40709 34.2686 6.8867 34.3003C6.36632 34.3003 5.96838 34.7453 5.99899 35.2855L6.0296 36.1118C6.0296 36.3343 6.12143 36.525 6.24387 36.6839C6.45815 36.9381 8.50909 39.3852 10.958 39.3852Z" fill="#D6D6D6"/>
<path d="M6.8306 32.3934C7.35098 32.3934 7.74893 31.9484 7.74893 31.4082L7.68771 29.4695C8.60604 29.5331 9.95292 29.4695 11.1161 28.9928C11.6977 29.2471 12.8304 29.6602 14.3303 29.6602H14.3609L14.2997 31.3446C14.2691 31.8849 14.667 32.3298 15.1874 32.3298C15.6772 32.3616 16.1363 31.9484 16.1363 31.4082L16.2588 28.6432C16.2588 28.3572 16.167 28.103 15.9527 27.9123C15.769 27.7216 15.4935 27.6262 15.218 27.658C13.0752 27.9441 11.6059 27.086 11.6059 27.086C11.3304 26.9271 10.9937 26.9271 10.7182 27.086C9.52437 27.7534 7.59587 27.5945 6.95304 27.4673C6.67754 27.4038 6.40204 27.4991 6.18777 27.6898C5.97349 27.8805 5.85104 28.1665 5.88166 28.4525L5.91227 31.4399C5.91227 31.9802 6.31021 32.3934 6.8306 32.3934Z" fill="#D6D6D6"/>
<path d="M4.74715 36.1432H6.92054C7.44092 36.1432 7.83887 35.73 7.83887 35.1898C7.83887 34.6495 7.44092 34.2363 6.92054 34.2363H5.66548V32.2024C6.00221 32.2659 6.33893 32.3295 6.70626 32.3613C7.19604 32.4248 7.6552 32.0435 7.71642 31.535C7.77764 31.0265 7.41031 30.5498 6.92054 30.4862C6.21648 30.3909 5.54304 30.2638 4.93082 30.1366C4.65532 30.0731 4.37982 30.1366 4.16555 30.3273C3.95127 30.518 3.82882 30.7722 3.82882 31.0583V35.1898C3.82882 35.73 4.22677 36.1432 4.74715 36.1432Z" fill="#D6D6D6"/>
<path d="M15.0323 36.1432H17.2975C17.8179 36.1432 18.2158 35.73 18.2158 35.1898V31.0583C18.2158 30.7722 18.0934 30.518 17.8791 30.3273C17.6648 30.1366 17.3893 30.0731 17.1138 30.1366C17.1138 30.1366 16.3179 30.2955 15.0629 30.4227C14.5731 30.4862 14.2058 30.9629 14.267 31.4714C14.3282 31.9799 14.7874 32.3613 15.2772 32.2977C15.6751 32.2342 16.0424 32.2024 16.3485 32.1706V34.2363H15.0017C14.4813 34.2363 14.0833 34.6495 14.0833 35.1898C14.0833 35.73 14.5425 36.1432 15.0323 36.1432Z" fill="#D6D6D6"/>
<path d="M6.91897 36.1437H15.0309C15.5513 36.1437 15.9492 35.7305 15.9492 35.1902C15.9492 34.65 15.5513 34.2368 15.0309 34.2368H6.91897C6.39858 34.2368 6.00064 34.65 6.00064 35.1902C6.00064 35.7305 6.39858 36.1437 6.91897 36.1437Z" fill="#D6D6D6"/>
<path d="M10.4706 32.584C12.3073 32.584 13.9909 32.4569 15.2765 32.298C15.7663 32.2344 16.1336 31.7577 16.0724 31.2492C16.0112 30.7408 15.552 30.3594 15.0623 30.4229C12.9807 30.6772 9.889 30.8679 6.88912 30.4865C6.39935 30.4229 5.94018 30.8043 5.87896 31.3128C5.81774 31.8213 6.18507 32.298 6.67485 32.3616C7.96051 32.5523 9.24617 32.584 10.4706 32.584Z" fill="#D6D6D6"/>
<path d="M5.04841 63.0609C5.20147 63.0609 5.32391 63.0291 5.44636 62.9655C5.90552 62.7431 6.08919 62.171 5.8443 61.6943C5.35452 60.6773 4.92597 58.0395 4.80352 57.1179C4.7423 56.6094 4.28314 56.228 3.76275 56.2916C3.27297 56.3552 2.90564 56.8319 2.96686 57.3721C3.02808 57.7535 3.48725 61.0905 4.1913 62.5524C4.37497 62.8702 4.71169 63.0609 5.04841 63.0609Z" fill="#D6D6D6"/>
<path d="M11.2666 6.96839C13.8686 6.96839 15.644 6.58702 15.7358 6.55524L15.3379 4.68018C15.3073 4.68018 11.787 5.44291 7.37903 4.74374L7.10353 6.6188C8.63408 6.87304 10.0422 6.96839 11.2666 6.96839Z" fill="#D6D6D6"/>
<path d="M7.86703 65C9.36697 65 9.97919 64.2055 10.4996 63.5699C10.6832 63.3474 10.8363 63.1249 11.0506 62.9343C11.4791 62.5529 12.2444 63.1885 12.275 63.1885C12.5199 63.411 13.1627 63.8877 13.2852 63.983C13.3158 64.0148 13.3464 64.0148 13.3464 64.0466C13.4688 64.1101 16.132 65.731 19.0401 63.1885C20.2645 62.108 21.091 60.1058 21.4889 57.2137C21.7338 55.4022 21.6726 53.5589 21.3359 51.7474C21.1522 50.7622 20.9992 50.0631 20.9073 49.6817C20.693 48.919 20.4175 46.0905 20.8767 43.9612C20.9379 43.7069 20.9992 43.4527 21.0604 43.1984C21.5195 41.1645 22.0093 39.0669 21.7032 37.0965C21.4583 35.5393 21.6114 27.4034 21.7032 24.2571C21.8869 23.5262 22.6215 20.1574 20.7543 17.3289L15.7953 8.14431V7.63582L16.1932 7.5087C16.6218 7.3498 16.8361 6.90487 16.7748 6.45994C16.7136 6.17391 16.5299 5.91966 16.2851 5.79254C16.2851 5.72898 16.3157 5.6972 16.3157 5.66542C16.4993 4.0446 16.3769 2.20132 16.2851 1.69283C16.1014 0.612287 15.03 0.421602 14.6933 0.358041C14.2953 0.29448 11.9077 0.0402339 11.3261 0.00845323C10.8363 -0.0233275 10.2853 0.0402339 9.52003 0.103795C9.24453 0.135576 8.90781 0.167357 8.57108 0.199137C6.82626 0.358041 6.52015 1.31146 6.45893 1.69283C6.15282 4.0446 6.30587 5.31583 6.36709 5.72898C6.36709 5.76076 6.36709 5.82432 6.3977 5.8561C6.15281 5.98323 5.96915 6.23747 5.90793 6.55528C5.84671 7.03199 6.09159 7.47692 6.52015 7.60404L6.88748 7.73117V8.14431L1.74483 17.2018C-0.183664 19.9985 0.459166 23.3673 0.642832 24.0982C0.673443 27.2445 0.642834 35.3804 0.367334 36.9376C0.0306129 38.908 0.459167 41.0056 0.88772 43.0395C0.948942 43.2938 0.979553 43.548 1.04078 43.8023C1.46933 45.9316 1.102 48.7601 0.88772 49.5228C0.673443 50.2538 0.306112 52.0653 0.091835 53.0505C0.061224 53.1458 0 53.5272 0 53.845C0 60.2011 0.459167 61.5677 1.95911 62.7436C2.7856 63.3792 3.79577 63.411 4.59165 63.2521C5.17326 64.2055 6.1222 64.8411 7.19359 64.9682C7.31603 65 7.46909 65 7.59153 65C7.68337 65 7.7752 65 7.86703 65ZM11.3873 60.8685C10.8669 60.8685 10.3465 61.0274 9.88736 61.4406C9.55064 61.7584 9.30575 62.0762 9.06086 62.3622C8.63231 62.9343 8.47925 63.1249 7.71398 63.0932C7.62214 63.0932 7.53031 63.0932 7.43848 63.0614C6.79565 62.966 6.24465 62.4893 5.96915 61.8219C5.90793 61.6948 5.8467 61.5995 5.81609 61.5359C5.72426 61.377 5.57121 61.2817 5.41815 61.2181C5.17326 61.1228 4.92838 61.1228 4.68349 61.2181C4.68349 61.2181 3.67332 61.663 3.09171 61.1863C2.41827 60.646 1.86727 60.2329 1.86727 53.8132C1.86727 53.7178 1.89788 53.4954 1.9285 53.4C2.08155 52.6373 2.47949 50.7305 2.66316 50.0313C2.96927 48.9825 3.3366 45.8362 2.84683 43.3891C2.7856 43.1349 2.75499 42.8806 2.69377 42.6264C2.29583 40.6878 1.89788 38.8763 2.17338 37.2554C2.54071 35.2215 2.47949 25.0834 2.47949 23.9393C2.47949 23.844 2.47949 23.7804 2.44888 23.6851C2.44888 23.6533 1.62239 20.5706 3.27538 18.2506C3.30599 18.2188 3.30599 18.187 3.3366 18.187L8.6017 8.84349C8.69353 8.68459 8.72414 8.52568 8.72414 8.335L8.69353 6.96843C8.69353 6.93665 8.69353 6.93665 8.69353 6.90487C8.72414 6.84131 8.72414 6.77774 8.72414 6.6824L8.75475 5.82432C8.75475 5.50652 8.66292 5.18871 8.41803 4.99802C8.3262 4.93446 8.23436 4.8709 8.11192 4.83912C8.08131 4.29885 8.0507 3.40899 8.23436 2.13776C8.3262 2.10598 8.47925 2.0742 8.69353 2.04242C9.06086 2.01064 9.36697 1.97886 9.67308 1.94708C10.3771 1.9153 10.8975 1.88352 11.2342 1.88352C11.7852 1.9153 14.0811 2.16954 14.326 2.20132C14.3566 2.20132 14.4178 2.2331 14.479 2.2331C14.5402 2.74159 14.6015 3.8857 14.5402 4.93446C14.2341 5.09337 14.0198 5.41117 14.0198 5.79254V6.61884C13.9586 6.74596 13.928 6.87309 13.928 7.00021V8.39856C13.928 8.55746 13.9586 8.71637 14.0505 8.87527L19.1931 18.3141C19.1931 18.3459 19.2237 18.3777 19.2543 18.3777C20.8461 20.7613 19.9584 23.7804 19.9584 23.8122C19.9278 23.9075 19.9278 23.9711 19.9278 24.0665C19.8972 25.2106 19.6217 35.3168 19.9278 37.3826C20.1727 38.9716 19.7441 40.8149 19.2849 42.7217C19.2237 42.976 19.1625 43.2302 19.1013 43.4845C18.5503 45.9316 18.8564 49.0779 19.1319 50.1266C19.1931 50.3491 19.3156 50.8894 19.5298 52.0653C19.8359 53.6861 19.8665 55.3069 19.6523 56.8959C19.3462 59.2477 18.7033 60.9321 17.8462 61.663C16.0708 63.2203 14.5402 62.4893 14.326 62.3622C14.0505 62.1397 13.6219 61.8219 13.4995 61.6948C13.0097 61.3134 12.2138 60.8685 11.3873 60.8685Z" fill="#D6D6D6"/>
</svg>
