<svg width="20" height="20" viewBox="0 0 20 20" fill="none" xmlns="http://www.w3.org/2000/svg">
<path d="M0.00134971 0.0155551C0.0542562 0.0123611 0.0919477 0.00810236 0.129639 0.00810236C3.38148 0.00845725 6.63471 -0.0153206 9.88518 0.0169747C12.314 0.0414623 14.4465 0.919111 16.2554 2.58675C17.77 3.9829 18.7596 5.70981 19.2271 7.74263C19.5552 9.19149 19.5635 10.6973 19.2515 12.1499C18.9394 13.6025 18.3148 14.9651 17.4235 16.138C16.1556 17.8017 14.5353 18.9461 12.5627 19.5712C11.4676 19.9164 10.3206 20.055 9.17734 19.9804C6.97763 19.8425 5.0436 19.0352 3.37526 17.5586C1.81123 16.1713 0.781807 14.4355 0.281097 12.374C0.0977753 11.6195 0.00487658 10.8448 0.00446186 10.0672C-0.000148725 6.75792 -0.00118611 3.44784 0.00134971 0.136928C0.00134971 0.101794 0.00134971 0.0666596 0.00134971 0.0155551Z" fill="#022169"/>
</svg>
