<svg width="203" height="247" viewBox="0 0 203 247" fill="none" xmlns="http://www.w3.org/2000/svg">
<g id="Drop-4">
<path d="M98.6754 245.601C99.8523 228.597 114.082 215.068 131.415 215.068H135.214V211.271C135.214 193.198 149.925 178.493 168.007 178.493L171.912 178.439V174.589C171.912 157.531 184.965 143.521 201.603 141.917C203.582 128.709 203.475 115.608 201.175 102.561C197.912 106.839 195.986 112.133 195.986 117.908V129.191H184.698C170.735 129.191 159.394 140.527 159.394 154.483V165.713L148.053 165.873C134.037 165.873 122.695 177.209 122.695 191.166V202.448H111.408C97.445 202.448 86.1037 213.785 86.1037 227.741V239.024H74.7624C68.5033 239.024 62.7792 241.323 58.339 245.066C62.9397 245.869 67.5939 246.403 72.3551 246.671C81.2355 247.366 90.009 246.938 98.6754 245.601Z" fill="#022169"/>
<path d="M98.6754 245.601C99.8523 228.597 114.082 215.068 131.415 215.068H135.214V211.271C135.214 193.198 149.925 178.493 168.007 178.493L171.912 178.439V174.589C171.912 157.531 184.965 143.521 201.603 141.917C203.582 128.709 203.475 115.608 201.175 102.561C197.912 106.839 195.986 112.133 195.986 117.908V129.191H184.698C170.735 129.191 159.394 140.527 159.394 154.483V165.713L148.053 165.873C134.037 165.873 122.695 177.209 122.695 191.166V202.448H111.408C97.445 202.448 86.1037 213.785 86.1037 227.741V239.024H74.7624C68.5033 239.024 62.7792 241.323 58.339 245.066C62.9397 245.869 67.5939 246.403 72.3551 246.671C81.2355 247.366 90.009 246.938 98.6754 245.601Z" fill="url(#paint0_radial)"/>
<path d="M14.6858 171.595H18.4841V167.798C18.4841 149.724 33.1956 135.019 51.2775 135.019H55.0757V131.223C55.0757 113.149 69.7873 98.4437 87.8691 98.4437L91.7744 98.3902V94.5402C91.7744 76.4663 106.486 61.7613 124.568 61.7613H128.366V57.9647C128.366 42.1367 139.654 28.8754 154.579 25.8274C148.374 21.0149 141.901 16.844 135.107 13.3682C124.033 16.0954 115.794 26.0948 115.794 37.9658V49.2486H104.507C90.5439 49.2486 79.2027 60.5848 79.2027 74.5413V85.7706L67.8614 85.931C53.8453 85.931 42.504 97.2673 42.504 111.224V122.453H31.2162C17.2536 122.453 5.91236 133.789 5.91236 147.746V159.029H-5.37542C-17.8936 159.029 -28.272 168.119 -30.3048 180.043C-26.7741 186.941 -22.6013 193.465 -17.7866 199.561C-15.4863 183.787 -1.79115 171.595 14.6858 171.595Z" fill="#022169"/>
<path d="M14.6858 171.595H18.4841V167.798C18.4841 149.724 33.1956 135.019 51.2775 135.019H55.0757V131.223C55.0757 113.149 69.7873 98.4437 87.8691 98.4437L91.7744 98.3902V94.5402C91.7744 76.4663 106.486 61.7613 124.568 61.7613H128.366V57.9647C128.366 42.1367 139.654 28.8754 154.579 25.8274C148.374 21.0149 141.901 16.844 135.107 13.3682C124.033 16.0954 115.794 26.0948 115.794 37.9658V49.2486H104.507C90.5439 49.2486 79.2027 60.5848 79.2027 74.5413V85.7706L67.8614 85.931C53.8453 85.931 42.504 97.2673 42.504 111.224V122.453H31.2162C17.2536 122.453 5.91236 133.789 5.91236 147.746V159.029H-5.37542C-17.8936 159.029 -28.272 168.119 -30.3048 180.043C-26.7741 186.941 -22.6013 193.465 -17.7866 199.561C-15.4863 183.787 -1.79115 171.595 14.6858 171.595Z" fill="url(#paint1_radial)"/>
<path d="M54.7012 211.646H58.4994V207.849C58.4994 189.776 73.211 175.07 91.2928 175.07H95.0911V171.274C95.0911 153.2 109.803 138.495 127.884 138.495L131.79 138.442V134.591C131.79 116.518 146.501 101.813 164.583 101.813H168.381V98.016C168.381 84.113 177.101 72.1885 189.352 67.4294C186.731 62.296 183.788 57.3765 180.418 52.7244C166.776 53.0987 155.81 64.2745 155.81 78.0171V89.2999H144.522C130.559 89.2999 119.218 100.636 119.218 114.593V125.822L107.877 125.982C93.8607 125.982 82.5194 137.319 82.5194 151.275V162.558H71.2316C57.269 162.558 45.9277 173.894 45.9277 187.851V199.133H34.6399C20.6773 199.133 9.33606 210.47 9.33606 224.426V225.121C13.9903 228.383 18.7515 231.217 23.6731 233.784C28.1669 220.897 40.3641 211.646 54.7012 211.646Z" fill="#022169"/>
<path d="M54.7012 211.646H58.4994V207.849C58.4994 189.776 73.211 175.07 91.2928 175.07H95.0911V171.274C95.0911 153.2 109.803 138.495 127.884 138.495L131.79 138.442V134.591C131.79 116.518 146.501 101.813 164.583 101.813H168.381V98.016C168.381 84.113 177.101 72.1885 189.352 67.4294C186.731 62.296 183.788 57.3765 180.418 52.7244C166.776 53.0987 155.81 64.2745 155.81 78.0171V89.2999H144.522C130.559 89.2999 119.218 100.636 119.218 114.593V125.822L107.877 125.982C93.8607 125.982 82.5194 137.319 82.5194 151.275V162.558H71.2316C57.269 162.558 45.9277 173.894 45.9277 187.851V199.133H34.6399C20.6773 199.133 9.33606 210.47 9.33606 224.426V225.121C13.9903 228.383 18.7515 231.217 23.6731 233.784C28.1669 220.897 40.3641 211.646 54.7012 211.646Z" fill="url(#paint2_radial)"/>
<path d="M74.7624 231.645H78.5606V227.848C78.5606 209.774 93.2722 195.069 111.354 195.069H115.152V191.273C115.152 173.199 129.864 158.494 147.946 158.494L151.851 158.44V154.537C151.851 136.463 166.562 121.758 184.644 121.758H188.443V117.961C188.443 108.336 192.615 99.6735 199.249 93.6846C197.537 86.8935 195.344 80.3698 192.615 74.167C182.879 77.6962 175.924 87.0539 175.924 97.9624V109.245H164.637C150.674 109.245 139.333 120.581 139.333 134.538V145.767L127.991 145.928C113.975 145.928 102.634 157.264 102.634 171.22V182.503H91.3463C77.3837 182.503 66.0424 193.839 66.0424 207.796V219.079H54.7546C43.4134 219.079 33.7305 226.618 30.5742 236.939C36.7263 239.612 43.0924 241.751 49.6725 243.355C55.6641 236.243 64.6515 231.645 74.7624 231.645Z" fill="#022169"/>
<path d="M74.7624 231.645H78.5606V227.848C78.5606 209.774 93.2722 195.069 111.354 195.069H115.152V191.273C115.152 173.199 129.864 158.494 147.946 158.494L151.851 158.44V154.537C151.851 136.463 166.562 121.758 184.644 121.758H188.443V117.961C188.443 108.336 192.615 99.6735 199.249 93.6846C197.537 86.8935 195.344 80.3698 192.615 74.167C182.879 77.6962 175.924 87.0539 175.924 97.9624V109.245H164.637C150.674 109.245 139.333 120.581 139.333 134.538V145.767L127.991 145.928C113.975 145.928 102.634 157.264 102.634 171.22V182.503H91.3463C77.3837 182.503 66.0424 193.839 66.0424 207.796V219.079H54.7546C43.4134 219.079 33.7305 226.618 30.5742 236.939C36.7263 239.612 43.0924 241.751 49.6725 243.355C55.6641 236.243 64.6515 231.645 74.7624 231.645Z" fill="url(#paint3_radial)"/>
<path d="M200.265 149.617C188.443 151.756 179.455 162.13 179.455 174.536V185.765L168.114 185.925C154.098 185.925 142.757 197.262 142.757 211.218V222.501H131.469C118.79 222.501 108.251 231.859 106.432 244.05C109.428 243.355 112.424 242.607 115.42 241.698C131.255 236.832 145.324 229.345 157.575 219.292C160.838 210.897 167.472 204.213 175.817 200.844C176.245 200.31 176.62 199.828 177.048 199.294C188.603 184.482 196.36 167.905 200.265 149.617Z" fill="#022169"/>
<path d="M200.265 149.617C188.443 151.756 179.455 162.13 179.455 174.536V185.765L168.114 185.925C154.098 185.925 142.757 197.262 142.757 211.218V222.501H131.469C118.79 222.501 108.251 231.859 106.432 244.05C109.428 243.355 112.424 242.607 115.42 241.698C131.255 236.832 145.324 229.345 157.575 219.292C160.838 210.897 167.472 204.213 175.817 200.844C176.245 200.31 176.62 199.828 177.048 199.294C188.603 184.482 196.36 167.905 200.265 149.617Z" fill="url(#paint4_radial)"/>
<path d="M-44 0.213866C-44 0.855541 -44 1.28332 -44 1.71111C-44 8.76954 -44 15.828 -44 22.8864C-41.2182 12.1918 -33.2472 3.63613 -22.9758 0.10692C-29.4489 0.10692 -35.922 0.10692 -42.3951 0.10692C-42.8231 0.10692 -43.3045 0.160393 -44 0.213866Z" fill="#022169"/>
<path d="M-44 0.213866C-44 0.855541 -44 1.28332 -44 1.71111C-44 8.76954 -44 15.828 -44 22.8864C-41.2182 12.1918 -33.2472 3.63613 -22.9758 0.10692C-29.4489 0.10692 -35.922 0.10692 -42.3951 0.10692C-42.8231 0.10692 -43.3045 0.160393 -44 0.213866Z" fill="url(#paint5_radial)"/>
<path d="M-37.5804 31.0678V42.3506H-44C-44 47.7513 -44 53.2056 -44 58.6063C-39.4528 56.2535 -34.3171 54.8632 -28.807 54.8632H-25.0087V51.0667C-25.0087 32.9928 -10.2972 18.2877 7.78469 18.2877L11.6899 18.2343V14.3842C11.6899 9.25082 12.8669 4.38478 15.0067 0C9.71056 0 4.4144 0 -0.88176 0.0534729V5.61466L-12.223 5.77508C-26.1856 5.77508 -37.5804 17.1113 -37.5804 31.0678Z" fill="#022169"/>
<path d="M-37.5804 31.0678V42.3506H-44C-44 47.7513 -44 53.2056 -44 58.6063C-39.4528 56.2535 -34.3171 54.8632 -28.807 54.8632H-25.0087V51.0667C-25.0087 32.9928 -10.2972 18.2877 7.78469 18.2877L11.6899 18.2343V14.3842C11.6899 9.25082 12.8669 4.38478 15.0067 0C9.71056 0 4.4144 0 -0.88176 0.0534729V5.61466L-12.223 5.77508C-26.1856 5.77508 -37.5804 17.1113 -37.5804 31.0678Z" fill="url(#paint6_radial)"/>
<path d="M34.6934 191.647H38.4917V187.851C38.4917 169.777 53.2032 155.072 71.2851 155.072H75.0833V151.275C75.0833 133.201 89.7949 118.496 107.877 118.496L111.782 118.443V114.593C111.782 96.5187 126.494 81.8137 144.575 81.8137H148.374V78.0171C148.374 61.9752 159.929 48.607 175.175 45.7729C171.377 41.1742 167.204 36.7894 162.657 32.672H161.159C147.197 32.672 135.855 44.0083 135.855 57.9647V69.2475H124.568C110.605 69.2475 99.2638 80.5838 99.2638 94.5402V105.77L87.9225 105.93C73.9064 105.93 62.5651 117.266 62.5651 131.223V142.505H51.2774C37.3147 142.505 25.9735 153.842 25.9735 167.798V179.081H14.6857C0.723082 179.081 -10.6182 190.417 -10.6182 204.374V207.796C-7.67588 210.951 -4.51958 213.945 -1.1493 216.833C-0.0258678 217.795 1.09756 218.758 2.27448 219.667C4.46784 203.839 18.163 191.647 34.6934 191.647Z" fill="#022169"/>
<path d="M34.6934 191.647H38.4917V187.851C38.4917 169.777 53.2032 155.072 71.2851 155.072H75.0833V151.275C75.0833 133.201 89.7949 118.496 107.877 118.496L111.782 118.443V114.593C111.782 96.5187 126.494 81.8137 144.575 81.8137H148.374V78.0171C148.374 61.9752 159.929 48.607 175.175 45.7729C171.377 41.1742 167.204 36.7894 162.657 32.672H161.159C147.197 32.672 135.855 44.0083 135.855 57.9647V69.2475H124.568C110.605 69.2475 99.2638 80.5838 99.2638 94.5402V105.77L87.9225 105.93C73.9064 105.93 62.5651 117.266 62.5651 131.223V142.505H51.2774C37.3147 142.505 25.9735 153.842 25.9735 167.798V179.081H14.6857C0.723082 179.081 -10.6182 190.417 -10.6182 204.374V207.796C-7.67588 210.951 -4.51958 213.945 -1.1493 216.833C-0.0258678 217.795 1.09756 218.758 2.27448 219.667C4.46784 203.839 18.163 191.647 34.6934 191.647Z" fill="url(#paint7_radial)"/>
<path d="M-5.3755 151.596H-1.57724V147.799C-1.57724 129.725 13.1343 115.02 31.2162 115.02H35.0144V111.224C35.0144 93.1499 49.726 78.4448 67.8078 78.4448L71.7131 78.3913V74.5413C71.7131 56.4674 86.4246 41.7624 104.506 41.7624H108.305V37.9658C108.305 25.4531 115.313 14.5981 125.638 9.03693C117.881 5.88202 109.749 3.58269 101.35 2.13892C97.8729 6.47023 95.7865 11.9779 95.7865 17.9669V29.2497H84.4987C70.5361 29.2497 59.1949 40.586 59.1949 54.5424V65.7717L47.8536 65.9321C33.8375 65.9321 22.4962 77.2684 22.4962 91.2249V102.508H11.2084C-2.75417 102.508 -14.0954 113.844 -14.0954 127.8V139.03H-25.3832C-31.7493 139.03 -37.5804 141.382 -42.0207 145.286C-41.5392 147.799 -41.0042 150.312 -40.4158 152.826C-38.9713 158.815 -37.099 164.536 -34.9056 170.044C-29.556 159.135 -18.3217 151.596 -5.3755 151.596Z" fill="#022169"/>
<path d="M-5.3755 151.596H-1.57724V147.799C-1.57724 129.725 13.1343 115.02 31.2162 115.02H35.0144V111.224C35.0144 93.1499 49.726 78.4448 67.8078 78.4448L71.7131 78.3913V74.5413C71.7131 56.4674 86.4246 41.7624 104.506 41.7624H108.305V37.9658C108.305 25.4531 115.313 14.5981 125.638 9.03693C117.881 5.88202 109.749 3.58269 101.35 2.13892C97.8729 6.47023 95.7865 11.9779 95.7865 17.9669V29.2497H84.4987C70.5361 29.2497 59.1949 40.586 59.1949 54.5424V65.7717L47.8536 65.9321C33.8375 65.9321 22.4962 77.2684 22.4962 91.2249V102.508H11.2084C-2.75417 102.508 -14.0954 113.844 -14.0954 127.8V139.03H-25.3832C-31.7493 139.03 -37.5804 141.382 -42.0207 145.286C-41.5392 147.799 -41.0042 150.312 -40.4158 152.826C-38.9713 158.815 -37.099 164.536 -34.9056 170.044C-29.556 159.135 -18.3217 151.596 -5.3755 151.596Z" fill="url(#paint8_radial)"/>
<path d="M-41.5927 111.545V107.748C-41.5927 89.6741 -26.8811 74.9691 -8.79925 74.9691H-5.001V71.119C-5.001 53.0452 9.71056 38.3401 27.7924 38.3401L31.6977 38.2866V34.4366C31.6977 16.3627 46.4092 1.65766 64.4911 1.65766H68.2893V0.106946C53.4708 0 38.5987 0 23.7267 0C20.8913 4.06394 19.233 9.03693 19.233 14.3842V25.6135L7.89168 25.774C-6.12442 25.774 -17.4657 37.1102 -17.4657 51.0667V62.3495H-28.807C-34.4776 62.3495 -39.7203 64.221 -44 67.4294C-44 82.1345 -44 96.8395 -44 111.545H-41.5927Z" fill="#022169"/>
<path d="M-41.5927 111.545V107.748C-41.5927 89.6741 -26.8811 74.9691 -8.79925 74.9691H-5.001V71.119C-5.001 53.0452 9.71056 38.3401 27.7924 38.3401L31.6977 38.2866V34.4366C31.6977 16.3627 46.4092 1.65766 64.4911 1.65766H68.2893V0.106946C53.4708 0 38.5987 0 23.7267 0C20.8913 4.06394 19.233 9.03693 19.233 14.3842V25.6135L7.89168 25.774C-6.12442 25.774 -17.4657 37.1102 -17.4657 51.0667V62.3495H-28.807C-34.4776 62.3495 -39.7203 64.221 -44 67.4294C-44 82.1345 -44 96.8395 -44 111.545H-41.5927Z" fill="url(#paint9_radial)"/>
<path d="M-21.5849 131.543V127.747C-21.5849 109.673 -6.87332 94.968 11.2085 94.968H15.0068V91.1714C15.0068 73.0975 29.7183 58.3925 47.8002 58.3925L51.7054 58.339V54.4889C51.7054 36.4151 66.417 21.71 84.4988 21.71H88.2971V17.9134C88.2971 11.7106 90.009 5.9355 93.0048 0.962513C89.153 0.588202 85.1943 0.374311 81.2355 0.320838C79.4167 0.320838 77.5978 0.267365 75.7254 0.267365V9.0904H64.4376C50.475 9.0904 39.1337 20.4267 39.1337 34.3831V45.6124L27.7924 45.7728C13.7763 45.7728 2.43508 57.1091 2.43508 71.0655V82.3483H-8.7992C-22.7618 82.3483 -34.1031 93.6846 -34.1031 107.641V118.924H-43.9465C-43.9465 120.688 -43.9465 122.507 -43.9465 124.271C-43.9465 128.442 -43.679 132.613 -43.251 136.784C-38.1153 133.415 -31.9632 131.49 -25.3831 131.49H-21.5849V131.543Z" fill="#022169"/>
<path d="M-21.5849 131.543V127.747C-21.5849 109.673 -6.87332 94.968 11.2085 94.968H15.0068V91.1714C15.0068 73.0975 29.7183 58.3925 47.8002 58.3925L51.7054 58.339V54.4889C51.7054 36.4151 66.417 21.71 84.4988 21.71H88.2971V17.9134C88.2971 11.7106 90.009 5.9355 93.0048 0.962513C89.153 0.588202 85.1943 0.374311 81.2355 0.320838C79.4167 0.320838 77.5978 0.267365 75.7254 0.267365V9.0904H64.4376C50.475 9.0904 39.1337 20.4267 39.1337 34.3831V45.6124L27.7924 45.7728C13.7763 45.7728 2.43508 57.1091 2.43508 71.0655V82.3483H-8.7992C-22.7618 82.3483 -34.1031 93.6846 -34.1031 107.641V118.924H-43.9465C-43.9465 120.688 -43.9465 122.507 -43.9465 124.271C-43.9465 128.442 -43.679 132.613 -43.251 136.784C-38.1153 133.415 -31.9632 131.49 -25.3831 131.49H-21.5849V131.543Z" fill="url(#paint10_radial)"/>
</g>
<defs>
<radialGradient id="paint0_radial" cx="0" cy="0" r="1" gradientUnits="userSpaceOnUse" gradientTransform="translate(-44) rotate(44.9922) scale(349.396 349.301)">
<stop stop-color="white"/>
<stop offset="0.0001" stop-color="white" stop-opacity="0.4"/>
<stop offset="0.961326" stop-color="white" stop-opacity="0"/>
</radialGradient>
<radialGradient id="paint1_radial" cx="0" cy="0" r="1" gradientUnits="userSpaceOnUse" gradientTransform="translate(-44) rotate(44.9922) scale(349.396 349.301)">
<stop stop-color="white"/>
<stop offset="0.0001" stop-color="white" stop-opacity="0.4"/>
<stop offset="0.961326" stop-color="white" stop-opacity="0"/>
</radialGradient>
<radialGradient id="paint2_radial" cx="0" cy="0" r="1" gradientUnits="userSpaceOnUse" gradientTransform="translate(-44) rotate(44.9922) scale(349.396 349.301)">
<stop stop-color="white"/>
<stop offset="0.0001" stop-color="white" stop-opacity="0.4"/>
<stop offset="0.961326" stop-color="white" stop-opacity="0"/>
</radialGradient>
<radialGradient id="paint3_radial" cx="0" cy="0" r="1" gradientUnits="userSpaceOnUse" gradientTransform="translate(-44) rotate(44.9922) scale(349.396 349.301)">
<stop stop-color="white"/>
<stop offset="0.0001" stop-color="white" stop-opacity="0.4"/>
<stop offset="0.961326" stop-color="white" stop-opacity="0"/>
</radialGradient>
<radialGradient id="paint4_radial" cx="0" cy="0" r="1" gradientUnits="userSpaceOnUse" gradientTransform="translate(-44) rotate(44.9922) scale(349.396 349.301)">
<stop stop-color="white"/>
<stop offset="0.0001" stop-color="white" stop-opacity="0.4"/>
<stop offset="0.961326" stop-color="white" stop-opacity="0"/>
</radialGradient>
<radialGradient id="paint5_radial" cx="0" cy="0" r="1" gradientUnits="userSpaceOnUse" gradientTransform="translate(-44) rotate(44.9922) scale(349.396 349.301)">
<stop stop-color="white"/>
<stop offset="0.0001" stop-color="white" stop-opacity="0.4"/>
<stop offset="0.961326" stop-color="white" stop-opacity="0"/>
</radialGradient>
<radialGradient id="paint6_radial" cx="0" cy="0" r="1" gradientUnits="userSpaceOnUse" gradientTransform="translate(-44) rotate(44.9922) scale(349.396 349.301)">
<stop stop-color="white"/>
<stop offset="0.0001" stop-color="white" stop-opacity="0.4"/>
<stop offset="0.961326" stop-color="white" stop-opacity="0"/>
</radialGradient>
<radialGradient id="paint7_radial" cx="0" cy="0" r="1" gradientUnits="userSpaceOnUse" gradientTransform="translate(-44) rotate(44.9922) scale(349.396 349.301)">
<stop stop-color="white"/>
<stop offset="0.0001" stop-color="white" stop-opacity="0.4"/>
<stop offset="0.961326" stop-color="white" stop-opacity="0"/>
</radialGradient>
<radialGradient id="paint8_radial" cx="0" cy="0" r="1" gradientUnits="userSpaceOnUse" gradientTransform="translate(-44) rotate(44.9922) scale(349.396 349.301)">
<stop stop-color="white"/>
<stop offset="0.0001" stop-color="white" stop-opacity="0.4"/>
<stop offset="0.961326" stop-color="white" stop-opacity="0"/>
</radialGradient>
<radialGradient id="paint9_radial" cx="0" cy="0" r="1" gradientUnits="userSpaceOnUse" gradientTransform="translate(-44) rotate(44.9922) scale(349.396 349.301)">
<stop stop-color="white"/>
<stop offset="0.0001" stop-color="white" stop-opacity="0.4"/>
<stop offset="0.961326" stop-color="white" stop-opacity="0"/>
</radialGradient>
<radialGradient id="paint10_radial" cx="0" cy="0" r="1" gradientUnits="userSpaceOnUse" gradientTransform="translate(-44) rotate(44.9922) scale(349.396 349.301)">
<stop stop-color="white"/>
<stop offset="0.0001" stop-color="white" stop-opacity="0.4"/>
<stop offset="0.961326" stop-color="white" stop-opacity="0"/>
</radialGradient>
</defs>
</svg>
