<svg width="218" height="218" viewBox="0 0 218 218" fill="none" xmlns="http://www.w3.org/2000/svg">
<g id="Drop-3">
<path d="M72.0254 0C65.9839 0 59.9425 0 53.901 0L64.9455 29.7305L0 53.8924C0 59.9329 0 65.9733 0 72.0138L86.7986 39.735L72.0254 0Z" fill="#022169"/>
<path d="M72.0254 0C65.9839 0 59.9425 0 53.901 0L64.9455 29.7305L0 53.8924C0 59.9329 0 65.9733 0 72.0138L86.7986 39.735L72.0254 0Z" fill="url(#paint0_radial)"/>
<path d="M122.717 0.943848C118.752 0.471935 114.693 0.235979 110.587 0.188788C108.463 0.188788 106.386 0.141597 104.262 0.141597L125.596 57.5261L0 104.245C0 106.086 0 107.926 0 109.814C0 113.92 0.235994 118.025 0.755181 122.131L147.449 67.5779L122.717 0.943848Z" fill="#022169"/>
<path d="M122.717 0.943848C118.752 0.471935 114.693 0.235979 110.587 0.188788C108.463 0.188788 106.386 0.141597 104.262 0.141597L125.596 57.5261L0 104.245C0 106.086 0 107.926 0 109.814C0 113.92 0.235994 118.025 0.755181 122.131L147.449 67.5779L122.717 0.943848Z" fill="url(#paint1_radial)"/>
<path d="M0 0.188811C0 0.755106 0 1.13264 0 1.51017C0 8.21132 0 14.9597 0 21.6608L26.1009 11.9394L21.6642 0.0472373C14.9148 0.0472373 8.16539 0.0472373 1.41596 0.0472373C1.03837 0.0944285 0.613584 0.14162 0 0.188811Z" fill="#022169"/>
<path d="M0 0.188811C0 0.755106 0 1.13264 0 1.51017C0 8.21132 0 14.9597 0 21.6608L26.1009 11.9394L21.6642 0.0472373C14.9148 0.0472373 8.16539 0.0472373 1.41596 0.0472373C1.03837 0.0944285 0.613584 0.14162 0 0.188811Z" fill="url(#paint2_radial)"/>
<path d="M46.8212 0C40.7797 0 34.7383 0 28.6969 0.0471912L34.5495 15.8091L0 28.6923C0 34.7327 0 40.7732 0 46.8137L56.4497 25.8136L46.8212 0Z" fill="#022169"/>
<path d="M46.8212 0C40.7797 0 34.7383 0 28.6969 0.0471912L34.5495 15.8091L0 28.6923C0 34.7327 0 40.7732 0 46.8137L56.4497 25.8136L46.8212 0Z" fill="url(#paint3_radial)"/>
<path d="M150.611 8.21127C144.098 5.47418 137.254 3.44496 130.221 2.12361L155.992 71.4475L1.79358 128.738C2.17117 130.814 2.64316 132.843 3.11514 134.92C4.01192 138.459 5.00309 141.904 6.18306 145.255L177.798 81.4521L150.611 8.21127Z" fill="#022169"/>
<path d="M150.611 8.21127C144.098 5.47418 137.254 3.44496 130.221 2.12361L155.992 71.4475L1.79358 128.738C2.17117 130.814 2.64316 132.843 3.11514 134.92C4.01192 138.459 5.00309 141.904 6.18306 145.255L177.798 81.4521L150.611 8.21127Z" fill="url(#paint4_radial)"/>
<path d="M97.2295 0.0944285C91.1881 0.0472373 85.1466 0.0472373 79.058 0.0472373L95.2943 43.6519L0 79.0453C0 85.0858 0 91.1263 0 97.1668L117.1 53.6093L97.2295 0.0944285Z" fill="#022169"/>
<path d="M97.2295 0.0944285C91.1881 0.0472373 85.1466 0.0472373 79.058 0.0472373L95.2943 43.6519L0 79.0453C0 85.0858 0 91.1263 0 97.1668L117.1 53.6093L97.2295 0.0944285Z" fill="url(#paint5_radial)"/>
<path d="M101.053 217.693C101.572 217.74 102.138 217.787 102.705 217.787C115.59 218.59 128.239 217.127 140.605 213.304C158.258 207.877 173.361 198.769 186.01 186.075L101.053 217.693Z" fill="#022169"/>
<path d="M101.053 217.693C101.572 217.74 102.138 217.787 102.705 217.787C115.59 218.59 128.239 217.127 140.605 213.304C158.258 207.877 173.361 198.769 186.01 186.075L101.053 217.693Z" fill="url(#paint6_radial)"/>
<path d="M183.887 30.0608C183.226 29.4473 182.565 28.7866 181.857 28.1731C174.73 21.7551 167.131 16.4225 159.107 12.2225L186.294 85.2745L8.54303 151.342C10.7614 156.675 13.3573 161.724 16.378 166.538L208.147 95.279L183.887 30.0608Z" fill="#022169"/>
<path d="M183.887 30.0608C183.226 29.4473 182.565 28.7866 181.857 28.1731C174.73 21.7551 167.131 16.4225 159.107 12.2225L186.294 85.2745L8.54303 151.342C10.7614 156.675 13.3573 161.724 16.378 166.538L208.147 95.279L183.887 30.0608Z" fill="url(#paint7_radial)"/>
<path d="M209.043 152.38L61.5472 207.217C69.6182 211.181 78.1611 214.012 87.1289 215.805L195.167 175.646C200.831 168.378 205.456 160.592 209.043 152.38Z" fill="#022169"/>
<path d="M209.043 152.38L61.5472 207.217C69.6182 211.181 78.1611 214.012 87.1289 215.805L195.167 175.646C200.831 168.378 205.456 160.592 209.043 152.38Z" fill="url(#paint8_radial)"/>
<path d="M216.595 126.095C216.69 125.481 216.784 124.868 216.878 124.302L37.3343 191.03C37.4759 191.172 37.6175 191.266 37.7591 191.408C42.9037 195.844 48.2372 199.713 53.8067 203.017L212.159 144.122C214.141 138.317 215.651 132.324 216.595 126.095Z" fill="#022169"/>
<path d="M216.595 126.095C216.69 125.481 216.784 124.868 216.878 124.302L37.3343 191.03C37.4759 191.172 37.6175 191.266 37.7591 191.408C42.9037 195.844 48.2372 199.713 53.8067 203.017L212.159 144.122C214.141 138.317 215.651 132.324 216.595 126.095Z" fill="url(#paint9_radial)"/>
<path d="M215.132 84.3779C211.498 69.0407 205.079 55.3081 195.875 43.2743L216.642 99.1488L20.2011 172.248C23.6938 177.109 27.6113 181.686 31.9536 186.028L217.728 116.94C218.483 106.039 217.681 95.1847 215.132 84.3779Z" fill="#022169"/>
<path d="M215.132 84.3779C211.498 69.0407 205.079 55.3081 195.875 43.2743L216.642 99.1488L20.2011 172.248C23.6938 177.109 27.6113 181.686 31.9536 186.028L217.728 116.94C218.483 106.039 217.681 95.1847 215.132 84.3779Z" fill="url(#paint10_radial)"/>
</g>
<defs>
<radialGradient id="paint0_radial" cx="0" cy="0" r="1" gradientUnits="userSpaceOnUse" gradientTransform="rotate(44.9922) scale(308.373 308.29)">
<stop stop-color="white"/>
<stop offset="0.0001" stop-color="white" stop-opacity="0.4"/>
<stop offset="0.961326" stop-color="white" stop-opacity="0"/>
</radialGradient>
<radialGradient id="paint1_radial" cx="0" cy="0" r="1" gradientUnits="userSpaceOnUse" gradientTransform="rotate(44.9922) scale(308.373 308.29)">
<stop stop-color="white"/>
<stop offset="0.0001" stop-color="white" stop-opacity="0.4"/>
<stop offset="0.961326" stop-color="white" stop-opacity="0"/>
</radialGradient>
<radialGradient id="paint2_radial" cx="0" cy="0" r="1" gradientUnits="userSpaceOnUse" gradientTransform="rotate(44.9922) scale(308.373 308.29)">
<stop stop-color="white"/>
<stop offset="0.0001" stop-color="white" stop-opacity="0.4"/>
<stop offset="0.961326" stop-color="white" stop-opacity="0"/>
</radialGradient>
<radialGradient id="paint3_radial" cx="0" cy="0" r="1" gradientUnits="userSpaceOnUse" gradientTransform="rotate(44.9922) scale(308.373 308.29)">
<stop stop-color="white"/>
<stop offset="0.0001" stop-color="white" stop-opacity="0.4"/>
<stop offset="0.961326" stop-color="white" stop-opacity="0"/>
</radialGradient>
<radialGradient id="paint4_radial" cx="0" cy="0" r="1" gradientUnits="userSpaceOnUse" gradientTransform="rotate(44.9922) scale(308.373 308.29)">
<stop stop-color="white"/>
<stop offset="0.0001" stop-color="white" stop-opacity="0.4"/>
<stop offset="0.961326" stop-color="white" stop-opacity="0"/>
</radialGradient>
<radialGradient id="paint5_radial" cx="0" cy="0" r="1" gradientUnits="userSpaceOnUse" gradientTransform="rotate(44.9922) scale(308.373 308.29)">
<stop stop-color="white"/>
<stop offset="0.0001" stop-color="white" stop-opacity="0.4"/>
<stop offset="0.961326" stop-color="white" stop-opacity="0"/>
</radialGradient>
<radialGradient id="paint6_radial" cx="0" cy="0" r="1" gradientUnits="userSpaceOnUse" gradientTransform="rotate(44.9922) scale(308.373 308.29)">
<stop stop-color="white"/>
<stop offset="0.0001" stop-color="white" stop-opacity="0.4"/>
<stop offset="0.961326" stop-color="white" stop-opacity="0"/>
</radialGradient>
<radialGradient id="paint7_radial" cx="0" cy="0" r="1" gradientUnits="userSpaceOnUse" gradientTransform="rotate(44.9922) scale(308.373 308.29)">
<stop stop-color="white"/>
<stop offset="0.0001" stop-color="white" stop-opacity="0.4"/>
<stop offset="0.961326" stop-color="white" stop-opacity="0"/>
</radialGradient>
<radialGradient id="paint8_radial" cx="0" cy="0" r="1" gradientUnits="userSpaceOnUse" gradientTransform="rotate(44.9922) scale(308.373 308.29)">
<stop stop-color="white"/>
<stop offset="0.0001" stop-color="white" stop-opacity="0.4"/>
<stop offset="0.961326" stop-color="white" stop-opacity="0"/>
</radialGradient>
<radialGradient id="paint9_radial" cx="0" cy="0" r="1" gradientUnits="userSpaceOnUse" gradientTransform="rotate(44.9922) scale(308.373 308.29)">
<stop stop-color="white"/>
<stop offset="0.0001" stop-color="white" stop-opacity="0.4"/>
<stop offset="0.961326" stop-color="white" stop-opacity="0"/>
</radialGradient>
<radialGradient id="paint10_radial" cx="0" cy="0" r="1" gradientUnits="userSpaceOnUse" gradientTransform="rotate(44.9922) scale(308.373 308.29)">
<stop stop-color="white"/>
<stop offset="0.0001" stop-color="white" stop-opacity="0.4"/>
<stop offset="0.961326" stop-color="white" stop-opacity="0"/>
</radialGradient>
</defs>
</svg>
