<svg width="10" height="10" viewBox="0 0 10 10" fill="none" xmlns="http://www.w3.org/2000/svg">
<path d="M0.290712 0.00777755C0.317083 0.00618053 0.335871 0.00405118 0.354658 0.00405118C1.97556 0.00422862 3.59715 -0.00766028 5.21736 0.00848733C6.42804 0.0207311 7.491 0.459556 8.39263 1.29338C9.14758 1.99145 9.64088 2.8549 9.87392 3.87132C10.0375 4.59575 10.0416 5.34865 9.88604 6.07494C9.73049 6.80123 9.41917 7.48253 8.97487 8.06898C8.34288 8.90085 7.53524 9.47306 6.55197 9.7856C6.00611 9.95818 5.4344 10.0275 4.86454 9.9902C3.76808 9.92123 2.80405 9.5176 1.97246 8.7793C1.19286 8.08566 0.679735 7.21777 0.430153 6.18699C0.338776 5.80973 0.29247 5.4224 0.292263 5.03359C0.289965 3.37896 0.289448 1.72392 0.290712 0.0684642C0.290712 0.050897 0.290712 0.0333298 0.290712 0.00777755Z" fill="white"/>
</svg>
