<svg width="25" height="24" viewBox="0 0 25 24" fill="none" xmlns="http://www.w3.org/2000/svg">
<path d="M19.5184 0.189453H4.50424C2.01605 0.189453 0 2.1718 0 4.6184V19.3816C0 21.8282 2.01605 23.8105 4.50424 23.8105H19.5184C22.0065 23.8105 24.0226 21.8282 24.0226 19.3816V4.6184C24.0226 2.1718 22.0065 0.189453 19.5184 0.189453ZM18.9076 12.9103H16.6597V21.0905H12.9057V12.9103H11.4495V10.1548H12.9057V8.39959C12.9066 6.09835 13.8786 4.73196 16.6366 4.73196H19.4315V7.47746H17.8081C16.7345 7.47746 16.6643 7.87084 16.6643 8.60672L16.6597 10.1539H19.2135L18.9076 12.9103Z" fill="#153274"/>
</svg>
