<svg width="45" height="44" viewBox="0 0 45 44" fill="none" xmlns="http://www.w3.org/2000/svg">
<path d="M44.5 0H0V44H44.5V0Z" fill="#DC4B3E"/>
<path d="M8.00569 22.0115C7.82476 17.3714 11.9868 13.0837 16.7423 13.0277C19.1662 12.8257 21.5238 13.7447 23.3595 15.245C22.6068 16.0521 21.8399 16.8514 21.0232 17.5995C19.4077 16.6412 17.4637 15.911 15.5767 16.5593C12.5312 17.406 10.6896 20.9162 11.8145 23.8251C12.7477 26.8621 16.5317 28.5291 19.4961 27.2526C21.0323 26.7162 22.0426 25.3324 22.4867 23.846C20.7273 23.812 18.9671 23.8329 17.2077 23.785C17.2046 22.7628 17.1986 21.745 17.2045 20.7224C20.1382 20.7182 23.0774 20.7099 26.0158 20.7362C26.1955 23.2402 25.8174 25.9217 24.1509 27.9317C21.8672 30.8019 17.6482 31.6439 14.2172 30.5187C10.5739 29.3502 7.92667 25.7669 8.00569 22.0115Z" fill="white"/>
<path d="M31.7339 18.1445H34.3515C34.3559 18.9998 34.3642 19.8584 34.3685 20.7139C35.2445 20.7222 36.1244 20.7257 37.0003 20.7313V23.2916C36.1244 23.2955 35.2445 23.3001 34.3685 23.304C34.361 24.1629 34.3559 25.0184 34.3515 25.8778C33.476 25.874 32.6 25.8778 31.7288 25.8778C31.7201 25.0184 31.7201 24.1629 31.7122 23.3086C30.8367 23.3001 29.9564 23.2955 29.082 23.2916V20.7313C29.9564 20.7257 30.8315 20.7222 31.7122 20.7139C31.7166 19.8584 31.7253 18.9998 31.7339 18.1445Z" fill="white"/>
</svg>
