<svg width="247" height="247" viewBox="0 0 247 247" fill="none" xmlns="http://www.w3.org/2000/svg">
<g id="green-cone-circular-linear">
<path d="M142.675 245.601C143.852 228.597 158.082 215.068 175.415 215.068H179.214V211.271C179.214 193.198 193.925 178.493 212.007 178.493L215.912 178.439V174.589C215.912 157.531 228.965 143.521 245.603 141.917C247.582 128.709 247.475 115.608 245.175 102.561C241.912 106.839 239.986 112.133 239.986 117.908V129.191H228.698C214.735 129.191 203.394 140.527 203.394 154.483V165.713L192.053 165.873C178.037 165.873 166.695 177.209 166.695 191.166V202.448H155.408C141.445 202.448 130.104 213.785 130.104 227.741V239.024H118.762C112.503 239.024 106.779 241.323 102.339 245.066C106.94 245.869 111.594 246.403 116.355 246.671C125.236 247.366 134.009 246.938 142.675 245.601Z" fill="#549141"/>
<path d="M142.675 245.601C143.852 228.597 158.082 215.068 175.415 215.068H179.214V211.271C179.214 193.198 193.925 178.493 212.007 178.493L215.912 178.439V174.589C215.912 157.531 228.965 143.521 245.603 141.917C247.582 128.709 247.475 115.608 245.175 102.561C241.912 106.839 239.986 112.133 239.986 117.908V129.191H228.698C214.735 129.191 203.394 140.527 203.394 154.483V165.713L192.053 165.873C178.037 165.873 166.695 177.209 166.695 191.166V202.448H155.408C141.445 202.448 130.104 213.785 130.104 227.741V239.024H118.762C112.503 239.024 106.779 241.323 102.339 245.066C106.94 245.869 111.594 246.403 116.355 246.671C125.236 247.366 134.009 246.938 142.675 245.601Z" fill="url(#paint0_radial)"/>
<path d="M58.6858 171.595H62.4841V167.798C62.4841 149.724 77.1956 135.019 95.2775 135.019H99.0757V131.223C99.0757 113.149 113.787 98.4437 131.869 98.4437L135.774 98.3902V94.5402C135.774 76.4663 150.486 61.7613 168.568 61.7613H172.366V57.9647C172.366 42.1367 183.654 28.8754 198.579 25.8274C192.374 21.0149 185.901 16.844 179.107 13.3682C168.033 16.0954 159.794 26.0948 159.794 37.9658V49.2486H148.507C134.544 49.2486 123.203 60.5848 123.203 74.5413V85.7706L111.861 85.931C97.8453 85.931 86.504 97.2673 86.504 111.224V122.453H75.2162C61.2536 122.453 49.9124 133.789 49.9124 147.746V159.029H38.6246C26.1064 159.029 15.728 168.119 13.6952 180.043C17.2259 186.941 21.3987 193.465 26.2134 199.561C28.5137 183.787 42.2089 171.595 58.6858 171.595Z" fill="#549141"/>
<path d="M58.6858 171.595H62.4841V167.798C62.4841 149.724 77.1956 135.019 95.2775 135.019H99.0757V131.223C99.0757 113.149 113.787 98.4437 131.869 98.4437L135.774 98.3902V94.5402C135.774 76.4663 150.486 61.7613 168.568 61.7613H172.366V57.9647C172.366 42.1367 183.654 28.8754 198.579 25.8274C192.374 21.0149 185.901 16.844 179.107 13.3682C168.033 16.0954 159.794 26.0948 159.794 37.9658V49.2486H148.507C134.544 49.2486 123.203 60.5848 123.203 74.5413V85.7706L111.861 85.931C97.8453 85.931 86.504 97.2673 86.504 111.224V122.453H75.2162C61.2536 122.453 49.9124 133.789 49.9124 147.746V159.029H38.6246C26.1064 159.029 15.728 168.119 13.6952 180.043C17.2259 186.941 21.3987 193.465 26.2134 199.561C28.5137 183.787 42.2089 171.595 58.6858 171.595Z" fill="url(#paint1_radial)"/>
<path d="M98.7012 211.646H102.499V207.849C102.499 189.776 117.211 175.07 135.293 175.07H139.091V171.274C139.091 153.2 153.803 138.495 171.884 138.495L175.79 138.442V134.591C175.79 116.518 190.501 101.813 208.583 101.813H212.381V98.016C212.381 84.113 221.101 72.1885 233.352 67.4294C230.731 62.296 227.788 57.3765 224.418 52.7244C210.776 53.0987 199.81 64.2745 199.81 78.0171V89.2999H188.522C174.559 89.2999 163.218 100.636 163.218 114.593V125.822L151.877 125.982C137.861 125.982 126.519 137.319 126.519 151.275V162.558H115.232C101.269 162.558 89.9277 173.894 89.9277 187.851V199.133H78.6399C64.6773 199.133 53.3361 210.47 53.3361 224.426V225.121C57.9903 228.383 62.7515 231.217 67.6731 233.784C72.1669 220.897 84.3641 211.646 98.7012 211.646Z" fill="#549141"/>
<path d="M98.7012 211.646H102.499V207.849C102.499 189.776 117.211 175.07 135.293 175.07H139.091V171.274C139.091 153.2 153.803 138.495 171.884 138.495L175.79 138.442V134.591C175.79 116.518 190.501 101.813 208.583 101.813H212.381V98.016C212.381 84.113 221.101 72.1885 233.352 67.4294C230.731 62.296 227.788 57.3765 224.418 52.7244C210.776 53.0987 199.81 64.2745 199.81 78.0171V89.2999H188.522C174.559 89.2999 163.218 100.636 163.218 114.593V125.822L151.877 125.982C137.861 125.982 126.519 137.319 126.519 151.275V162.558H115.232C101.269 162.558 89.9277 173.894 89.9277 187.851V199.133H78.6399C64.6773 199.133 53.3361 210.47 53.3361 224.426V225.121C57.9903 228.383 62.7515 231.217 67.6731 233.784C72.1669 220.897 84.3641 211.646 98.7012 211.646Z" fill="url(#paint2_radial)"/>
<path d="M118.762 231.645H122.561V227.848C122.561 209.774 137.272 195.069 155.354 195.069H159.152V191.273C159.152 173.199 173.864 158.494 191.946 158.494L195.851 158.44V154.537C195.851 136.463 210.562 121.758 228.644 121.758H232.443V117.961C232.443 108.336 236.615 99.6735 243.249 93.6846C241.537 86.8935 239.344 80.3698 236.615 74.167C226.879 77.6962 219.924 87.0539 219.924 97.9624V109.245H208.637C194.674 109.245 183.333 120.581 183.333 134.538V145.767L171.991 145.928C157.975 145.928 146.634 157.264 146.634 171.22V182.503H135.346C121.384 182.503 110.042 193.839 110.042 207.796V219.079H98.7546C87.4134 219.079 77.7305 226.618 74.5742 236.939C80.7263 239.612 87.0924 241.751 93.6725 243.355C99.6641 236.243 108.651 231.645 118.762 231.645Z" fill="#549141"/>
<path d="M118.762 231.645H122.561V227.848C122.561 209.774 137.272 195.069 155.354 195.069H159.152V191.273C159.152 173.199 173.864 158.494 191.946 158.494L195.851 158.44V154.537C195.851 136.463 210.562 121.758 228.644 121.758H232.443V117.961C232.443 108.336 236.615 99.6735 243.249 93.6846C241.537 86.8935 239.344 80.3698 236.615 74.167C226.879 77.6962 219.924 87.0539 219.924 97.9624V109.245H208.637C194.674 109.245 183.333 120.581 183.333 134.538V145.767L171.991 145.928C157.975 145.928 146.634 157.264 146.634 171.22V182.503H135.346C121.384 182.503 110.042 193.839 110.042 207.796V219.079H98.7546C87.4134 219.079 77.7305 226.618 74.5742 236.939C80.7263 239.612 87.0924 241.751 93.6725 243.355C99.6641 236.243 108.651 231.645 118.762 231.645Z" fill="url(#paint3_radial)"/>
<path d="M244.265 149.617C232.443 151.756 223.455 162.13 223.455 174.536V185.765L212.114 185.925C198.098 185.925 186.757 197.262 186.757 211.218V222.501H175.469C162.79 222.501 152.251 231.859 150.432 244.05C153.428 243.355 156.424 242.607 159.42 241.698C175.255 236.832 189.324 229.345 201.575 219.292C204.838 210.897 211.472 204.213 219.817 200.844C220.245 200.31 220.62 199.828 221.048 199.294C232.603 184.482 240.36 167.905 244.265 149.617Z" fill="#549141"/>
<path d="M244.265 149.617C232.443 151.756 223.455 162.13 223.455 174.536V185.765L212.114 185.925C198.098 185.925 186.757 197.262 186.757 211.218V222.501H175.469C162.79 222.501 152.251 231.859 150.432 244.05C153.428 243.355 156.424 242.607 159.42 241.698C175.255 236.832 189.324 229.345 201.575 219.292C204.838 210.897 211.472 204.213 219.817 200.844C220.245 200.31 220.62 199.828 221.048 199.294C232.603 184.482 240.36 167.905 244.265 149.617Z" fill="url(#paint4_radial)"/>
<path d="M0 0.213866C0 0.855541 0 1.28332 0 1.71111C0 8.76954 0 15.828 0 22.8864C2.78182 12.1918 10.7528 3.63613 21.0242 0.10692C14.5511 0.10692 8.07798 0.10692 1.6049 0.10692C1.17692 0.10692 0.695455 0.160393 0 0.213866Z" fill="#549141"/>
<path d="M0 0.213866C0 0.855541 0 1.28332 0 1.71111C0 8.76954 0 15.828 0 22.8864C2.78182 12.1918 10.7528 3.63613 21.0242 0.10692C14.5511 0.10692 8.07798 0.10692 1.6049 0.10692C1.17692 0.10692 0.695455 0.160393 0 0.213866Z" fill="url(#paint5_radial)"/>
<path d="M6.41959 31.0678V42.3506H0C0 47.7513 0 53.2056 0 58.6063C4.54721 56.2535 9.68288 54.8632 15.193 54.8632H18.9913V51.0667C18.9913 32.9928 33.7028 18.2877 51.7847 18.2877L55.6899 18.2343V14.3842C55.6899 9.25082 56.8669 4.38478 59.0067 0C53.7106 0 48.4144 0 43.1182 0.0534729V5.61466L31.777 5.77508C17.8144 5.77508 6.41959 17.1113 6.41959 31.0678Z" fill="#549141"/>
<path d="M6.41959 31.0678V42.3506H0C0 47.7513 0 53.2056 0 58.6063C4.54721 56.2535 9.68288 54.8632 15.193 54.8632H18.9913V51.0667C18.9913 32.9928 33.7028 18.2877 51.7847 18.2877L55.6899 18.2343V14.3842C55.6899 9.25082 56.8669 4.38478 59.0067 0C53.7106 0 48.4144 0 43.1182 0.0534729V5.61466L31.777 5.77508C17.8144 5.77508 6.41959 17.1113 6.41959 31.0678Z" fill="url(#paint6_radial)"/>
<path d="M78.6934 191.647H82.4917V187.851C82.4917 169.777 97.2032 155.072 115.285 155.072H119.083V151.275C119.083 133.201 133.795 118.496 151.877 118.496L155.782 118.443V114.593C155.782 96.5187 170.494 81.8137 188.575 81.8137H192.374V78.0171C192.374 61.9752 203.929 48.607 219.175 45.7729C215.377 41.1742 211.204 36.7894 206.657 32.672H205.159C191.197 32.672 179.855 44.0083 179.855 57.9647V69.2475H168.568C154.605 69.2475 143.264 80.5838 143.264 94.5402V105.77L131.923 105.93C117.906 105.93 106.565 117.266 106.565 131.223V142.505H95.2774C81.3147 142.505 69.9735 153.842 69.9735 167.798V179.081H58.6857C44.7231 179.081 33.3818 190.417 33.3818 204.374V207.796C36.3241 210.951 39.4804 213.945 42.8507 216.833C43.9741 217.795 45.0976 218.758 46.2745 219.667C48.4678 203.839 62.163 191.647 78.6934 191.647Z" fill="#549141"/>
<path d="M78.6934 191.647H82.4917V187.851C82.4917 169.777 97.2032 155.072 115.285 155.072H119.083V151.275C119.083 133.201 133.795 118.496 151.877 118.496L155.782 118.443V114.593C155.782 96.5187 170.494 81.8137 188.575 81.8137H192.374V78.0171C192.374 61.9752 203.929 48.607 219.175 45.7729C215.377 41.1742 211.204 36.7894 206.657 32.672H205.159C191.197 32.672 179.855 44.0083 179.855 57.9647V69.2475H168.568C154.605 69.2475 143.264 80.5838 143.264 94.5402V105.77L131.923 105.93C117.906 105.93 106.565 117.266 106.565 131.223V142.505H95.2774C81.3147 142.505 69.9735 153.842 69.9735 167.798V179.081H58.6857C44.7231 179.081 33.3818 190.417 33.3818 204.374V207.796C36.3241 210.951 39.4804 213.945 42.8507 216.833C43.9741 217.795 45.0976 218.758 46.2745 219.667C48.4678 203.839 62.163 191.647 78.6934 191.647Z" fill="url(#paint7_radial)"/>
<path d="M38.6245 151.596H42.4228V147.799C42.4228 129.725 57.1343 115.02 75.2162 115.02H79.0144V111.224C79.0144 93.1499 93.726 78.4448 111.808 78.4448L115.713 78.3913V74.5413C115.713 56.4674 130.425 41.7624 148.506 41.7624H152.305V37.9658C152.305 25.4531 159.313 14.5981 169.638 9.03693C161.881 5.88202 153.749 3.58269 145.35 2.13892C141.873 6.47023 139.787 11.9779 139.787 17.9669V29.2497H128.499C114.536 29.2497 103.195 40.586 103.195 54.5424V65.7717L91.8536 65.9321C77.8375 65.9321 66.4962 77.2684 66.4962 91.2249V102.508H55.2084C41.2458 102.508 29.9046 113.844 29.9046 127.8V139.03H18.6168C12.2507 139.03 6.41956 141.382 1.97935 145.286C2.46082 147.799 2.99578 150.312 3.58424 152.826C5.02865 158.815 6.90103 164.536 9.09439 170.044C14.444 159.135 25.6783 151.596 38.6245 151.596Z" fill="#549141"/>
<path d="M38.6245 151.596H42.4228V147.799C42.4228 129.725 57.1343 115.02 75.2162 115.02H79.0144V111.224C79.0144 93.1499 93.726 78.4448 111.808 78.4448L115.713 78.3913V74.5413C115.713 56.4674 130.425 41.7624 148.506 41.7624H152.305V37.9658C152.305 25.4531 159.313 14.5981 169.638 9.03693C161.881 5.88202 153.749 3.58269 145.35 2.13892C141.873 6.47023 139.787 11.9779 139.787 17.9669V29.2497H128.499C114.536 29.2497 103.195 40.586 103.195 54.5424V65.7717L91.8536 65.9321C77.8375 65.9321 66.4962 77.2684 66.4962 91.2249V102.508H55.2084C41.2458 102.508 29.9046 113.844 29.9046 127.8V139.03H18.6168C12.2507 139.03 6.41956 141.382 1.97935 145.286C2.46082 147.799 2.99578 150.312 3.58424 152.826C5.02865 158.815 6.90103 164.536 9.09439 170.044C14.444 159.135 25.6783 151.596 38.6245 151.596Z" fill="url(#paint8_radial)"/>
<path d="M2.40735 111.545V107.748C2.40735 89.6741 17.1189 74.9691 35.2007 74.9691H38.999V71.119C38.999 53.0452 53.7106 38.3401 71.7924 38.3401L75.6977 38.2866V34.4366C75.6977 16.3627 90.4092 1.65766 108.491 1.65766H112.289V0.106946C97.4708 0 82.5987 0 67.7267 0C64.8913 4.06394 63.233 9.03693 63.233 14.3842V25.6135L51.8917 25.774C37.8756 25.774 26.5343 37.1102 26.5343 51.0667V62.3495H15.193C9.52239 62.3495 4.27973 64.221 0 67.4294C0 82.1345 0 96.8395 0 111.545H2.40735Z" fill="#549141"/>
<path d="M2.40735 111.545V107.748C2.40735 89.6741 17.1189 74.9691 35.2007 74.9691H38.999V71.119C38.999 53.0452 53.7106 38.3401 71.7924 38.3401L75.6977 38.2866V34.4366C75.6977 16.3627 90.4092 1.65766 108.491 1.65766H112.289V0.106946C97.4708 0 82.5987 0 67.7267 0C64.8913 4.06394 63.233 9.03693 63.233 14.3842V25.6135L51.8917 25.774C37.8756 25.774 26.5343 37.1102 26.5343 51.0667V62.3495H15.193C9.52239 62.3495 4.27973 64.221 0 67.4294C0 82.1345 0 96.8395 0 111.545H2.40735Z" fill="url(#paint9_radial)"/>
<path d="M22.4151 131.543V127.747C22.4151 109.673 37.1267 94.968 55.2085 94.968H59.0068V91.1714C59.0068 73.0975 73.7183 58.3925 91.8002 58.3925L95.7054 58.339V54.4889C95.7054 36.4151 110.417 21.71 128.499 21.71H132.297V17.9134C132.297 11.7106 134.009 5.9355 137.005 0.962513C133.153 0.588202 129.194 0.374311 125.236 0.320838C123.417 0.320838 121.598 0.267365 119.725 0.267365V9.0904H108.438C94.475 9.0904 83.1337 20.4267 83.1337 34.3831V45.6124L71.7924 45.7728C57.7763 45.7728 46.4351 57.1091 46.4351 71.0655V82.3483H35.2008C21.2382 82.3483 9.89692 93.6846 9.89692 107.641V118.924H0.0535488C0.0535488 120.688 0.0535488 122.507 0.0535488 124.271C0.0535488 128.442 0.321032 132.613 0.749004 136.784C5.88468 133.415 12.0368 131.49 18.6169 131.49H22.4151V131.543Z" fill="#549141"/>
<path d="M22.4151 131.543V127.747C22.4151 109.673 37.1267 94.968 55.2085 94.968H59.0068V91.1714C59.0068 73.0975 73.7183 58.3925 91.8002 58.3925L95.7054 58.339V54.4889C95.7054 36.4151 110.417 21.71 128.499 21.71H132.297V17.9134C132.297 11.7106 134.009 5.9355 137.005 0.962513C133.153 0.588202 129.194 0.374311 125.236 0.320838C123.417 0.320838 121.598 0.267365 119.725 0.267365V9.0904H108.438C94.475 9.0904 83.1337 20.4267 83.1337 34.3831V45.6124L71.7924 45.7728C57.7763 45.7728 46.4351 57.1091 46.4351 71.0655V82.3483H35.2008C21.2382 82.3483 9.89692 93.6846 9.89692 107.641V118.924H0.0535488C0.0535488 120.688 0.0535488 122.507 0.0535488 124.271C0.0535488 128.442 0.321032 132.613 0.749004 136.784C5.88468 133.415 12.0368 131.49 18.6169 131.49H22.4151V131.543Z" fill="url(#paint10_radial)"/>
</g>
<defs>
<radialGradient id="paint0_radial" cx="0" cy="0" r="1" gradientUnits="userSpaceOnUse" gradientTransform="rotate(44.9922) scale(349.396 349.301)">
<stop stop-color="white"/>
<stop offset="0.0001" stop-color="white" stop-opacity="0.4"/>
<stop offset="0.961326" stop-color="white" stop-opacity="0"/>
</radialGradient>
<radialGradient id="paint1_radial" cx="0" cy="0" r="1" gradientUnits="userSpaceOnUse" gradientTransform="rotate(44.9922) scale(349.396 349.301)">
<stop stop-color="white"/>
<stop offset="0.0001" stop-color="white" stop-opacity="0.4"/>
<stop offset="0.961326" stop-color="white" stop-opacity="0"/>
</radialGradient>
<radialGradient id="paint2_radial" cx="0" cy="0" r="1" gradientUnits="userSpaceOnUse" gradientTransform="rotate(44.9922) scale(349.396 349.301)">
<stop stop-color="white"/>
<stop offset="0.0001" stop-color="white" stop-opacity="0.4"/>
<stop offset="0.961326" stop-color="white" stop-opacity="0"/>
</radialGradient>
<radialGradient id="paint3_radial" cx="0" cy="0" r="1" gradientUnits="userSpaceOnUse" gradientTransform="rotate(44.9922) scale(349.396 349.301)">
<stop stop-color="white"/>
<stop offset="0.0001" stop-color="white" stop-opacity="0.4"/>
<stop offset="0.961326" stop-color="white" stop-opacity="0"/>
</radialGradient>
<radialGradient id="paint4_radial" cx="0" cy="0" r="1" gradientUnits="userSpaceOnUse" gradientTransform="rotate(44.9922) scale(349.396 349.301)">
<stop stop-color="white"/>
<stop offset="0.0001" stop-color="white" stop-opacity="0.4"/>
<stop offset="0.961326" stop-color="white" stop-opacity="0"/>
</radialGradient>
<radialGradient id="paint5_radial" cx="0" cy="0" r="1" gradientUnits="userSpaceOnUse" gradientTransform="rotate(44.9922) scale(349.396 349.301)">
<stop stop-color="white"/>
<stop offset="0.0001" stop-color="white" stop-opacity="0.4"/>
<stop offset="0.961326" stop-color="white" stop-opacity="0"/>
</radialGradient>
<radialGradient id="paint6_radial" cx="0" cy="0" r="1" gradientUnits="userSpaceOnUse" gradientTransform="rotate(44.9922) scale(349.396 349.301)">
<stop stop-color="white"/>
<stop offset="0.0001" stop-color="white" stop-opacity="0.4"/>
<stop offset="0.961326" stop-color="white" stop-opacity="0"/>
</radialGradient>
<radialGradient id="paint7_radial" cx="0" cy="0" r="1" gradientUnits="userSpaceOnUse" gradientTransform="rotate(44.9922) scale(349.396 349.301)">
<stop stop-color="white"/>
<stop offset="0.0001" stop-color="white" stop-opacity="0.4"/>
<stop offset="0.961326" stop-color="white" stop-opacity="0"/>
</radialGradient>
<radialGradient id="paint8_radial" cx="0" cy="0" r="1" gradientUnits="userSpaceOnUse" gradientTransform="rotate(44.9922) scale(349.396 349.301)">
<stop stop-color="white"/>
<stop offset="0.0001" stop-color="white" stop-opacity="0.4"/>
<stop offset="0.961326" stop-color="white" stop-opacity="0"/>
</radialGradient>
<radialGradient id="paint9_radial" cx="0" cy="0" r="1" gradientUnits="userSpaceOnUse" gradientTransform="rotate(44.9922) scale(349.396 349.301)">
<stop stop-color="white"/>
<stop offset="0.0001" stop-color="white" stop-opacity="0.4"/>
<stop offset="0.961326" stop-color="white" stop-opacity="0"/>
</radialGradient>
<radialGradient id="paint10_radial" cx="0" cy="0" r="1" gradientUnits="userSpaceOnUse" gradientTransform="rotate(44.9922) scale(349.396 349.301)">
<stop stop-color="white"/>
<stop offset="0.0001" stop-color="white" stop-opacity="0.4"/>
<stop offset="0.961326" stop-color="white" stop-opacity="0"/>
</radialGradient>
</defs>
</svg>
