<svg width="451" height="228" viewBox="0 0 451 228" fill="none" xmlns="http://www.w3.org/2000/svg">
<path d="M16.0831 4.06988C16.0831 4.06988 18.3739 0.0785957 22.9726 0.0683441L53.2223 2.69141e-07C53.2223 2.69141e-07 57.821 -0.0102513 60.1289 3.97078L75.3109 30.1619C75.3109 30.1619 77.6222 34.1395 75.328 38.1308L60.2654 64.3868C60.2654 64.3868 57.9712 68.3815 53.3726 68.3918L23.1211 68.4601C23.1211 68.4601 18.5224 68.4704 16.218 64.4859L1.03079 38.2965C1.03079 38.2965 -1.27707 34.3138 1.01372 30.3276L16.0831 4.06988Z" fill="white"/>
<path d="M21.2603 10.1382C21.2603 10.1382 22.9861 7.12938 26.453 7.12255L49.2568 7.07129C49.2568 7.07129 52.722 7.06275 54.4632 10.0648L65.9069 29.8076C65.9069 29.8076 67.6497 32.8045 65.9205 35.815L54.5656 55.6074C54.5656 55.6074 52.8364 58.618 49.3695 58.6265L26.5657 58.6778C26.5657 58.6778 23.0987 58.6863 21.3627 55.6826L9.91386 35.9398C9.91386 35.9398 8.17443 32.9378 9.90021 29.9323L21.2603 10.1382Z" fill="#05305E"/>
<path d="M173.807 139.4H153.181C151.988 139.4 150.916 138.602 150.916 137.403V43.6537C150.916 42.5858 151.845 41.9194 153.181 41.7879L173.807 39.2557C175.256 39.1207 175.93 40.1886 175.93 41.2514V137.403C175.93 138.6 174.998 139.4 173.807 139.4Z" fill="#05305E"/>
<path d="M264.973 58.8343H224.263V85.8678H260.586C261.779 85.8678 262.708 86.6657 262.708 87.8634V101.715C262.708 102.913 261.779 103.711 260.586 103.711H224.263V137.269C224.263 138.467 223.191 139.4 221.871 139.4H201.643C200.442 139.4 199.252 138.467 199.252 137.269V43.1187C199.252 41.9209 200.442 40.9863 201.643 40.9863H264.973C266.177 40.9863 267.109 41.7894 267.109 42.9888V56.8353C267.109 58.0347 266.177 58.8343 264.973 58.8343Z" fill="#05305E"/>
<path d="M313.596 140.864C294.976 140.864 280.209 136.601 277.947 135.806C276.354 135.273 275.151 134.342 275.685 131.408L277.549 121.02C277.819 119.026 279.54 118.36 281.404 118.89C284.471 119.558 297.914 123.422 309.486 123.422C319.46 123.422 326.772 121.018 326.772 112.103C326.772 102.381 317.87 101.715 306.562 99.8506C293.117 97.72 274.627 93.457 274.627 70.4217C274.627 46.3185 291.123 39.5234 313.342 39.5234C328.91 39.5234 342.484 43.12 345.539 44.0529C347.273 44.5843 348.864 45.5172 348.463 47.9178L346.469 58.8357C346.21 60.0352 345.408 61.3627 343.004 60.8314C334.097 58.8357 325.325 56.8367 316.266 56.8367C307.623 56.8367 299.638 58.4342 299.638 67.6247C299.638 76.9469 309.086 77.7465 320.124 79.4773C335.42 81.8745 352.321 85.0712 352.321 110.37C352.316 133.409 333.964 140.864 313.596 140.864Z" fill="#05305E"/>
<path d="M154.316 189.07H151.462C151.174 189.07 150.916 188.846 150.916 188.59V165.808C150.916 165.519 151.107 165.391 151.363 165.36L154.378 164.941C154.697 164.909 154.828 165.165 154.828 165.391V188.59C154.828 188.846 154.603 189.07 154.316 189.07Z" fill="#05305E"/>
<path d="M174.449 189.07H171.789C171.467 189.07 171.277 188.877 171.277 188.589V177.07C171.277 175.081 170.54 174.439 168.647 174.439C166.562 174.439 164.386 174.986 163.903 175.114V188.591C163.903 188.88 163.712 189.071 163.423 189.071H160.764C160.475 189.071 160.25 188.878 160.25 188.591V174.953C160.25 173.733 160.665 173.251 162.397 172.706C164.031 172.225 166.918 171.808 168.969 171.808C172.878 171.808 174.93 172.899 174.93 176.588V188.591C174.928 188.878 174.737 189.07 174.449 189.07Z" fill="#05305E"/>
<path d="M188.908 188.14C189.004 188.558 188.843 188.719 188.585 188.815C188.01 189.008 186.598 189.392 184.613 189.392C181.18 189.392 179.451 188.012 179.451 184.579V167.637C179.451 167.285 179.61 167.157 179.965 167.09L182.563 166.545C182.945 166.482 183.106 166.738 183.106 167.027V172.224H187.978C188.266 172.224 188.461 172.417 188.461 172.706V174.471C188.461 174.76 188.266 174.951 187.978 174.951H183.106V184.61C183.106 186.149 183.813 186.694 185.48 186.694C186.441 186.694 187.532 186.469 188.107 186.341C188.363 186.277 188.526 186.407 188.587 186.664L188.908 188.14Z" fill="#05305E"/>
<path d="M206.67 181.883C206.67 182.172 206.479 182.492 206.127 182.492H194.969C195.001 184.065 195.387 184.964 196.155 185.7C197.053 186.567 198.367 186.855 200.291 186.855C202.119 186.855 203.529 186.471 204.874 186.085C204.97 186.054 205.069 186.054 205.101 186.054C205.293 186.054 205.453 186.085 205.516 186.408L205.839 187.852C205.871 187.98 205.871 188.01 205.871 188.045C205.871 188.268 205.711 188.397 205.516 188.494C204.332 188.976 202.182 189.49 199.811 189.49C193.528 189.49 191.283 186.826 191.283 180.696C191.283 174.888 192.76 171.81 199.043 171.81C202.312 171.81 204.268 172.708 205.422 174.376C206.416 175.82 206.704 177.841 206.704 180.344C206.704 180.761 206.704 181.402 206.67 181.883ZM202.729 176.91C202.249 175.015 201.191 174.405 199.043 174.405C196.703 174.405 195.677 175.047 195.259 176.843C195.003 177.839 195.003 178.897 194.969 179.956H203.017C203.017 178.866 202.985 177.872 202.729 176.91Z" fill="#05305E"/>
<path d="M210.713 174.92C210.713 173.607 211.288 173.19 212.669 172.739C214.046 172.291 216.354 171.872 218.981 171.84C219.365 171.84 219.717 171.905 219.717 172.387V174.216C219.717 174.473 219.654 174.698 219.27 174.698C217.283 174.698 215.584 174.89 214.364 175.211V188.593C214.364 188.881 214.173 189.073 213.884 189.073H211.191C210.902 189.073 210.711 188.88 210.711 188.593V174.92H210.713Z" fill="#05305E"/>
<path d="M236.716 189.07H234.057C233.734 189.07 233.543 188.877 233.543 188.589V177.07C233.543 175.081 232.807 174.439 230.913 174.439C228.828 174.439 226.652 174.986 226.169 175.114V188.591C226.169 188.88 225.978 189.071 225.689 189.071H223.03C222.741 189.071 222.518 188.878 222.518 188.591V174.953C222.518 173.733 222.932 173.251 224.665 172.706C226.299 172.225 229.185 171.808 231.237 171.808C235.146 171.808 237.198 172.899 237.198 176.588V188.591C237.196 188.878 237.005 189.07 236.716 189.07Z" fill="#05305E"/>
<path d="M252.81 189.037C251.755 189.293 250.244 189.488 248.483 189.488C245.277 189.488 240.885 189.232 240.885 184.098C240.885 179.893 243.387 179.541 246.207 179.059L252.04 178.097V176.911C252.04 175.948 251.977 175.242 251.047 174.857C250.5 174.632 249.669 174.535 248.419 174.535C246.112 174.535 243.899 175.177 242.807 175.433C242.646 175.466 242.616 175.466 242.583 175.466C242.455 175.466 242.264 175.401 242.199 175.177L241.815 173.412C241.752 173.091 241.976 172.932 242.167 172.865C243.065 172.576 245.919 171.808 249.058 171.808C251.337 171.808 252.842 172.129 253.836 172.676C255.504 173.605 255.664 175.114 255.664 176.814V185.702C255.664 188.043 255.024 188.525 252.81 189.037ZM252.042 180.631L247.168 181.432C245.856 181.658 244.604 181.849 244.604 184.031C244.604 186.792 246.849 186.983 248.58 186.983C249.896 186.983 251.111 186.792 252.042 186.471V180.631Z" fill="#05305E"/>
<path d="M269.963 188.14C270.058 188.558 269.898 188.719 269.642 188.815C269.067 189.008 267.655 189.392 265.67 189.392C262.237 189.392 260.508 188.012 260.508 184.579V167.637C260.508 167.285 260.665 167.157 261.02 167.09L263.618 166.545C264 166.482 264.161 166.738 264.161 167.027V172.224H269.033C269.321 172.224 269.516 172.417 269.516 172.706V174.471C269.516 174.76 269.321 174.951 269.033 174.951H264.161V184.61C264.161 186.149 264.867 186.694 266.535 186.694C267.496 186.694 268.587 186.469 269.162 186.341C269.418 186.277 269.581 186.407 269.642 186.664L269.963 188.14Z" fill="#05305E"/>
<path d="M276.6 169.785H274.325C273.906 169.785 273.65 169.561 273.65 169.144V165.583C273.65 165.166 273.906 164.942 274.325 164.942H276.6C277.018 164.942 277.274 165.166 277.274 165.583V169.144C277.273 169.561 277.017 169.785 276.6 169.785ZM276.79 189.069H274.162C273.843 189.069 273.65 188.876 273.65 188.589V172.865C273.65 172.609 273.874 172.418 274.162 172.418H276.79C277.078 172.418 277.273 172.609 277.273 172.865V188.589C277.273 188.878 277.08 189.069 276.79 189.069Z" fill="#05305E"/>
<path d="M289.423 189.488C282.469 189.488 281.602 185.541 281.602 180.663C281.602 175.754 282.469 171.808 289.423 171.808C296.381 171.808 297.212 175.754 297.212 180.663C297.212 185.541 296.381 189.488 289.423 189.488ZM289.423 174.439C285.514 174.439 285.352 176.716 285.352 180.663C285.352 184.578 285.512 186.855 289.423 186.855C293.303 186.855 293.464 184.578 293.464 180.663C293.464 176.716 293.303 174.439 289.423 174.439Z" fill="#05305E"/>
<path d="M315.265 189.07H312.606C312.283 189.07 312.094 188.877 312.094 188.589V177.07C312.094 175.081 311.354 174.439 309.463 174.439C307.382 174.439 305.199 174.986 304.719 175.114V188.591C304.719 188.88 304.528 189.071 304.24 189.071H301.58C301.29 189.071 301.066 188.878 301.066 188.591V174.953C301.066 173.733 301.485 173.251 303.214 172.706C304.847 172.225 307.734 171.808 309.786 171.808C313.695 171.808 315.747 172.899 315.747 176.588V188.591C315.747 188.878 315.555 189.07 315.265 189.07Z" fill="#05305E"/>
<path d="M331.361 189.037C330.302 189.293 328.797 189.488 327.033 189.488C323.828 189.488 319.436 189.232 319.436 184.098C319.436 179.893 321.938 179.541 324.758 179.059L330.591 178.097V176.911C330.591 175.948 330.528 175.242 329.597 174.857C329.051 174.632 328.22 174.535 326.967 174.535C324.659 174.535 322.448 175.177 321.358 175.433C321.199 175.466 321.166 175.466 321.134 175.466C321.006 175.466 320.811 175.401 320.75 175.177L320.366 173.412C320.301 173.091 320.526 172.932 320.717 172.865C321.615 172.576 324.469 171.808 327.612 171.808C329.888 171.808 331.393 172.129 332.387 172.676C334.054 173.605 334.215 175.114 334.215 176.814V185.702C334.215 188.043 333.573 188.525 331.361 189.037ZM330.591 180.631L325.717 181.432C324.403 181.658 323.153 181.849 323.153 184.031C323.153 186.792 325.398 186.983 327.129 186.983C328.443 186.983 329.664 186.792 330.591 186.471V180.631Z" fill="#05305E"/>
<path d="M345.593 188.462C345.626 188.621 345.53 188.879 345.337 188.942C344.985 189.103 344.088 189.361 342.678 189.361C340.146 189.361 338.734 188.011 338.734 185.51V166.001C338.734 165.647 338.893 165.519 339.214 165.454L341.845 164.941H341.969C342.225 164.941 342.387 165.133 342.387 165.422V185.284C342.387 186.439 343.094 186.665 343.736 186.665C344.216 186.665 344.569 186.567 344.922 186.536C345.079 186.536 345.209 186.567 345.274 186.825L345.593 188.462Z" fill="#05305E"/>
<path d="M165.726 207.013H154.83V215.261H164.7C164.99 215.261 165.214 215.484 165.214 215.741V217.923C165.214 218.213 164.99 218.437 164.7 218.437H154.83V227.069C154.83 227.359 154.574 227.583 154.284 227.583H151.462C151.174 227.583 150.916 227.359 150.916 227.069V204.384C150.916 204.095 151.172 203.871 151.462 203.871H165.726C166.014 203.871 166.24 204.095 166.24 204.384V206.501C166.238 206.789 166.014 207.013 165.726 207.013Z" fill="#05305E"/>
<path d="M184.098 220.393C184.098 220.684 183.907 221.001 183.552 221.001H172.398C172.429 222.575 172.813 223.474 173.583 224.21C174.481 225.077 175.795 225.365 177.719 225.365C179.547 225.365 180.957 224.981 182.302 224.595C182.401 224.564 182.497 224.564 182.526 224.564C182.721 224.564 182.881 224.595 182.944 224.918L183.267 226.361C183.298 226.489 183.297 226.52 183.297 226.554C183.297 226.778 183.139 226.906 182.946 227.004C181.759 227.486 179.612 228 177.241 228C170.958 228 168.713 225.336 168.713 219.207C168.713 213.4 170.189 210.319 176.473 210.319C179.742 210.319 181.698 211.218 182.852 212.886C183.845 214.329 184.134 216.351 184.134 218.854C184.131 219.271 184.131 219.913 184.098 220.393ZM180.155 215.42C179.675 213.526 178.617 212.915 176.469 212.915C174.129 212.915 173.103 213.557 172.685 215.353C172.429 216.347 172.429 217.407 172.398 218.466H180.443C180.445 217.376 180.413 216.381 180.155 215.42Z" fill="#05305E"/>
<path d="M199.009 227.548C197.951 227.804 196.445 227.999 194.682 227.999C191.476 227.999 187.084 227.742 187.084 222.608C187.084 218.403 189.586 218.051 192.406 217.569L198.239 216.607V215.42C198.239 214.456 198.176 213.752 197.246 213.366C196.7 213.141 195.868 213.043 194.615 213.043C192.307 213.043 190.097 213.686 189.006 213.942C188.847 213.975 188.815 213.975 188.782 213.975C188.654 213.975 188.46 213.91 188.398 213.686L188.014 211.921C187.948 211.6 188.175 211.441 188.366 211.374C189.264 211.087 192.118 210.316 195.261 210.316C197.536 210.316 199.042 210.638 200.035 211.183C201.703 212.112 201.863 213.621 201.863 215.321V224.209C201.863 226.555 201.223 227.035 199.009 227.548ZM198.241 219.143L193.367 219.944C192.053 220.17 190.804 220.361 190.804 222.543C190.804 225.304 193.048 225.494 194.779 225.494C196.094 225.494 197.314 225.303 198.241 224.981V219.143Z" fill="#05305E"/>
<path d="M216.162 226.65C216.258 227.068 216.099 227.229 215.843 227.324C215.264 227.518 213.854 227.902 211.866 227.902C208.436 227.902 206.707 226.521 206.707 223.089V206.146C206.707 205.794 206.867 205.666 207.221 205.6L209.815 205.055C210.203 204.991 210.362 205.248 210.362 205.536V210.732H215.233C215.522 210.732 215.713 210.927 215.713 211.214V212.979C215.713 213.268 215.522 213.459 215.233 213.459H210.362V223.118C210.362 224.657 211.068 225.202 212.736 225.202C213.697 225.202 214.788 224.977 215.363 224.849C215.619 224.786 215.781 224.915 215.846 225.172L216.162 226.65Z" fill="#05305E"/>
<path d="M226.939 227.999C221.583 227.999 219.598 226.008 219.598 221.614V211.41C219.598 211.058 219.789 210.897 220.111 210.832L222.71 210.32C223.094 210.255 223.256 210.513 223.256 210.802V221.839C223.256 224.277 224.087 225.4 226.941 225.4C230.275 225.4 230.627 223.795 230.627 221.807V211.41C230.627 211.058 230.787 210.897 231.14 210.832L233.738 210.32C234.123 210.255 234.285 210.513 234.285 210.802V221.583C234.281 225.237 232.965 227.999 226.939 227.999Z" fill="#05305E"/>
<path d="M238.803 213.43C238.803 212.115 239.378 211.699 240.756 211.248C242.136 210.801 244.444 210.382 247.071 210.35C247.456 210.35 247.811 210.415 247.811 210.896V212.726C247.811 212.983 247.746 213.208 247.36 213.208C245.371 213.208 243.675 213.401 242.454 213.721V227.102C242.454 227.391 242.263 227.583 241.974 227.583H239.282C238.992 227.583 238.803 227.389 238.803 227.102V213.43Z" fill="#05305E"/>
<path d="M264.996 220.393C264.996 220.684 264.805 221.001 264.45 221.001H253.296C253.327 222.575 253.711 223.474 254.481 224.21C255.379 225.077 256.693 225.365 258.617 225.365C260.445 225.365 261.855 224.981 263.201 224.595C263.3 224.564 263.395 224.564 263.424 224.564C263.619 224.564 263.779 224.595 263.842 224.918L264.165 226.361C264.194 226.489 264.194 226.52 264.194 226.554C264.194 226.778 264.035 226.906 263.842 227.004C262.656 227.486 260.509 228 258.138 228C251.854 228 249.609 225.336 249.609 219.207C249.609 213.4 251.086 210.319 257.368 210.319C260.637 210.319 262.593 211.218 263.747 212.886C264.74 214.329 265.029 216.351 265.029 218.854C265.029 219.271 265.029 219.913 264.996 220.393ZM261.055 215.42C260.575 213.526 259.517 212.915 257.369 212.915C255.029 212.915 254.003 213.557 253.585 215.353C253.329 216.347 253.329 217.407 253.298 218.466H261.343C261.343 217.376 261.311 216.381 261.055 215.42Z" fill="#05305E"/>
<path d="M281.412 227.324C280.163 227.645 278.529 227.999 276.254 227.999C270.001 227.999 268.205 225.561 268.205 219.207C268.205 213.336 269.777 210.318 275.451 210.318C277.66 210.318 279.331 210.735 280.101 210.928L279.779 209.034V204.542C279.779 204.188 279.939 204.027 280.258 203.964L282.856 203.452C283.24 203.387 283.403 203.645 283.403 203.932V224.821C283.401 225.817 283.336 226.811 281.412 227.324ZM279.779 213.399C279.427 213.302 277.822 212.95 276.221 212.95C273.176 212.95 271.923 213.753 271.923 219.111C271.923 224.758 273.399 225.368 276.315 225.368C277.983 225.368 279.456 225.016 279.777 224.92V213.399H279.779Z" fill="#05305E"/>
<path d="M305.368 227.934C301.36 227.934 298.221 227.005 297.579 226.779C297.257 226.683 297.1 226.427 297.1 226.171C297.1 226.138 297.1 226.106 297.129 225.978L297.513 224.18C297.578 223.924 297.769 223.796 297.992 223.796C298.025 223.796 298.091 223.796 298.248 223.827C298.923 223.955 302.128 224.886 305.367 224.886C308.093 224.886 310.72 224.02 310.72 221.002C310.72 218.019 308.188 217.698 304.887 217.218C301.326 216.736 296.842 215.837 296.842 210.416C296.842 204.897 301.102 203.517 305.848 203.517C309.567 203.517 312.611 204.35 313.318 204.607C313.669 204.735 313.893 205.056 313.832 205.377L313.413 207.238C313.381 207.463 313.062 207.622 312.838 207.592C311.652 207.335 309.086 206.595 306.008 206.595C303.509 206.595 300.718 207.141 300.718 210.03C300.718 212.948 303.605 213.399 306.555 213.814C310.336 214.361 314.695 214.81 314.695 220.714C314.697 226.362 310.08 227.934 305.368 227.934Z" fill="#05305E"/>
<path d="M328.449 226.65C328.545 227.068 328.384 227.229 328.126 227.324C327.551 227.518 326.141 227.902 324.154 227.902C320.721 227.902 318.992 226.521 318.992 223.089V206.146C318.992 205.794 319.149 205.666 319.504 205.6L322.102 205.055C322.485 204.991 322.645 205.248 322.645 205.536V210.732H327.517C327.805 210.732 328 210.927 328 211.214V212.979C328 213.268 327.805 213.459 327.517 213.459H322.645V223.118C322.645 224.657 323.352 225.202 325.018 225.202C325.979 225.202 327.07 224.977 327.645 224.849C327.901 224.786 328.063 224.915 328.125 225.172L328.449 226.65Z" fill="#05305E"/>
<path d="M342.749 227.548C341.691 227.804 340.185 227.999 338.422 227.999C335.216 227.999 330.824 227.742 330.824 222.608C330.824 218.403 333.327 218.051 336.147 217.569L341.979 216.607V215.42C341.979 214.456 341.916 213.752 340.986 213.366C340.44 213.141 339.608 213.043 338.355 213.043C336.048 213.043 333.837 213.686 332.746 213.942C332.588 213.975 332.555 213.975 332.523 213.975C332.395 213.975 332.2 213.91 332.139 213.686L331.755 211.921C331.69 211.6 331.915 211.441 332.106 211.374C333.004 211.087 335.858 210.316 339.001 210.316C341.276 210.316 342.782 210.638 343.775 211.183C345.443 212.112 345.603 213.621 345.603 215.321V224.209C345.603 226.555 344.962 227.035 342.749 227.548ZM341.979 219.143L337.106 219.944C335.79 220.17 334.542 220.361 334.542 222.543C334.542 225.304 336.787 225.494 338.518 225.494C339.832 225.494 341.053 225.303 341.979 224.981V219.143Z" fill="#05305E"/>
<path d="M364.326 227.581H361.666C361.344 227.581 361.154 227.388 361.154 227.101V215.582C361.154 213.593 360.417 212.951 358.524 212.951C356.439 212.951 354.263 213.497 353.78 213.625V227.103C353.78 227.392 353.589 227.583 353.299 227.583H350.639C350.351 227.583 350.127 227.39 350.127 227.103V213.465C350.127 212.245 350.542 211.763 352.274 211.218C353.908 210.736 356.794 210.319 358.846 210.319C362.755 210.319 364.807 211.411 364.807 215.1V227.103C364.805 227.388 364.616 227.581 364.326 227.581Z" fill="#05305E"/>
<path d="M381.863 227.324C380.614 227.645 378.98 227.999 376.701 227.999C370.452 227.999 368.656 225.561 368.656 219.207C368.656 213.336 370.228 210.318 375.902 210.318C378.115 210.318 379.779 210.735 380.549 210.928L380.23 209.034V204.542C380.23 204.188 380.39 204.027 380.709 203.964L383.307 203.452C383.692 203.387 383.854 203.645 383.854 203.932V224.821C383.852 225.817 383.787 226.811 381.863 227.324ZM380.23 213.399C379.878 213.302 378.273 212.95 376.672 212.95C373.625 212.95 372.374 213.753 372.374 219.111C372.374 224.758 373.851 225.368 376.766 225.368C378.434 225.368 379.909 225.016 380.228 224.92V213.399H380.23Z" fill="#05305E"/>
<path d="M399.628 227.548C398.573 227.804 397.064 227.999 395.301 227.999C392.095 227.999 387.703 227.742 387.703 222.608C387.703 218.403 390.206 218.051 393.026 217.569L398.858 216.607V215.42C398.858 214.456 398.795 213.752 397.865 213.366C397.319 213.141 396.487 213.043 395.238 213.043C392.93 213.043 390.718 213.686 389.625 213.942C389.465 213.975 389.434 213.975 389.402 213.975C389.274 213.975 389.082 213.91 389.018 213.686L388.633 211.921C388.57 211.6 388.794 211.441 388.985 211.374C389.883 211.087 392.737 210.316 395.876 210.316C398.155 210.316 399.661 210.638 400.654 211.183C402.322 212.112 402.482 213.621 402.482 215.321V224.209C402.482 226.555 401.84 227.035 399.628 227.548ZM398.858 219.143L393.985 219.944C392.672 220.17 391.419 220.361 391.419 222.543C391.419 225.304 393.666 225.494 395.395 225.494C396.711 225.494 397.926 225.303 398.857 224.981V219.143H398.858Z" fill="#05305E"/>
<path d="M407.006 213.43C407.006 212.115 407.581 211.699 408.962 211.248C410.339 210.801 412.647 210.382 415.274 210.35C415.658 210.35 416.01 210.415 416.01 210.896V212.726C416.01 212.983 415.949 213.208 415.563 213.208C413.578 213.208 411.877 213.401 410.657 213.721V227.102C410.657 227.391 410.466 227.583 410.177 227.583H407.484C407.195 227.583 407.004 227.389 407.004 227.102V213.43H407.006Z" fill="#05305E"/>
<path d="M431.02 227.324C429.77 227.645 428.136 227.999 425.858 227.999C419.607 227.999 417.813 225.561 417.813 219.207C417.813 213.336 419.385 210.318 425.059 210.318C427.271 210.318 428.935 210.735 429.705 210.928L429.386 209.034V204.542C429.386 204.188 429.546 204.027 429.866 203.964L432.464 203.452C432.848 203.387 433.01 203.645 433.01 203.932V224.821C433.008 225.817 432.943 226.811 431.02 227.324ZM429.386 213.399C429.034 213.302 427.43 212.95 425.829 212.95C422.782 212.95 421.532 213.753 421.532 219.111C421.532 224.758 423.009 225.368 425.924 225.368C427.592 225.368 429.067 225.016 429.386 224.92V213.399Z" fill="#05305E"/>
<path d="M443.047 227.998C440.259 227.998 437.694 227.163 437.243 226.972C437.083 226.905 436.891 226.746 436.956 226.52L437.308 224.82C437.371 224.595 437.468 224.467 437.66 224.467C437.692 224.467 437.755 224.467 437.883 224.499C438.238 224.595 440.447 225.333 442.822 225.333C444.937 225.333 446.379 224.66 446.379 222.958C446.379 220.809 444.807 220.841 442.661 220.455C440.386 220.071 437.115 219.526 437.115 215.449C437.115 211.054 441.028 210.314 443.849 210.314C446.509 210.314 448.593 210.892 449.04 211.02C449.296 211.085 449.424 211.244 449.392 211.5L449.105 213.234C449.073 213.458 448.91 213.554 448.654 213.521C448.27 213.458 446.091 212.976 444.295 212.976C442.467 212.976 440.737 213.424 440.737 215.189C440.737 217.05 442.467 217.243 444.455 217.532C447.115 217.948 450.001 218.398 450.001 222.633C450.005 226.811 446.83 227.998 443.047 227.998Z" fill="#05305E"/>
<path d="M71.5769 101.712C71.5769 101.712 73.3027 98.7036 76.7696 98.6968L99.5752 98.6455C99.5752 98.6455 103.039 98.637 104.778 101.637L116.225 121.38C116.225 121.38 117.965 124.377 116.239 127.388L104.882 147.18C104.882 147.18 103.153 150.19 99.6895 150.199L76.8823 150.25C76.8823 150.25 73.4154 150.259 71.6794 147.253L60.2322 127.514C60.2322 127.514 58.4928 124.512 60.2186 121.507L71.5769 101.712Z" fill="#B2B9C8"/>
<path d="M71.5785 41.9534C71.5785 41.9534 73.3042 38.9446 76.7712 38.936L99.5767 38.8848C99.5767 38.8848 103.04 38.8762 104.78 41.8765L116.227 61.6194C116.227 61.6194 117.965 64.618 116.24 67.6268L104.884 87.4192C104.884 87.4192 103.155 90.4298 99.6911 90.4383L76.8838 90.4896C76.8838 90.4896 73.4169 90.4981 71.6809 87.4927L60.2337 67.7515C60.2337 67.7515 58.4909 64.7512 60.2201 61.7441L71.5785 41.9534Z" fill="#B2B9C8"/>
</svg>
