<svg width="1319" height="158" viewBox="0 0 1319 158" fill="none" xmlns="http://www.w3.org/2000/svg">
<rect width="1319" height="158" fill="black" fill-opacity="0"/>
<rect width="119" height="157" fill="black" fill-opacity="0" transform="translate(458)"/>
<rect width="119" height="157" fill="black" fill-opacity="0" transform="translate(458)"/>
<path d="M466.663 132.044V133.308H463.88V140.447H462.3V133.308H459.518V132.044H466.663Z" fill="#002169"/>
<path d="M470.709 132.044C471.468 132.044 472.037 132.297 472.543 132.739C472.985 133.182 473.238 133.75 473.238 134.508C473.238 135.203 472.985 135.835 472.543 136.277C472.1 136.72 471.468 136.972 470.709 136.972H469.255V140.51H467.737V132.044H470.709ZM470.33 135.646C470.709 135.646 471.089 135.519 471.278 135.33C471.531 135.14 471.594 134.824 471.594 134.445C471.594 133.687 471.152 133.308 470.203 133.308H469.128V135.646H470.33Z" fill="#002169"/>
<path d="M478.234 132.044L481.775 140.447H480.131L479.309 138.426H475.768L475.009 140.447H473.428L476.716 132.044H478.234ZM476.21 137.162H478.803L477.475 133.877L476.21 137.162Z" fill="#002169"/>
<path d="M486.643 132.044L489.362 139.057H490.248V141.964H488.73V140.447H483.229V141.964H481.711V139.057H482.66L485.189 132.044H486.643ZM484.177 139.057H487.782L485.885 133.877L484.177 139.057Z" fill="#002169"/>
<path d="M492.587 132.044V137.92L497.519 132.044H498.341V140.447H496.824V134.761L491.892 140.447H491.133V132.044H492.587Z" fill="#002169"/>
<path d="M501.44 132.044V139.057H505.486V132.044H507.004V139.057H508.269V141.964H506.751V140.447H499.859V132.044H501.44Z" fill="#002169"/>
<path d="M510.734 132.044H509.217V140.447H510.734V132.044Z" fill="#002169"/>
<path d="M512.125 129.707C512.315 129.707 512.505 129.77 512.694 129.959C512.821 130.086 512.947 130.275 512.947 130.528C512.947 130.717 512.884 130.907 512.758 131.096C512.631 131.286 512.441 131.349 512.252 131.349C512.062 131.349 511.872 131.286 511.683 131.096C511.556 130.97 511.43 130.781 511.43 130.528C511.43 130.338 511.493 130.149 511.683 129.959C511.746 129.77 511.936 129.707 512.125 129.707ZM513.896 140.447H512.378V132.044H513.896V140.447ZM514.085 129.707C514.275 129.707 514.465 129.77 514.591 129.959C514.718 130.086 514.844 130.275 514.844 130.528C514.844 130.717 514.781 130.907 514.654 131.096C514.528 131.286 514.338 131.349 514.085 131.349C513.896 131.349 513.706 131.286 513.516 131.096C513.39 130.97 513.263 130.781 513.263 130.528C513.263 130.338 513.327 130.149 513.516 129.959C513.706 129.77 513.896 129.707 514.085 129.707Z" fill="#002169"/>
<path d="M525.024 132.044V133.308H522.242V140.447H520.662V133.308H517.879V132.044H525.024Z" fill="#002169"/>
<path d="M529.071 132.044L532.612 140.447H530.968L530.146 138.426H526.605L525.846 140.447H524.266L527.554 132.044H529.071ZM527.048 137.162H529.64L528.312 133.877L527.048 137.162Z" fill="#002169"/>
<path d="M542.097 132.044V140.447H540.579V137.099H540.263C539.757 137.099 539.315 137.225 538.998 137.478C538.682 137.731 538.366 138.173 538.05 138.805L537.228 140.447H535.458L536.343 138.741C536.596 138.173 536.912 137.731 537.165 137.415C537.418 137.099 537.734 136.846 538.05 136.657C536.912 136.277 536.343 135.582 536.343 134.508C536.343 133.75 536.596 133.118 537.102 132.676C537.607 132.234 538.303 132.044 539.188 132.044H542.097ZM537.924 134.508C537.924 134.887 538.05 135.203 538.303 135.456C538.556 135.709 538.935 135.772 539.378 135.772H540.516V133.245H539.378C538.872 133.245 538.556 133.371 538.24 133.561C538.05 133.813 537.924 134.129 537.924 134.508Z" fill="#002169"/>
<path d="M545.132 132.044V135.393H545.195C545.511 135.393 545.827 135.329 545.954 135.203C546.143 135.077 546.27 134.95 546.46 134.698C546.586 134.445 546.776 134.192 546.902 133.75C547.092 133.245 547.345 132.865 547.535 132.613C547.724 132.36 547.914 132.234 548.23 132.107C548.483 131.981 548.799 131.981 549.242 131.981C549.368 131.981 549.495 131.981 549.621 131.981V133.245C549.305 133.245 549.052 133.245 548.926 133.308C548.799 133.371 548.673 133.497 548.546 133.624C548.42 133.75 548.293 134.066 548.167 134.445C547.851 135.203 547.471 135.645 546.965 135.898C547.345 136.088 547.661 136.34 547.977 136.656C548.293 137.035 548.609 137.541 548.926 138.236L550.001 140.321H548.293L547.345 138.362C547.092 137.92 546.902 137.541 546.649 137.288C546.46 137.035 546.207 136.846 546.017 136.719C545.764 136.593 545.511 136.53 545.132 136.53V140.321H543.614V132.044H545.132Z" fill="#002169"/>
<path d="M552.403 132.044H550.886V140.447H552.403V132.044Z" fill="#002169"/>
<path d="M558.158 131.918C558.6 131.918 559.043 131.981 559.485 132.108C559.928 132.234 560.371 132.423 560.876 132.676V134.192C560.371 133.877 559.928 133.687 559.549 133.561C559.106 133.434 558.727 133.371 558.221 133.371C557.652 133.371 557.146 133.497 556.703 133.75C556.261 134.003 555.881 134.319 555.628 134.761C555.375 135.203 555.249 135.709 555.249 136.277C555.249 136.846 555.375 137.351 555.628 137.794C555.881 138.236 556.261 138.552 556.703 138.804C557.146 139.057 557.652 139.184 558.221 139.184C558.663 139.184 559.043 139.12 559.485 138.994C559.865 138.868 560.371 138.615 561.003 138.299V139.815C560.497 140.131 559.991 140.321 559.549 140.447C559.106 140.574 558.6 140.637 558.031 140.637C557.209 140.637 556.45 140.447 555.755 140.131C555.123 139.752 554.553 139.247 554.174 138.615C553.795 137.983 553.605 137.225 553.605 136.467C553.605 135.646 553.795 134.887 554.174 134.192C554.553 133.497 555.123 132.992 555.755 132.613C556.577 132.108 557.336 131.918 558.158 131.918Z" fill="#002169"/>
<path d="M568.843 132.044V133.308H565.998V140.447H564.48V133.308H561.635V132.044H568.843Z" fill="#002169"/>
<path d="M571.309 132.044V135.33H572.574C573.459 135.33 574.154 135.582 574.723 136.025C575.229 136.467 575.545 137.099 575.545 137.92C575.545 138.678 575.293 139.31 574.787 139.752C574.281 140.195 573.585 140.447 572.7 140.447H569.792V132.044H571.309ZM572.637 139.184C573.016 139.184 573.332 139.057 573.585 138.805C573.838 138.552 573.901 138.236 573.901 137.857C573.901 137.478 573.775 137.162 573.522 136.909C573.269 136.657 572.953 136.53 572.574 136.53H571.246V139.12H572.637V139.184Z" fill="#002169"/>
<path d="M494.61 152.641V151.946C494.863 151.946 495.116 151.946 495.306 151.946C495.496 151.946 495.622 151.882 495.748 151.882C495.875 151.819 495.938 151.756 496.001 151.693C496.065 151.63 496.065 151.503 496.065 151.377C496.065 151.188 496.001 151.061 495.812 150.998C495.622 150.935 495.432 150.872 495.116 150.872C494.863 150.872 494.61 150.935 494.357 150.998C494.104 151.061 493.915 151.188 493.725 151.251V150.493C493.788 150.429 493.915 150.366 494.041 150.303C494.168 150.24 494.294 150.177 494.421 150.177C494.547 150.113 494.674 150.113 494.863 150.113C494.99 150.113 495.116 150.05 495.243 150.05C495.496 150.05 495.685 150.05 495.938 150.113C496.128 150.177 496.318 150.24 496.507 150.366C496.697 150.493 496.823 150.556 496.887 150.745C496.95 150.872 497.013 151.061 497.013 151.251C497.013 151.503 496.95 151.756 496.76 151.946C496.57 152.135 496.381 152.262 496.128 152.325C496.254 152.325 496.381 152.388 496.507 152.451C496.634 152.514 496.76 152.577 496.823 152.704C496.887 152.83 497.013 152.893 497.076 153.02C497.14 153.146 497.14 153.272 497.14 153.462C497.14 153.715 497.076 153.967 496.95 154.094C496.823 154.283 496.697 154.41 496.507 154.536C496.318 154.662 496.128 154.726 495.875 154.726C495.622 154.789 495.432 154.789 495.179 154.789C495.116 154.789 494.99 154.789 494.8 154.789C494.674 154.789 494.484 154.726 494.357 154.726C494.231 154.662 494.041 154.662 493.915 154.599C493.788 154.536 493.662 154.473 493.599 154.41V153.525C493.662 153.588 493.788 153.652 493.915 153.715C494.041 153.778 494.168 153.841 494.294 153.841C494.421 153.904 494.547 153.904 494.674 153.967C494.8 153.967 494.926 154.031 494.99 154.031C495.369 154.031 495.685 153.967 495.875 153.841C496.065 153.715 496.191 153.588 496.191 153.336C496.191 153.209 496.128 153.146 496.128 153.02C496.065 152.957 496.001 152.893 495.875 152.83C495.748 152.767 495.685 152.767 495.559 152.704C495.432 152.704 495.306 152.641 495.179 152.641H494.61Z" fill="#002169"/>
<path d="M503.083 147.776H502.135V154.599H503.083V147.776Z" fill="#002169"/>
<path d="M505.992 154.662L505.36 153.967C505.866 153.652 506.308 153.272 506.688 152.83C507.067 152.388 507.32 151.883 507.446 151.44C507.13 151.63 506.751 151.756 506.372 151.756C505.866 151.756 505.423 151.567 505.044 151.188C504.664 150.808 504.475 150.303 504.475 149.798C504.475 149.229 504.664 148.724 505.044 148.344C505.423 147.965 505.929 147.776 506.498 147.776C507.13 147.776 507.699 148.029 508.079 148.471C508.521 148.913 508.711 149.545 508.711 150.24C508.711 151.061 508.458 151.883 507.952 152.767C507.446 153.525 506.814 154.22 505.992 154.662ZM507.699 150.429C507.763 150.177 507.763 149.987 507.763 149.924C507.763 149.545 507.636 149.229 507.446 148.976C507.194 148.724 506.941 148.597 506.624 148.597C506.308 148.597 506.055 148.724 505.866 148.913C505.676 149.103 505.55 149.419 505.55 149.734C505.55 150.05 505.676 150.303 505.866 150.493C506.119 150.682 506.372 150.808 506.688 150.808C506.941 150.808 507.32 150.682 507.699 150.429Z" fill="#002169"/>
<path d="M511.05 154.662L510.418 153.967C510.924 153.652 511.366 153.272 511.746 152.83C512.125 152.388 512.378 151.883 512.505 151.44C512.188 151.63 511.809 151.756 511.43 151.756C510.924 151.756 510.481 151.567 510.102 151.188C509.722 150.808 509.533 150.303 509.533 149.798C509.533 149.229 509.722 148.724 510.102 148.344C510.481 147.965 510.987 147.776 511.556 147.776C512.188 147.776 512.757 148.029 513.137 148.471C513.579 148.913 513.769 149.545 513.769 150.24C513.769 151.061 513.516 151.883 513.01 152.767C512.505 153.525 511.809 154.22 511.05 154.662ZM512.694 150.429C512.757 150.177 512.757 149.987 512.757 149.924C512.757 149.545 512.631 149.229 512.441 148.976C512.252 148.724 511.935 148.597 511.619 148.597C511.303 148.597 511.05 148.724 510.861 148.913C510.671 149.103 510.544 149.419 510.544 149.734C510.544 150.05 510.671 150.303 510.861 150.493C511.113 150.682 511.366 150.808 511.683 150.808C511.999 150.808 512.315 150.682 512.694 150.429Z" fill="#002169"/>
<path d="M514.655 147.776H519.081L515.983 154.662L515.097 154.347L517.627 148.724H514.655V147.776Z" fill="#002169"/>
<path d="M524.139 150.114C524.961 150.114 525.593 150.303 526.036 150.682C526.479 151.061 526.668 151.63 526.668 152.388C526.668 152.704 526.605 153.02 526.479 153.336C526.352 153.589 526.226 153.841 525.973 154.094C525.783 154.284 525.53 154.473 525.277 154.599C525.024 154.726 524.708 154.789 524.329 154.789C524.202 154.789 524.013 154.789 523.886 154.726C523.76 154.663 523.57 154.663 523.38 154.599V157H522.495V150.177H524.139V150.114ZM523.507 150.935V153.715C523.76 153.841 524.076 153.905 524.329 153.905C524.518 153.905 524.708 153.841 524.898 153.778C525.088 153.715 525.214 153.589 525.34 153.462C525.467 153.336 525.593 153.146 525.657 152.957C525.72 152.767 525.783 152.578 525.783 152.325C525.783 152.072 525.72 151.883 525.657 151.693C525.593 151.504 525.467 151.377 525.34 151.251C525.214 151.125 525.024 150.998 524.898 150.935C524.708 150.872 524.518 150.809 524.329 150.809H523.507V150.935Z" fill="#002169"/>
<path d="M529.83 150.05C530.21 150.05 530.526 150.113 530.779 150.24C531.095 150.366 531.348 150.493 531.537 150.745C531.727 150.935 531.917 151.188 532.043 151.503C532.17 151.756 532.233 152.072 532.233 152.451C532.233 152.83 532.17 153.146 532.043 153.399C531.917 153.715 531.727 153.967 531.537 154.157C531.348 154.346 531.095 154.536 530.779 154.662C530.463 154.789 530.146 154.852 529.767 154.852C529.451 154.852 529.071 154.789 528.819 154.662C528.502 154.536 528.249 154.41 528.06 154.157C527.87 153.967 527.68 153.715 527.554 153.399C527.427 153.083 527.364 152.767 527.364 152.451C527.364 152.135 527.427 151.819 527.554 151.567C527.68 151.314 527.87 151.061 528.06 150.808C528.249 150.619 528.502 150.429 528.819 150.303C529.135 150.05 529.451 150.05 529.83 150.05ZM529.767 150.808C529.577 150.808 529.388 150.872 529.198 150.935C529.008 150.998 528.882 151.124 528.755 151.251C528.629 151.377 528.502 151.567 528.439 151.693C528.376 151.882 528.313 152.072 528.313 152.262C528.313 152.514 528.376 152.704 528.439 152.893C528.502 153.083 528.629 153.272 528.755 153.399C528.882 153.525 529.008 153.652 529.198 153.715C529.388 153.778 529.577 153.841 529.767 153.841C530.02 153.841 530.21 153.778 530.399 153.715C530.589 153.652 530.779 153.525 530.905 153.399C531.032 153.272 531.158 153.083 531.221 152.893C531.285 152.704 531.348 152.451 531.348 152.262C531.348 152.072 531.285 151.819 531.221 151.63C531.158 151.44 531.032 151.314 530.905 151.124C530.779 150.998 530.589 150.872 530.399 150.808C530.21 150.872 530.02 150.808 529.767 150.808Z" fill="#002169"/>
<path d="M534.256 151.946C534.446 151.946 534.636 151.882 534.762 151.819C534.889 151.693 535.015 151.567 535.142 151.377L535.394 150.872C535.458 150.745 535.521 150.619 535.647 150.556C535.711 150.492 535.774 150.366 535.9 150.366C535.964 150.303 536.09 150.303 536.153 150.24C536.28 150.24 536.343 150.24 536.533 150.24H536.722V151.061H536.533C536.406 151.061 536.343 151.061 536.28 151.124C536.216 151.187 536.153 151.251 536.09 151.377L535.837 151.756C535.774 151.882 535.711 151.946 535.647 152.009C535.584 152.072 535.521 152.135 535.458 152.198C535.394 152.261 535.331 152.261 535.268 152.325C535.205 152.388 535.142 152.388 535.078 152.388C535.205 152.451 535.268 152.451 535.394 152.514C535.458 152.577 535.584 152.641 535.647 152.704C535.711 152.767 535.837 152.893 535.9 153.02C535.964 153.146 536.09 153.272 536.153 153.462L536.849 154.725H535.837L535.205 153.525C535.078 153.272 534.889 153.02 534.699 152.956C534.509 152.83 534.32 152.767 534.193 152.767H534.067V154.725H533.245V150.24H534.13V152.072H534.256V151.946Z" fill="#002169"/>
<path d="M541.401 150.114L538.176 156.937H537.165L538.746 153.652L536.975 150.114H537.987L539.188 152.641L540.39 150.114H541.401Z" fill="#002169"/>
<path d="M517.5 118.903C484.683 118.903 458 92.2414 458 59.4515V0H517.5C550.317 0 577 26.6616 577 59.4515C577 92.2414 550.317 118.903 517.5 118.903ZM461.288 3.28531V59.4515C461.288 90.4093 486.517 115.618 517.5 115.618C548.483 115.618 573.712 90.4093 573.712 59.4515C573.712 28.4938 548.483 3.28531 517.5 3.28531H461.288Z" fill="#002169"/>
<path d="M488.793 72.7193C488.793 73.3511 488.667 73.8565 488.477 74.3619C488.287 74.8673 487.971 75.3096 487.529 75.6887C487.086 76.0678 486.58 76.3205 485.948 76.5732C485.315 76.7627 484.493 76.8891 483.482 76.8891H480.004C479.751 76.8891 479.562 76.8259 479.435 76.6995C479.309 76.5732 479.182 76.3205 479.182 76.0046V64.3164C479.182 64.0006 479.245 63.811 479.435 63.6847C479.562 63.5583 479.751 63.4951 480.004 63.4951H487.529C487.592 63.4951 487.655 63.4951 487.718 63.5583C487.781 63.6215 487.845 63.6215 487.845 63.7478C487.908 63.811 487.908 63.9374 487.908 64.0637C487.908 64.1901 487.908 64.3796 487.908 64.5692C487.908 64.7587 487.908 64.9482 487.908 65.0746C487.908 65.201 487.845 65.3273 487.845 65.3905C487.781 65.4537 487.781 65.5168 487.718 65.58C487.655 65.6432 487.592 65.6432 487.529 65.6432H481.901V68.9917H484.114C484.999 68.9917 485.695 69.0549 486.201 69.2444C486.77 69.4339 487.212 69.6867 487.592 70.0026C487.971 70.3185 488.287 70.6975 488.477 71.203C488.73 71.582 488.793 72.1506 488.793 72.7193ZM486.074 72.9088C486.074 72.5929 486.011 72.3402 485.948 72.0875C485.821 71.8348 485.695 71.6452 485.505 71.4557C485.315 71.2661 485.063 71.1398 484.81 71.0766C484.494 71.0134 484.114 70.9502 483.672 70.9502H481.964V74.8042H483.735C484.177 74.8042 484.557 74.741 484.81 74.6778C485.063 74.6146 485.315 74.4883 485.505 74.2987C485.695 74.1092 485.821 73.9197 485.948 73.6669C486.011 73.4774 486.074 73.2247 486.074 72.9088Z" fill="#002169"/>
<path d="M496.444 73.2244C496.128 73.9825 495.875 74.6143 495.559 75.1198C495.243 75.6252 494.927 76.0043 494.61 76.3202C494.294 76.6361 493.915 76.8256 493.536 76.952C493.156 77.0783 492.714 77.1415 492.208 77.1415C492.018 77.1415 491.828 77.1415 491.639 77.0783C491.449 77.0783 491.322 77.0151 491.133 76.952C491.006 76.8888 490.817 76.8888 490.753 76.8256C490.627 76.7624 490.564 76.6992 490.5 76.6992C490.437 76.6361 490.374 76.5729 490.374 76.5097C490.311 76.4465 490.311 76.3833 490.311 76.257C490.311 76.1306 490.248 76.0675 490.248 75.8779C490.248 75.7516 490.248 75.562 490.248 75.3093C490.248 74.9302 490.248 74.6143 490.311 74.4248C490.374 74.2353 490.437 74.1721 490.564 74.1721C490.627 74.1721 490.69 74.1721 490.753 74.2353C490.817 74.2984 490.943 74.3616 491.006 74.3616C491.133 74.4248 491.259 74.488 491.386 74.488C491.512 74.5512 491.702 74.5512 491.892 74.5512C492.018 74.5512 492.144 74.5512 492.271 74.488C492.397 74.4248 492.524 74.4248 492.65 74.2984C492.777 74.2353 492.84 74.1089 492.966 73.9194C493.093 73.7298 493.219 73.5403 493.346 73.2876L488.92 64.4425C488.793 64.253 488.793 64.0634 488.73 63.9371C488.73 63.8107 488.73 63.6844 488.856 63.6212C488.92 63.558 489.046 63.4948 489.299 63.4948C489.489 63.4948 489.742 63.4316 490.058 63.4316C490.374 63.4316 490.627 63.4316 490.817 63.4316C491.006 63.4316 491.133 63.4948 491.259 63.4948C491.386 63.558 491.449 63.6212 491.512 63.6844C491.575 63.7475 491.639 63.8739 491.702 64.0003L493.599 68.1069C493.788 68.5491 493.978 68.9914 494.168 69.4337C494.358 69.8759 494.547 70.3182 494.674 70.7604C494.8 70.3182 494.927 69.8127 495.116 69.4337C495.243 68.9914 495.432 68.5491 495.622 68.0437L497.14 63.9371C497.203 63.8107 497.203 63.7475 497.266 63.6844C497.329 63.6212 497.393 63.558 497.519 63.558C497.645 63.4948 497.772 63.4948 497.962 63.4948C498.151 63.4948 498.404 63.4948 498.72 63.4948C499.037 63.4948 499.289 63.4948 499.479 63.558C499.669 63.558 499.795 63.6212 499.859 63.6844C499.922 63.7475 499.985 63.8107 499.985 63.9371C499.985 64.0634 499.922 64.1898 499.859 64.3161L496.444 73.2244Z" fill="#002169"/>
<path d="M510.292 75.8779C510.355 76.1306 510.418 76.3202 510.418 76.4465C510.418 76.5729 510.418 76.6992 510.355 76.7624C510.292 76.8256 510.165 76.8888 509.975 76.8888C509.786 76.8888 509.533 76.8888 509.217 76.8888C508.837 76.8888 508.584 76.8888 508.395 76.8888C508.205 76.8888 508.079 76.8888 507.952 76.8256C507.826 76.7624 507.762 76.7624 507.762 76.6992C507.699 76.6361 507.699 76.5729 507.636 76.5097L506.751 73.793H501.756L500.934 76.4465C500.934 76.5729 500.87 76.6361 500.807 76.6992C500.744 76.7624 500.681 76.8256 500.617 76.8256C500.491 76.8888 500.364 76.8888 500.175 76.8888C499.985 76.8888 499.732 76.8888 499.479 76.8888C499.163 76.8888 498.91 76.8888 498.72 76.8888C498.531 76.8888 498.404 76.8256 498.341 76.7624C498.278 76.6992 498.278 76.5729 498.278 76.4465C498.278 76.3202 498.341 76.1306 498.404 75.8779L502.514 63.9371C502.578 63.8107 502.578 63.7475 502.641 63.6844C502.704 63.6212 502.767 63.558 502.894 63.4948C503.02 63.4316 503.21 63.4316 503.4 63.4316C503.589 63.4316 503.905 63.4316 504.222 63.4316C504.601 63.4316 504.917 63.4316 505.17 63.4316C505.423 63.4316 505.613 63.4948 505.739 63.4948C505.866 63.558 505.992 63.6212 506.055 63.6844C506.118 63.7475 506.182 63.8739 506.182 64.0003L510.292 75.8779ZM504.222 66.022L502.325 71.7713H506.118L504.222 66.022Z" fill="#002169"/>
<path d="M520.219 74.8674C520.219 75.057 520.219 75.1833 520.219 75.3097C520.219 75.436 520.219 75.5624 520.156 75.6256C520.156 75.6888 520.093 75.8151 520.093 75.8783C520.03 75.9415 520.03 76.0047 519.903 76.0678C519.84 76.131 519.713 76.2574 519.46 76.3837C519.271 76.5101 518.955 76.6364 518.638 76.7628C518.322 76.8892 517.943 76.9523 517.564 77.0787C517.184 77.1419 516.742 77.2051 516.236 77.2051C515.35 77.2051 514.528 77.0787 513.77 76.7628C513.011 76.5101 512.442 76.0678 511.873 75.4992C511.367 74.9306 510.988 74.2356 510.671 73.3511C510.418 72.5298 510.292 71.5189 510.292 70.3817C510.292 69.2445 510.418 68.2336 510.735 67.3491C511.051 66.4646 511.43 65.7065 511.999 65.1379C512.568 64.5061 513.201 64.0638 513.959 63.7479C514.718 63.432 515.54 63.3057 516.489 63.3057C516.868 63.3057 517.184 63.3057 517.564 63.3688C517.88 63.432 518.196 63.4952 518.512 63.6216C518.828 63.7479 519.081 63.8111 519.271 64.0006C519.524 64.127 519.65 64.2534 519.777 64.3165C519.84 64.4429 519.903 64.5061 519.966 64.5692C520.03 64.6324 520.03 64.6956 520.03 64.822C520.03 64.9483 520.093 65.0115 520.093 65.1379C520.093 65.2642 520.093 65.4538 520.093 65.6433C520.093 65.8328 520.093 66.0224 520.093 66.1487C520.093 66.2751 520.03 66.4014 520.03 66.5278C519.966 66.591 519.966 66.6542 519.903 66.7173C519.84 66.7805 519.777 66.7805 519.713 66.7805C519.587 66.7805 519.46 66.7173 519.334 66.591C519.144 66.4646 518.955 66.3383 518.702 66.2119C518.449 66.0855 518.133 65.9592 517.816 65.8328C517.5 65.7065 517.058 65.6433 516.552 65.6433C516.046 65.6433 515.54 65.7696 515.161 65.9592C514.718 66.1487 514.402 66.4646 514.086 66.9069C513.77 67.2859 513.58 67.7914 513.454 68.36C513.327 68.9286 513.201 69.5604 513.201 70.3185C513.201 71.1399 513.264 71.7717 513.454 72.4035C513.643 72.9721 513.833 73.4775 514.149 73.8566C514.465 74.2356 514.781 74.4884 515.224 74.6779C515.667 74.8674 516.109 74.9306 516.678 74.9306C517.184 74.9306 517.564 74.8674 517.943 74.7411C518.322 74.6147 518.575 74.4884 518.828 74.362C519.081 74.2356 519.271 74.1093 519.46 73.9829C519.65 73.8566 519.777 73.7934 519.84 73.7934C519.903 73.7934 519.966 73.7934 520.03 73.8566C520.093 73.8566 520.093 73.9197 520.156 74.0461C520.156 74.1093 520.219 74.2356 520.219 74.4252C520.219 74.4252 520.219 74.6147 520.219 74.8674Z" fill="#002169"/>
<path d="M530.652 74.8674C530.652 75.057 530.652 75.1833 530.652 75.3097C530.652 75.436 530.652 75.5624 530.589 75.6256C530.589 75.6888 530.526 75.8151 530.526 75.8783C530.463 75.9415 530.463 76.0047 530.336 76.0678C530.273 76.131 530.083 76.2574 529.894 76.3837C529.704 76.5101 529.388 76.6364 529.072 76.7628C528.755 76.8892 528.376 76.9523 527.997 77.0787C527.617 77.1419 527.175 77.2051 526.669 77.2051C525.784 77.2051 524.962 77.0787 524.203 76.7628C523.444 76.5101 522.875 76.0678 522.306 75.4992C521.8 74.9306 521.421 74.2356 521.104 73.3511C520.852 72.5298 520.725 71.5189 520.725 70.3817C520.725 69.2445 520.852 68.2336 521.168 67.3491C521.484 66.4646 521.863 65.7065 522.432 65.1379C523.001 64.5061 523.634 64.0638 524.392 63.7479C525.151 63.432 525.973 63.3057 526.922 63.3057C527.301 63.3057 527.617 63.3057 527.997 63.3688C528.313 63.432 528.629 63.4952 528.945 63.6216C529.261 63.7479 529.514 63.8111 529.704 64.0006C529.957 64.127 530.083 64.2534 530.21 64.3165C530.273 64.4429 530.336 64.5061 530.399 64.5692C530.463 64.6324 530.463 64.6956 530.463 64.822C530.463 64.9483 530.526 65.0115 530.526 65.1379C530.526 65.2642 530.526 65.4538 530.526 65.6433C530.526 65.8328 530.526 66.0224 530.526 66.1487C530.526 66.2751 530.463 66.4014 530.463 66.5278C530.399 66.591 530.399 66.6542 530.336 66.7173C530.273 66.7805 530.21 66.7805 530.146 66.7805C530.02 66.7805 529.894 66.7173 529.767 66.591C529.577 66.4646 529.388 66.3383 529.135 66.2119C528.882 66.0855 528.566 65.9592 528.25 65.8328C527.933 65.7065 527.491 65.6433 526.985 65.6433C526.479 65.6433 525.973 65.7696 525.594 65.9592C525.151 66.1487 524.835 66.4646 524.519 66.9069C524.203 67.2859 524.013 67.7914 523.887 68.36C523.76 68.9286 523.634 69.5604 523.634 70.3185C523.634 71.1399 523.697 71.7717 523.887 72.4035C524.076 72.9721 524.266 73.4775 524.582 73.8566C524.898 74.2356 525.214 74.4884 525.657 74.6779C526.1 74.8674 526.542 74.9306 527.048 74.9306C527.554 74.9306 527.933 74.8674 528.313 74.7411C528.692 74.6147 528.945 74.4884 529.198 74.362C529.451 74.2356 529.641 74.1093 529.83 73.9829C530.02 73.8566 530.146 73.7934 530.21 73.7934C530.273 73.7934 530.336 73.7934 530.399 73.8566C530.463 73.8566 530.463 73.9197 530.526 74.0461C530.526 74.1093 530.589 74.2356 530.589 74.4252C530.652 74.4252 530.652 74.6147 530.652 74.8674Z" fill="#002169"/>
<path d="M543.994 70.0022C543.994 71.1395 543.867 72.0872 543.614 72.9717C543.361 73.8562 542.919 74.6143 542.413 75.1829C541.844 75.8147 541.212 76.257 540.39 76.5729C539.568 76.8888 538.682 77.0783 537.607 77.0783C536.596 77.0783 535.647 76.9519 534.889 76.6992C534.13 76.4465 533.497 76.0043 532.992 75.4356C532.486 74.867 532.106 74.1721 531.854 73.2876C531.601 72.403 531.474 71.3922 531.474 70.1918C531.474 69.1177 531.601 68.1069 531.854 67.2224C532.106 66.3379 532.549 65.6429 533.055 65.0111C533.624 64.3793 534.256 63.937 535.078 63.6212C535.9 63.3053 536.785 63.1157 537.86 63.1157C538.872 63.1157 539.757 63.2421 540.516 63.4948C541.275 63.7475 541.907 64.1898 542.476 64.7584C542.982 65.327 543.361 66.022 543.678 66.9065C543.867 67.8542 543.994 68.865 543.994 70.0022ZM541.148 70.1918C541.148 69.4968 541.085 68.865 540.959 68.2332C540.832 67.6646 540.643 67.1592 540.39 66.7169C540.137 66.2747 539.757 65.9588 539.315 65.7692C538.872 65.5165 538.303 65.4533 537.671 65.4533C537.038 65.4533 536.469 65.5797 536.027 65.8324C535.584 66.0851 535.205 66.401 534.952 66.8433C534.699 67.2855 534.509 67.791 534.383 68.2964C534.256 68.865 534.193 69.4336 534.193 70.0654C534.193 70.8236 534.256 71.4554 534.383 72.024C534.509 72.5926 534.699 73.098 534.952 73.5403C535.205 73.9825 535.584 74.2984 536.027 74.488C536.469 74.6775 537.038 74.8039 537.671 74.8039C538.366 74.8039 538.872 74.6775 539.315 74.4248C539.757 74.1721 540.137 73.8562 540.39 73.4139C540.643 72.9717 540.832 72.4662 540.959 71.8976C541.148 71.4554 541.148 70.8236 541.148 70.1918Z" fill="#002169"/>
<path d="M556.134 76.5099C556.134 76.5731 556.134 76.6363 556.071 76.6994C556.007 76.7626 555.944 76.8258 555.881 76.8258C555.754 76.889 555.628 76.889 555.501 76.889C555.312 76.889 555.122 76.889 554.869 76.889C554.616 76.889 554.363 76.889 554.237 76.889C554.047 76.889 553.921 76.8258 553.857 76.8258C553.731 76.7626 553.668 76.7626 553.668 76.6994C553.605 76.6363 553.605 76.5731 553.605 76.5099V71.0765H548.42V76.5099C548.42 76.5731 548.42 76.6363 548.356 76.6994C548.293 76.7626 548.23 76.8258 548.167 76.8258C548.04 76.889 547.914 76.889 547.787 76.889C547.598 76.889 547.408 76.889 547.155 76.889C546.902 76.889 546.649 76.889 546.523 76.889C546.333 76.889 546.207 76.8258 546.08 76.8258C545.954 76.7626 545.89 76.7626 545.89 76.6994C545.827 76.6363 545.827 76.5731 545.827 76.5099V63.8109C545.827 63.7477 545.827 63.6845 545.89 63.6214C545.954 63.5582 546.017 63.495 546.08 63.495C546.207 63.4318 546.333 63.4318 546.523 63.4318C546.712 63.4318 546.902 63.3687 547.155 63.3687C547.408 63.3687 547.661 63.3687 547.787 63.4318C547.977 63.4318 548.103 63.495 548.167 63.495C548.293 63.5582 548.356 63.5582 548.356 63.6214C548.42 63.6845 548.42 63.7477 548.42 63.8109V68.7389H553.415V63.8109C553.415 63.7477 553.415 63.6845 553.478 63.6214C553.541 63.5582 553.605 63.495 553.668 63.495C553.794 63.4318 553.921 63.4318 554.047 63.4318C554.237 63.4318 554.427 63.3687 554.679 63.3687C554.932 63.3687 555.185 63.3687 555.312 63.4318C555.501 63.4318 555.628 63.495 555.691 63.495C555.818 63.5582 555.881 63.5582 555.881 63.6214C555.944 63.6845 555.944 63.7477 555.944 63.8109V76.5099H556.134Z" fill="#002169"/>
<path d="M528.755 24.5767C529.197 24.5767 529.64 24.703 530.019 24.8926C530.462 25.1453 530.778 25.4612 530.968 25.8402C531.221 26.2825 531.284 26.7247 531.284 27.167C531.284 27.6093 531.158 28.0515 530.968 28.4938C530.715 28.936 530.399 29.2519 530.019 29.5046C529.577 29.7573 529.197 29.8837 528.755 29.8837C528.312 29.8837 527.87 29.7573 527.49 29.5046C527.048 29.2519 526.731 28.936 526.542 28.4938C526.289 28.0515 526.226 27.6093 526.226 27.167C526.226 26.7247 526.352 26.2825 526.542 25.8402C526.795 25.398 527.111 25.0821 527.49 24.8926C527.87 24.703 528.312 24.5767 528.755 24.5767ZM528.755 25.0189C528.375 25.0189 528.059 25.0821 527.68 25.3348C527.301 25.5243 527.048 25.7771 526.858 26.1561C526.668 26.5352 526.542 26.8511 526.542 27.2302C526.542 27.6093 526.668 27.9883 526.858 28.3042C527.048 28.6201 527.301 28.936 527.68 29.1256C527.996 29.3151 528.375 29.4414 528.755 29.4414C529.134 29.4414 529.514 29.3151 529.83 29.1256C530.146 28.936 530.462 28.6833 530.652 28.3042C530.841 27.9252 530.968 27.6093 530.968 27.2302C530.968 26.8511 530.841 26.472 530.652 26.1561C530.462 25.7771 530.209 25.5243 529.83 25.3348C529.45 25.0821 529.134 25.0189 528.755 25.0189ZM527.743 28.6201V25.7139H528.755C529.071 25.7139 529.324 25.7139 529.514 25.7771C529.64 25.8402 529.766 25.9034 529.893 26.0298C529.956 26.1561 530.019 26.2825 530.019 26.472C530.019 26.6616 529.956 26.8511 529.766 27.0406C529.64 27.167 529.387 27.2934 529.134 27.2934C529.261 27.3565 529.324 27.4197 529.387 27.4197C529.514 27.5461 529.64 27.7356 529.83 27.9883L530.209 28.5569H529.64L529.387 28.1147C529.197 27.7356 529.008 27.5461 528.881 27.4197C528.818 27.3565 528.692 27.2934 528.502 27.3565H528.249V28.6201H527.743ZM528.249 26.9775H528.818C529.071 26.9775 529.261 26.9143 529.387 26.8511C529.514 26.7879 529.514 26.6616 529.514 26.5352C529.514 26.472 529.514 26.3457 529.45 26.2825C529.387 26.2193 529.324 26.1561 529.261 26.1561C529.197 26.093 529.008 26.093 528.818 26.093H528.312V26.9775H528.249Z" fill="#002169"/>
<path d="M516.046 22.8076C516.046 22.8076 501.439 35.1275 501.439 45.7416C501.439 56.3557 507.952 60.3992 516.046 60.3992C524.076 60.3992 530.652 56.4189 530.652 45.7416C530.589 35.1275 516.046 22.8076 516.046 22.8076ZM516.046 57.177C510.418 57.177 504.601 54.5235 504.601 46.1839C504.601 38.7287 512.884 30.5155 512.884 30.5155C512.884 30.5155 511.873 35.2539 516.931 42.0772C519.081 44.9835 522.116 47.5738 522.116 51.4277C522.116 53.7022 520.535 57.177 516.046 57.177Z" fill="#002169"/>
<path d="M499.163 49.5325C499.163 50.7961 498.973 51.9333 498.531 53.0074C498.088 54.0814 497.456 54.9659 496.634 55.7241C495.812 56.4822 494.737 57.114 493.409 57.5562C492.144 57.9985 490.437 58.188 488.414 58.188H480.573C480.067 58.188 479.688 58.0617 479.372 57.7458C479.056 57.4931 478.929 56.9876 478.929 56.2927V32.0319C478.929 31.4001 479.056 30.9579 479.372 30.642C479.688 30.3892 480.067 30.1997 480.51 30.1997H498.025C498.215 30.1997 498.341 30.3261 498.404 30.4524C498.467 30.5788 498.531 30.7051 498.531 30.9579C498.531 31.1474 498.531 31.4001 498.404 31.716C498.341 32.0319 498.215 32.3478 498.025 32.79C497.898 33.1691 497.772 33.4218 497.645 33.6746C497.519 33.9273 497.329 34.1168 497.203 34.3063C497.076 34.4327 496.76 34.6854 496.318 34.6854H484.304V41.6351H489.615C491.322 41.6351 492.777 41.8247 493.915 42.1406C495.053 42.5196 496.001 43.0251 496.76 43.6568C497.519 44.3518 498.151 45.1731 498.531 46.1208C498.973 47.1949 499.163 48.3321 499.163 49.5325ZM493.599 49.9116C493.599 49.2798 493.472 48.7112 493.283 48.2057C493.093 47.7003 492.777 47.2581 492.461 46.9422C492.081 46.5631 491.575 46.3104 491.006 46.1208C490.437 45.9313 489.615 45.8681 488.667 45.8681H484.367V53.955H488.73C489.615 53.955 490.374 53.8919 490.943 53.7023C491.512 53.5128 492.018 53.2601 492.397 52.9442C492.777 52.6283 493.093 52.186 493.346 51.6806C493.535 51.112 493.599 50.5434 493.599 49.9116Z" fill="#002169"/>
<path d="M556.134 57.4933C556.134 57.6196 556.071 57.746 556.008 57.8723C555.944 57.9987 555.755 58.0619 555.565 58.125C555.375 58.1882 555.059 58.2514 554.68 58.3146C554.3 58.3778 553.858 58.3778 553.289 58.3778C552.72 58.3778 552.277 58.3778 551.898 58.3146C551.518 58.2514 551.265 58.1882 551.012 58.125C550.823 58.0619 550.633 57.9355 550.57 57.8723C550.507 57.746 550.443 57.6196 550.443 57.4933V46.121H538.935V57.4933C538.935 57.6196 538.872 57.746 538.809 57.8723C538.746 57.9987 538.556 58.0619 538.366 58.125C538.177 58.1882 537.86 58.2514 537.481 58.3146C537.102 58.3778 536.659 58.3778 536.09 58.3778C535.521 58.3778 535.078 58.3778 534.699 58.3146C534.32 58.2514 534.067 58.1882 533.814 58.125C533.624 58.0619 533.434 57.9355 533.371 57.8723C533.308 57.746 533.245 57.6196 533.245 57.4933V31.0212C533.245 30.8949 533.308 30.7685 533.371 30.6422C533.434 30.5158 533.624 30.4526 533.814 30.3894C534.003 30.3263 534.32 30.2631 534.699 30.1999C535.078 30.1367 535.521 30.1367 536.09 30.1367C536.659 30.1367 537.102 30.1367 537.481 30.1999C537.86 30.2631 538.113 30.3263 538.366 30.3894C538.556 30.4526 538.746 30.579 538.809 30.6422C538.872 30.7685 538.935 30.8949 538.935 31.0212V41.3194H550.443V31.0212C550.443 30.8949 550.507 30.7685 550.57 30.6422C550.633 30.5158 550.823 30.4526 551.012 30.3894C551.202 30.3263 551.518 30.2631 551.898 30.1999C552.277 30.1367 552.72 30.1367 553.289 30.1367C553.858 30.1367 554.3 30.1367 554.68 30.1999C555.059 30.2631 555.312 30.3263 555.565 30.3894C555.755 30.4526 555.944 30.579 556.008 30.6422C556.071 30.7685 556.134 30.8949 556.134 31.0212V57.4933Z" fill="#002169"/>
<path d="M490.311 96.1585V87.8188H495.369V88.8929H491.449V91.1673H493.03C493.473 91.1673 493.852 91.2305 494.168 91.3569C494.547 91.4832 494.8 91.6096 495.053 91.8623C495.306 92.0518 495.496 92.3677 495.622 92.6205C495.749 92.9364 495.812 93.3154 495.812 93.6945C495.812 94.0736 495.749 94.4527 495.622 94.7685C495.496 95.0844 495.306 95.3372 495.053 95.5267C494.8 95.7162 494.484 95.9058 494.168 96.0321C493.789 96.1585 493.409 96.2217 493.03 96.2217H490.311V96.1585ZM491.449 92.2414V95.0844H493.22C493.473 95.0844 493.662 95.0213 493.852 94.9581C494.042 94.8949 494.231 94.7685 494.358 94.6422C494.484 94.5158 494.611 94.3895 494.674 94.1999C494.737 94.0104 494.8 93.8209 494.8 93.6313C494.8 93.1891 494.674 92.81 494.358 92.5573C494.042 92.3046 493.599 92.1782 493.03 92.1782H491.449V92.2414Z" fill="#002169"/>
<path d="M502.135 87.8188V88.8929H498.784V91.4201H502.072V92.4941H498.784V95.0844H502.261V96.1585H497.646V87.8188H502.135Z" fill="#002169"/>
<path d="M503.969 96.1585V87.8188H506.245C506.688 87.8188 507.067 87.882 507.32 88.0084C507.636 88.1347 507.889 88.3243 508.079 88.5138C508.268 88.7034 508.395 88.9561 508.521 89.2088C508.648 89.4615 508.648 89.7142 508.648 89.9669C508.648 90.4092 508.521 90.7883 508.332 91.041C508.142 91.3569 507.826 91.5464 507.383 91.7359C507.699 91.7991 507.952 91.8623 508.205 91.9887C508.458 92.115 508.648 92.3046 508.838 92.4309C509.027 92.6205 509.154 92.81 509.217 93.0627C509.28 93.3154 509.343 93.5681 509.343 93.8209C509.343 94.0736 509.28 94.3263 509.217 94.579C509.09 94.8317 508.964 95.0844 508.774 95.274C508.585 95.4635 508.268 95.6531 507.952 95.7794C507.636 95.9058 507.194 95.9689 506.688 95.9689H503.969V96.1585ZM505.107 88.8929V91.4201H505.866C506.435 91.4201 506.877 91.2937 507.13 91.1042C507.383 90.9146 507.51 90.5356 507.51 90.0933C507.51 89.9669 507.51 89.7774 507.446 89.651C507.383 89.5247 507.32 89.3983 507.194 89.272C507.067 89.1456 506.941 89.0824 506.751 89.0192C506.561 88.9561 506.372 88.8929 506.119 88.8929H505.107ZM505.107 92.4941V95.1476H506.561C506.877 95.1476 507.194 95.0844 507.383 95.0213C507.573 94.9581 507.763 94.8317 507.889 94.7054C508.016 94.579 508.079 94.4526 508.142 94.2631C508.205 94.1368 508.205 93.9472 508.205 93.8209C508.205 93.6313 508.142 93.4418 508.079 93.3154C508.016 93.1891 507.889 92.9995 507.763 92.9364C507.636 92.81 507.446 92.7468 507.194 92.6836C507.004 92.6205 506.688 92.5573 506.435 92.5573H505.107V92.4941Z" fill="#002169"/>
<path d="M515.477 87.8188V88.8929H512.125V91.4201H515.35V92.4941H512.125V95.0844H515.603V96.1585H510.987V87.8188H515.477Z" fill="#002169"/>
<path d="M517.184 87.8188H519.65C520.092 87.8188 520.472 87.882 520.788 88.0084C521.104 88.1347 521.357 88.3243 521.547 88.5138C521.736 88.7034 521.926 88.9561 521.989 89.272C522.116 89.5879 522.116 89.9038 522.116 90.2197C522.116 90.5355 522.052 90.8514 521.926 91.1673C521.799 91.4832 521.673 91.6728 521.42 91.9255C521.167 92.115 520.914 92.3046 520.598 92.4309C520.282 92.5573 519.839 92.6205 519.397 92.6205H518.195V96.2217H517.057V87.8188H517.184ZM518.322 88.8929V91.4832H519.586C519.776 91.4832 519.966 91.4832 520.155 91.4201C520.345 91.3569 520.472 91.2937 520.598 91.1673C520.725 91.041 520.788 90.9146 520.851 90.7251C520.914 90.5356 520.977 90.346 520.977 90.1565C520.977 90.0301 520.977 89.8406 520.914 89.7142C520.851 89.5879 520.788 89.3983 520.661 89.272C520.535 89.1456 520.408 89.0824 520.219 88.9561C520.029 88.8929 519.839 88.8297 519.586 88.8297H518.322V88.8929Z" fill="#002169"/>
<path d="M524.835 87.8188H523.697V96.2217H524.835V87.8188Z" fill="#002169"/>
<path d="M533.877 95.0846V97.675H532.739V96.1587H527.49V97.675H526.289V95.0846H526.985L529.577 87.7559H530.399L533.181 95.0846H533.877ZM530.02 89.5249L528.123 95.0846H531.98L530.02 89.5249Z" fill="#002169"/>
<path d="M535.331 87.8188C535.584 87.8188 535.837 87.8189 536.09 87.882C536.279 87.9452 536.532 88.0716 536.659 88.1979C536.849 88.3243 536.975 88.5138 537.165 88.7665C537.291 89.0193 537.481 89.3351 537.607 89.7142C537.734 90.0301 537.86 90.2828 537.987 90.4724C538.113 90.6619 538.24 90.7883 538.366 90.9146C538.493 91.041 538.619 91.1042 538.745 91.1042C538.872 91.1673 538.998 91.1673 539.188 91.1673V87.8188H540.326V91.2305C540.453 91.2305 540.642 91.2305 540.769 91.1673C540.895 91.1042 541.022 91.041 541.148 90.9778C541.275 90.8514 541.401 90.7251 541.528 90.5355C541.654 90.346 541.781 90.0933 541.907 89.7774C542.033 89.3983 542.223 89.0824 542.35 88.8297C542.476 88.577 542.666 88.3875 542.855 88.2611C543.045 88.1347 543.235 88.0084 543.425 87.9452C543.677 87.882 543.867 87.882 544.183 87.882H544.373V88.9561C544.12 88.9561 543.93 88.9561 543.741 89.0192C543.551 89.0824 543.425 89.1456 543.298 89.272C543.172 89.3983 543.108 89.5247 543.045 89.7142C542.982 89.9038 542.919 90.0933 542.792 90.346C542.729 90.4724 542.666 90.6619 542.603 90.7883C542.539 90.9146 542.413 91.1042 542.286 91.2305C542.16 91.3569 542.033 91.4832 541.97 91.6096C541.844 91.736 541.717 91.7991 541.591 91.8623C541.781 91.9255 541.907 91.9887 542.033 92.0518C542.16 92.115 542.286 92.2414 542.35 92.3046C542.476 92.4309 542.539 92.5573 542.666 92.6836C542.792 92.81 542.855 92.9995 542.982 93.2523L544.752 96.2848H543.361L541.907 93.7577C541.781 93.505 541.654 93.3154 541.528 93.1259C541.401 92.9363 541.275 92.81 541.148 92.6836C541.022 92.5573 540.895 92.4941 540.706 92.4309C540.579 92.3677 540.389 92.3677 540.263 92.3677V96.348H539.125V92.3677C538.935 92.3677 538.809 92.3677 538.682 92.4309C538.556 92.4941 538.429 92.5573 538.24 92.6836C538.113 92.81 537.987 92.9363 537.86 93.1259C537.734 93.3154 537.607 93.505 537.481 93.7577L536.027 96.2848H534.699L536.469 93.2523C536.659 92.8732 536.912 92.6205 537.101 92.3677C537.354 92.115 537.607 91.9887 537.86 91.8623C537.734 91.7991 537.607 91.736 537.481 91.6096C537.354 91.4832 537.228 91.3569 537.165 91.2305C537.038 91.1042 536.975 90.9778 536.849 90.7883C536.785 90.6619 536.722 90.4724 536.659 90.346C536.596 90.0933 536.469 89.9038 536.406 89.7142C536.343 89.5247 536.216 89.3983 536.153 89.272C536.027 89.1456 535.9 89.0824 535.71 89.0192C535.521 88.9561 535.331 88.9561 535.078 88.9561V87.8188H535.331Z" fill="#002169"/>
<path d="M5.6 37.452C2.66 37.452 0.616 39.496 0.616 42.338C0.616 45.18 2.66 47.21 5.6 47.21C8.54 47.21 10.584 45.18 10.584 42.338C10.584 39.496 8.54 37.452 5.6 37.452ZM5.6 45.558C3.78 45.558 2.492 44.228 2.492 42.338C2.492 40.448 3.78 39.104 5.6 39.104C7.42 39.104 8.708 40.448 8.708 42.338C8.708 44.228 7.42 45.558 5.6 45.558ZM21.2688 37.662H19.4488V47H21.2688V43.024L21.4788 42.814L24.7968 47H27.2048L23.0468 41.974L26.9948 37.662H24.6988L21.2688 41.61V37.662ZM34.2573 37.452C31.3173 37.452 29.2733 39.496 29.2733 42.338C29.2733 45.18 31.3173 47.21 34.2573 47.21C37.1973 47.21 39.2413 45.18 39.2413 42.338C39.2413 39.496 37.1973 37.452 34.2573 37.452ZM34.2573 45.558C32.4373 45.558 31.1493 44.228 31.1493 42.338C31.1493 40.448 32.4373 39.104 34.2573 39.104C36.0773 39.104 37.3653 40.448 37.3653 42.338C37.3653 44.228 36.0773 45.558 34.2573 45.558ZM42.4026 47H44.2506L45.2026 41.246L47.5966 47H48.2126L50.7186 41.246L51.5586 47H53.4066L51.8386 37.662H50.5226L47.9326 43.598L45.4546 37.662H44.1386L42.4026 47ZM57.0202 37.662V47H58.8402V39.23H62.5922V47H64.4122V37.662H57.0202ZM74.8519 47H76.8119L72.9059 37.662H71.4779L67.4599 47H69.4339L70.2599 45.04H74.0259L74.8519 47ZM70.8339 43.556L72.1639 40.196L73.4939 43.556H70.8339ZM81.6821 37.662H79.8621V47H81.6821V42.842H85.6301V47H87.4501V37.662H85.6301V41.274H81.6821V37.662ZM91.5428 37.662V47H92.8308L97.9548 40.756V47H99.7748V37.662H98.4868L93.3628 43.878V37.662H91.5428ZM103.866 37.662V47H105.154L110.278 40.756V47H112.098V37.662H110.81L105.686 43.878V37.662H103.866Z" fill="#022169"/>
<path d="M157.064 37.662V47H158.884V39.23H162.636V47H164.456V37.662H157.064ZM168.54 37.662V47H170.36V43.542H171.536C172.614 43.542 173.384 43.234 173.902 42.716C174.616 42.002 174.672 40.994 174.672 40.63C174.672 39.958 174.476 39.048 173.72 38.376C173.034 37.774 172.306 37.662 171.256 37.662H168.54ZM170.36 39.23H170.99C171.424 39.23 171.9 39.258 172.278 39.524C172.544 39.72 172.796 40.07 172.796 40.588C172.796 40.994 172.628 41.414 172.292 41.68C171.9 41.974 171.452 41.974 171.102 41.974H170.36V39.23ZM182.514 37.452C179.574 37.452 177.53 39.496 177.53 42.338C177.53 45.18 179.574 47.21 182.514 47.21C185.454 47.21 187.498 45.18 187.498 42.338C187.498 39.496 185.454 37.452 182.514 37.452ZM182.514 45.558C180.694 45.558 179.406 44.228 179.406 42.338C179.406 40.448 180.694 39.104 182.514 39.104C184.334 39.104 185.622 40.448 185.622 42.338C185.622 44.228 184.334 45.558 182.514 45.558ZM192.031 37.662V41.722C192.031 43.01 191.877 43.71 191.695 44.172C191.415 44.872 190.883 45.46 190.211 45.432V49.1H191.891V47H197.631V49.1H199.311V45.432H198.331V37.662H192.031ZM193.795 39.23H196.511V45.432H192.745C193.011 45.18 193.277 44.844 193.473 44.326C193.641 43.878 193.795 43.164 193.795 41.722V39.23ZM201.438 37.662L204.91 44.396L203.608 47H205.596L209.922 37.662H207.934L205.932 42.366L203.566 37.662H201.438ZM214.799 37.662H212.979V47H214.799V43.024L215.009 42.814L218.327 47H220.735L216.577 41.974L220.525 37.662H218.229L214.799 41.61V37.662ZM223.84 47H230.616V49.1H232.296V45.432H231.176V37.662H229.356V45.432H225.66V37.662H223.84V47ZM235.466 37.662V47H236.754L241.878 40.756V47H243.698V37.662H242.41L237.286 43.878V37.662H235.466ZM253.613 37.662H250.911C250.127 37.662 249.245 37.732 248.517 38.376C248.027 38.81 247.593 39.524 247.593 40.546C247.593 41.624 248.083 42.394 248.643 42.8C248.937 43.01 249.315 43.164 249.665 43.22L246.893 47H249.077L251.457 43.388H251.793V47H253.613V37.662ZM251.793 39.146V41.96H251.261C250.897 41.96 249.469 41.96 249.469 40.546C249.469 39.16 250.897 39.146 251.233 39.146H251.793Z" fill="#333333"/>
<path d="M298.064 37.662V47H299.884V39.23H303.636V47H305.456V37.662H298.064ZM309.54 37.662V47H311.36V43.542H312.536C313.614 43.542 314.384 43.234 314.902 42.716C315.616 42.002 315.672 40.994 315.672 40.63C315.672 39.958 315.476 39.048 314.72 38.376C314.034 37.774 313.306 37.662 312.256 37.662H309.54ZM311.36 39.23H311.99C312.424 39.23 312.9 39.258 313.278 39.524C313.544 39.72 313.796 40.07 313.796 40.588C313.796 40.994 313.628 41.414 313.292 41.68C312.9 41.974 312.452 41.974 312.102 41.974H311.36V39.23ZM323.514 37.452C320.574 37.452 318.53 39.496 318.53 42.338C318.53 45.18 320.574 47.21 323.514 47.21C326.454 47.21 328.498 45.18 328.498 42.338C328.498 39.496 326.454 37.452 323.514 37.452ZM323.514 45.558C321.694 45.558 320.406 44.228 320.406 42.338C320.406 40.448 321.694 39.104 323.514 39.104C325.334 39.104 326.622 40.448 326.622 42.338C326.622 44.228 325.334 45.558 323.514 45.558ZM332.135 37.662V47H333.423L338.547 40.756V47H340.367V37.662H339.079L333.955 43.878V37.662H332.135ZM345.607 39.79C346.209 39.132 347.035 39.048 347.483 39.048C348.365 39.048 348.813 39.454 348.813 40.126C348.813 40.882 348.197 41.316 347.259 41.316H346.419V42.884H347.259C348.015 42.884 349.303 43.01 349.303 44.312C349.303 45.012 348.771 45.698 347.511 45.698C346.629 45.698 345.593 45.306 345.145 44.312L343.955 45.446C344.627 46.538 345.831 47.21 347.469 47.21C349.625 47.21 351.179 46.048 351.179 44.27C351.179 43.136 350.591 42.156 349.443 41.862C350.199 41.442 350.591 40.7 350.591 39.888C350.591 38.418 349.415 37.452 347.525 37.452C346.349 37.452 345.467 37.816 344.655 38.544L345.607 39.79ZM354.813 37.662V47H357.949C358.761 47 359.615 46.86 360.315 46.244C360.959 45.67 361.113 44.9 361.113 44.354C361.113 43.864 361.001 43.136 360.441 42.604C360.203 42.38 359.839 42.114 359.223 42.016C359.475 41.876 360.273 41.386 360.273 40.182C360.273 39.398 359.951 38.67 359.405 38.25C358.649 37.662 357.641 37.662 357.123 37.662H354.813ZM356.633 39.146H357.165C357.907 39.146 358.565 39.468 358.565 40.322C358.565 41.512 357.431 41.54 357.151 41.54H356.633V39.146ZM356.633 42.94H357.305C357.697 42.94 358.159 42.94 358.551 43.122C359.139 43.388 359.237 43.892 359.237 44.186C359.237 44.55 359.111 44.998 358.663 45.264C358.257 45.502 357.753 45.516 357.417 45.516H356.633V42.94ZM369.294 37.452C366.354 37.452 364.31 39.496 364.31 42.338C364.31 45.18 366.354 47.21 369.294 47.21C372.234 47.21 374.278 45.18 374.278 42.338C374.278 39.496 372.234 37.452 369.294 37.452ZM369.294 45.558C367.474 45.558 366.186 44.228 366.186 42.338C366.186 40.448 367.474 39.104 369.294 39.104C371.114 39.104 372.402 40.448 372.402 42.338C372.402 44.228 371.114 45.558 369.294 45.558ZM378.811 37.662V41.722C378.811 43.01 378.657 43.71 378.475 44.172C378.195 44.872 377.663 45.46 376.991 45.432V49.1H378.671V47H384.411V49.1H386.091V45.432H385.111V37.662H378.811ZM380.575 39.23H383.291V45.432H379.525C379.791 45.18 380.057 44.844 380.253 44.326C380.421 43.878 380.575 43.164 380.575 41.722V39.23ZM396.03 44.536C395.484 45.18 394.714 45.558 393.846 45.558C392.278 45.558 390.682 44.438 390.682 42.366C390.682 40.644 391.9 39.104 393.776 39.104C394.112 39.104 395.176 39.174 396.03 40.154V38.026C395.176 37.564 394.392 37.452 393.734 37.452C392.404 37.452 391.242 37.802 390.304 38.684C389.506 39.426 388.806 40.644 388.806 42.338C388.806 43.71 389.226 44.872 390.304 45.908C391.088 46.65 392.082 47.21 393.72 47.21C394.728 47.21 395.47 46.958 396.03 46.664V44.536ZM405.154 39.23V37.662H399.134V39.23H401.234V47H403.054V39.23H405.154ZM408.268 37.662V47H411.404C412.216 47 413.07 46.86 413.77 46.244C414.414 45.67 414.568 44.9 414.568 44.354C414.568 43.864 414.456 43.136 413.896 42.604C413.658 42.38 413.294 42.114 412.678 42.016C412.93 41.876 413.728 41.386 413.728 40.182C413.728 39.398 413.406 38.67 412.86 38.25C412.104 37.662 411.096 37.662 410.578 37.662H408.268ZM410.088 39.146H410.62C411.362 39.146 412.02 39.468 412.02 40.322C412.02 41.512 410.886 41.54 410.606 41.54H410.088V39.146ZM410.088 42.94H410.76C411.152 42.94 411.614 42.94 412.006 43.122C412.594 43.388 412.692 43.892 412.692 44.186C412.692 44.55 412.566 44.998 412.118 45.264C411.712 45.502 411.208 45.516 410.872 45.516H410.088V42.94ZM422.748 37.452C419.808 37.452 417.764 39.496 417.764 42.338C417.764 45.18 419.808 47.21 422.748 47.21C425.688 47.21 427.732 45.18 427.732 42.338C427.732 39.496 425.688 37.452 422.748 37.452ZM422.748 45.558C420.928 45.558 419.64 44.228 419.64 42.338C419.64 40.448 420.928 39.104 422.748 39.104C424.568 39.104 425.856 40.448 425.856 42.338C425.856 44.228 424.568 45.558 422.748 45.558Z" fill="#333333"/>
<path d="M613.84 44.536C613.294 45.18 612.524 45.558 611.656 45.558C610.088 45.558 608.492 44.438 608.492 42.366C608.492 40.644 609.71 39.104 611.586 39.104C611.922 39.104 612.986 39.174 613.84 40.154V38.026C612.986 37.564 612.202 37.452 611.544 37.452C610.214 37.452 609.052 37.802 608.114 38.684C607.316 39.426 606.616 40.644 606.616 42.338C606.616 43.71 607.036 44.872 608.114 45.908C608.898 46.65 609.892 47.21 611.53 47.21C612.538 47.21 613.28 46.958 613.84 46.664V44.536ZM622.009 37.452C619.069 37.452 617.025 39.496 617.025 42.338C617.025 45.18 619.069 47.21 622.009 47.21C624.949 47.21 626.993 45.18 626.993 42.338C626.993 39.496 624.949 37.452 622.009 37.452ZM622.009 45.558C620.189 45.558 618.901 44.228 618.901 42.338C618.901 40.448 620.189 39.104 622.009 39.104C623.829 39.104 625.117 40.448 625.117 42.338C625.117 44.228 623.829 45.558 622.009 45.558ZM630.63 47H637.406V49.1H639.086V45.432H637.966V37.662H636.146V45.432H632.45V37.662H630.63V47ZM642.257 37.662V47H643.545L648.669 40.756V47H650.489V37.662H649.201L644.077 43.878V37.662H642.257ZM660.936 47H662.896L658.99 37.662H657.562L653.544 47H655.518L656.344 45.04H660.11L660.936 47ZM656.918 43.556L658.248 40.196L659.578 43.556H656.918ZM667.115 37.662V43.01C667.115 43.892 667.129 44.704 666.653 45.18C666.499 45.334 666.233 45.516 665.813 45.516C665.617 45.516 665.435 45.474 665.295 45.432V47C665.547 47.056 665.799 47.084 666.065 47.084C666.975 47.084 667.563 46.776 667.927 46.468C668.963 45.614 668.935 44.34 668.935 43.374V39.23H671.651V47H673.471V37.662H667.115ZM677.558 47H680.848C681.632 47 682.794 46.874 683.494 45.852C683.802 45.404 683.998 44.802 683.998 44.172C683.998 43.276 683.648 42.562 683.13 42.086C682.402 41.414 681.52 41.316 680.834 41.316H679.378V37.662H677.558V47ZM679.378 42.884H680.47C681.814 42.884 682.122 43.584 682.122 44.172C682.122 45.432 680.764 45.432 680.442 45.432H679.378V42.884ZM689.118 37.662H687.298V47H689.118V42.842H693.066V47H694.886V37.662H693.066V41.274H689.118V37.662ZM698.978 47H702.268C703.052 47 704.214 46.874 704.914 45.852C705.222 45.404 705.418 44.802 705.418 44.172C705.418 43.276 705.068 42.562 704.55 42.086C703.822 41.414 702.94 41.316 702.254 41.316H700.798V37.662H698.978V47ZM700.798 42.884H701.89C703.234 42.884 703.542 43.584 703.542 44.172C703.542 45.432 702.184 45.432 701.862 45.432H700.798V42.884ZM706.23 37.662V47H708.05V37.662H706.23ZM717.316 37.662H712.136V47H717.316V45.432H713.956V42.884H717.176V41.316H713.956V39.23H717.316V37.662ZM726.269 37.662V47H728.089V39.23H731.841V47H733.661V37.662H726.269ZM737.744 37.662V47H739.564V43.542H740.74C741.818 43.542 742.588 43.234 743.106 42.716C743.82 42.002 743.876 40.994 743.876 40.63C743.876 39.958 743.68 39.048 742.924 38.376C742.238 37.774 741.51 37.662 740.46 37.662H737.744ZM739.564 39.23H740.194C740.628 39.23 741.104 39.258 741.482 39.524C741.748 39.72 742 40.07 742 40.588C742 40.994 741.832 41.414 741.496 41.68C741.104 41.974 740.656 41.974 740.306 41.974H739.564V39.23ZM751.719 37.452C748.779 37.452 746.735 39.496 746.735 42.338C746.735 45.18 748.779 47.21 751.719 47.21C754.659 47.21 756.703 45.18 756.703 42.338C756.703 39.496 754.659 37.452 751.719 37.452ZM751.719 45.558C749.899 45.558 748.611 44.228 748.611 42.338C748.611 40.448 749.899 39.104 751.719 39.104C753.539 39.104 754.827 40.448 754.827 42.338C754.827 44.228 753.539 45.558 751.719 45.558ZM765.52 37.662H760.34V47H765.52V45.432H762.16V42.884H765.38V41.316H762.16V39.23H765.52V37.662ZM771.065 37.662H769.245V47H771.065V43.024L771.275 42.814L774.593 47H777.001L772.843 41.974L776.791 37.662H774.495L771.065 41.61V37.662ZM785.146 39.23V37.662H779.126V39.23H781.226V47H783.046V39.23H785.146ZM788.259 47H791.549C792.333 47 793.495 46.874 794.195 45.852C794.503 45.404 794.699 44.802 794.699 44.172C794.699 43.276 794.349 42.562 793.831 42.086C793.103 41.414 792.221 41.316 791.535 41.316H790.079V37.662H788.259V47ZM790.079 42.884H791.171C792.515 42.884 792.823 43.584 792.823 44.172C792.823 45.432 791.465 45.432 791.143 45.432H790.079V42.884ZM795.511 37.662V47H797.331V37.662H795.511Z" fill="#333333"/>
<path d="M849.064 37.662V47H850.884V39.23H854.636V47H856.456V37.662H849.064ZM860.54 37.662V47H862.36V43.542H863.536C864.614 43.542 865.384 43.234 865.902 42.716C866.616 42.002 866.672 40.994 866.672 40.63C866.672 39.958 866.476 39.048 865.72 38.376C865.034 37.774 864.306 37.662 863.256 37.662H860.54ZM862.36 39.23H862.99C863.424 39.23 863.9 39.258 864.278 39.524C864.544 39.72 864.796 40.07 864.796 40.588C864.796 40.994 864.628 41.414 864.292 41.68C863.9 41.974 863.452 41.974 863.102 41.974H862.36V39.23ZM875.158 37.662H869.978V47H875.158V45.432H871.798V42.884H875.018V41.316H871.798V39.23H875.158V37.662ZM879.779 37.662V41.722C879.779 43.01 879.625 43.71 879.443 44.172C879.163 44.872 878.631 45.46 877.959 45.432V49.1H879.639V47H885.379V49.1H887.059V45.432H886.079V37.662H879.779ZM881.543 39.23H884.259V45.432H880.493C880.759 45.18 881.025 44.844 881.221 44.326C881.389 43.878 881.543 43.164 881.543 41.722V39.23ZM896.998 44.536C896.452 45.18 895.682 45.558 894.814 45.558C893.246 45.558 891.65 44.438 891.65 42.366C891.65 40.644 892.868 39.104 894.744 39.104C895.08 39.104 896.144 39.174 896.998 40.154V38.026C896.144 37.564 895.36 37.452 894.702 37.452C893.372 37.452 892.21 37.802 891.272 38.684C890.474 39.426 889.774 40.644 889.774 42.338C889.774 43.71 890.194 44.872 891.272 45.908C892.056 46.65 893.05 47.21 894.688 47.21C895.696 47.21 896.438 46.958 896.998 46.664V44.536ZM906.123 39.23V37.662H900.103V39.23H902.203V47H904.023V39.23H906.123ZM915.018 47H916.978L913.072 37.662H911.644L907.626 47H909.6L910.426 45.04H914.192L915.018 47ZM911 43.556L912.33 40.196L913.66 43.556H911ZM920.028 37.662V47H923.164C923.976 47 924.83 46.86 925.53 46.244C926.174 45.67 926.328 44.9 926.328 44.354C926.328 43.864 926.216 43.136 925.656 42.604C925.418 42.38 925.054 42.114 924.438 42.016C924.69 41.876 925.488 41.386 925.488 40.182C925.488 39.398 925.166 38.67 924.62 38.25C923.864 37.662 922.856 37.662 922.338 37.662H920.028ZM921.848 39.146H922.38C923.122 39.146 923.78 39.468 923.78 40.322C923.78 41.512 922.646 41.54 922.366 41.54H921.848V39.146ZM921.848 42.94H922.52C922.912 42.94 923.374 42.94 923.766 43.122C924.354 43.388 924.452 43.892 924.452 44.186C924.452 44.55 924.326 44.998 923.878 45.264C923.472 45.502 922.968 45.516 922.632 45.516H921.848V42.94ZM929.973 37.662V47H931.261L936.385 40.756V47H938.205V37.662H936.917L931.793 43.878V37.662H929.973ZM947.336 39.23V37.662H941.316V39.23H943.416V47H945.236V39.23H947.336ZM955.629 37.662H950.449V47H955.629V45.432H952.269V42.884H955.489V41.316H952.269V39.23H955.629V37.662ZM960.25 37.662V43.01C960.25 43.892 960.264 44.704 959.788 45.18C959.634 45.334 959.368 45.516 958.948 45.516C958.752 45.516 958.57 45.474 958.43 45.432V47C958.682 47.056 958.934 47.084 959.2 47.084C960.11 47.084 960.698 46.776 961.062 46.468C962.098 45.614 962.07 44.34 962.07 43.374V39.23H964.786V47H966.606V37.662H960.25ZM970.693 47H973.983C974.767 47 975.929 46.874 976.629 45.852C976.937 45.404 977.133 44.802 977.133 44.172C977.133 43.276 976.783 42.562 976.265 42.086C975.537 41.414 974.655 41.316 973.969 41.316H972.513V37.662H970.693V47ZM972.513 42.884H973.605C974.949 42.884 975.257 43.584 975.257 44.172C975.257 45.432 973.899 45.432 973.577 45.432H972.513V42.884ZM987.209 44.536C986.663 45.18 985.893 45.558 985.025 45.558C983.457 45.558 981.861 44.438 981.861 42.366C981.861 40.644 983.079 39.104 984.955 39.104C985.291 39.104 986.355 39.174 987.209 40.154V38.026C986.355 37.564 985.571 37.452 984.913 37.452C983.583 37.452 982.421 37.802 981.483 38.684C980.685 39.426 979.985 40.644 979.985 42.338C979.985 43.71 980.405 44.872 981.483 45.908C982.267 46.65 983.261 47.21 984.899 47.21C985.907 47.21 986.649 46.958 987.209 46.664V44.536ZM996.333 39.23V37.662H990.313V39.23H992.413V47H994.233V39.23H996.333ZM999.446 37.662V47H1002.58C1003.39 47 1004.25 46.86 1004.95 46.244C1005.59 45.67 1005.75 44.9 1005.75 44.354C1005.75 43.864 1005.63 43.136 1005.07 42.604C1004.84 42.38 1004.47 42.114 1003.86 42.016C1004.11 41.876 1004.91 41.386 1004.91 40.182C1004.91 39.398 1004.58 38.67 1004.04 38.25C1003.28 37.662 1002.27 37.662 1001.76 37.662H999.446ZM1001.27 39.146H1001.8C1002.54 39.146 1003.2 39.468 1003.2 40.322C1003.2 41.512 1002.06 41.54 1001.78 41.54H1001.27V39.146ZM1001.27 42.94H1001.94C1002.33 42.94 1002.79 42.94 1003.18 43.122C1003.77 43.388 1003.87 43.892 1003.87 44.186C1003.87 44.55 1003.74 44.998 1003.3 45.264C1002.89 45.502 1002.39 45.516 1002.05 45.516H1001.27V42.94ZM1015.47 47H1017.43L1013.53 37.662H1012.1L1008.08 47H1010.06L1010.88 45.04H1014.65L1015.47 47ZM1011.46 43.556L1012.79 40.196L1014.12 43.556H1011.46Z" fill="#333333"/>
<path d="M1069.88 37.662H1068.06V47H1069.88V43.024L1070.09 42.814L1073.41 47H1075.82L1071.66 41.974L1075.61 37.662H1073.31L1069.88 41.61V37.662ZM1082.87 37.452C1079.93 37.452 1077.89 39.496 1077.89 42.338C1077.89 45.18 1079.93 47.21 1082.87 47.21C1085.81 47.21 1087.86 45.18 1087.86 42.338C1087.86 39.496 1085.81 37.452 1082.87 37.452ZM1082.87 45.558C1081.05 45.558 1079.76 44.228 1079.76 42.338C1079.76 40.448 1081.05 39.104 1082.87 39.104C1084.69 39.104 1085.98 40.448 1085.98 42.338C1085.98 44.228 1084.69 45.558 1082.87 45.558ZM1093.31 37.662H1091.49V47H1093.31V42.842H1097.26V47H1099.08V37.662H1097.26V41.274H1093.31V37.662ZM1108.21 39.23V37.662H1102.19V39.23H1104.29V47H1106.11V39.23H1108.21ZM1117.11 47H1119.07L1115.16 37.662H1113.74L1109.72 47H1111.69L1112.52 45.04H1116.28L1117.11 47ZM1113.09 43.556L1114.42 40.196L1115.75 43.556H1113.09ZM1123.94 37.662H1122.12V47H1123.94V43.024L1124.15 42.814L1127.47 47H1129.88L1125.72 41.974L1129.67 37.662H1127.37L1123.94 41.61V37.662ZM1138.02 39.23V37.662H1132V39.23H1134.1V47H1135.92V39.23H1138.02ZM1141.13 47H1144.42C1145.21 47 1146.37 46.874 1147.07 45.852C1147.38 45.404 1147.57 44.802 1147.57 44.172C1147.57 43.276 1147.22 42.562 1146.71 42.086C1145.98 41.414 1145.1 41.316 1144.41 41.316H1142.95V37.662H1141.13V47ZM1142.95 42.884H1144.05C1145.39 42.884 1145.7 43.584 1145.7 44.172C1145.7 45.432 1144.34 45.432 1144.02 45.432H1142.95V42.884ZM1148.39 37.662V47H1150.21V37.662H1148.39Z" fill="#333333"/>
<path d="M1218.2 37.662V47H1219.24V42.912H1219.51L1222.35 47H1223.61L1220.64 42.828C1222.05 42.73 1222.99 41.68 1222.99 40.252C1222.99 39.258 1222.52 38.544 1221.97 38.18C1221.27 37.704 1220.33 37.662 1219.7 37.662H1218.2ZM1219.24 38.642H1219.87C1220.32 38.642 1220.79 38.67 1221.21 38.908C1221.8 39.244 1221.96 39.762 1221.96 40.28C1221.96 41.372 1221.19 41.988 1219.9 41.988H1219.24V38.642ZM1228.23 37.662H1227.19V43.668C1227.19 44.452 1227.28 45.208 1227.78 45.908C1228.34 46.678 1229.32 47.168 1230.51 47.168C1231.7 47.168 1232.68 46.678 1233.24 45.908C1233.74 45.208 1233.83 44.452 1233.83 43.668V37.662H1232.79V43.388C1232.79 44.172 1232.79 45.026 1232.05 45.656C1231.67 45.978 1231.03 46.188 1230.51 46.188C1229.99 46.188 1229.35 45.978 1228.97 45.656C1228.23 45.026 1228.23 44.172 1228.23 43.388V37.662Z" fill="#333333"/>
<path d="M1258.24 37.662H1257.2V43.668C1257.2 44.452 1257.29 45.208 1257.79 45.908C1258.35 46.678 1259.33 47.168 1260.52 47.168C1261.71 47.168 1262.69 46.678 1263.25 45.908C1263.76 45.208 1263.84 44.452 1263.84 43.668V37.662H1262.8V43.388C1262.8 44.172 1262.8 45.026 1262.06 45.656C1261.68 45.978 1261.04 46.188 1260.52 46.188C1260 46.188 1259.36 45.978 1258.98 45.656C1258.24 45.026 1258.24 44.172 1258.24 43.388V37.662ZM1274.46 47H1275.61L1271.42 37.214L1267.12 47H1268.27L1269.39 44.368H1273.37L1274.46 47ZM1269.8 43.388L1271.39 39.65L1272.96 43.388H1269.8Z" fill="#022169"/>
<path d="M1303.05 37.662H1298.2V47H1303.05V46.02H1299.24V42.394H1302.94V41.414H1299.24V38.642H1303.05V37.662ZM1307.95 47V39.79L1315.23 47.42V37.662H1314.2V44.9L1306.92 37.27V47H1307.95Z" fill="#022169"/>
</svg>
