<svg width="23" height="24" viewBox="0 0 23 24" fill="none" xmlns="http://www.w3.org/2000/svg">
<path d="M17.5409 0H5.70643C2.70554 0 0.24707 2.53051 0.24707 5.61934V18.3807C0.24707 21.4695 2.70554 24 5.70643 24H17.5409C20.5418 24 23.0003 21.4695 23.0003 18.3807V5.61934C23.0003 2.53051 20.5418 0 17.5409 0ZM11.6237 17.2568C8.80594 17.2568 6.51653 14.9003 6.51653 12C6.51653 9.0997 8.80594 6.7432 11.6237 6.7432C14.4414 6.7432 16.7308 9.0997 16.7308 12C16.7308 14.9003 14.4414 17.2568 11.6237 17.2568ZM18.0692 6.77946C17.2521 6.77946 16.5899 6.09789 16.5899 5.2568C16.5899 4.41571 17.2521 3.73414 18.0692 3.73414C18.8864 3.73414 19.5485 4.41571 19.5485 5.2568C19.5485 6.09789 18.8864 6.77946 18.0692 6.77946Z" fill="#D6D6D6"/>
</svg>
