<svg width="45" height="44" viewBox="0 0 45 44" fill="none" xmlns="http://www.w3.org/2000/svg">
<path d="M44.5 0H0V44H44.5V0Z" fill="#0076B2"/>
<path d="M11.3618 16.9728H15.9254V30.9998H11.3618V16.9728ZM13.6449 10C15.1033 10 16.2873 11.1326 16.2873 12.528C16.2873 13.9237 15.1033 15.0563 13.6449 15.0563C12.1807 15.0563 11 13.9237 11 12.528C11 11.1326 12.1807 10 13.6449 10Z" fill="white"/>
<path d="M18.7852 16.9731H23.1552V18.8908H23.2179C23.8257 17.788 25.3133 16.625 27.5314 16.625C32.1474 16.625 33.0005 19.5295 33.0005 23.3072V31.0001H28.442V24.1788C28.442 22.5522 28.4126 20.4596 26.0729 20.4596C23.7007 20.4596 23.3387 22.2323 23.3387 24.0624V31.0001H18.7852V16.9731Z" fill="white"/>
</svg>
