<svg width="119" height="157" viewBox="0 0 119 157" fill="none" xmlns="http://www.w3.org/2000/svg">
<rect width="119" height="157" fill="black" fill-opacity="0"/>
<rect width="119" height="157" fill="black" fill-opacity="0"/>
<path d="M8.66264 132.044V133.308H5.88049V140.447H4.29972V133.308H1.51758V132.044H8.66264Z" fill="#002169"/>
<path d="M12.7091 132.044C13.4679 132.044 14.037 132.297 14.5428 132.739C14.9854 133.182 15.2384 133.75 15.2384 134.508C15.2384 135.203 14.9854 135.835 14.5428 136.277C14.1002 136.72 13.4679 136.972 12.7091 136.972H11.2548V140.51H9.7373V132.044H12.7091ZM12.3298 135.646C12.7091 135.646 13.0885 135.519 13.2782 135.33C13.5311 135.14 13.5944 134.824 13.5944 134.445C13.5944 133.687 13.1518 133.308 12.2033 133.308H11.1284V135.646H12.3298Z" fill="#002169"/>
<path d="M20.2337 132.044L23.7747 140.447H22.1307L21.3087 138.426H17.7678L17.009 140.447H15.4282L18.7162 132.044H20.2337ZM18.2104 137.162H20.8028L19.475 133.877L18.2104 137.162Z" fill="#002169"/>
<path d="M28.6434 132.044L31.3623 139.057H32.2476V141.964H30.73V140.447H25.229V141.964H23.7114V139.057H24.6599L27.1891 132.044H28.6434ZM26.1774 139.057H29.7816L27.8846 133.877L26.1774 139.057Z" fill="#002169"/>
<path d="M34.5871 132.044V137.92L39.5191 132.044H40.3411V140.447H38.8236V134.761L33.8916 140.447H33.1328V132.044H34.5871Z" fill="#002169"/>
<path d="M43.4396 132.044V139.057H47.4864V132.044H49.0039V139.057H50.2686V141.964H48.751V140.447H41.8589V132.044H43.4396Z" fill="#002169"/>
<path d="M52.7343 132.044H51.2168V140.447H52.7343V132.044Z" fill="#002169"/>
<path d="M54.1252 129.707C54.3149 129.707 54.5046 129.77 54.6943 129.959C54.8208 130.086 54.9472 130.275 54.9472 130.528C54.9472 130.717 54.884 130.907 54.7575 131.096C54.6311 131.286 54.4414 131.349 54.2517 131.349C54.062 131.349 53.8723 131.286 53.6826 131.096C53.5561 130.97 53.4297 130.781 53.4297 130.528C53.4297 130.338 53.4929 130.149 53.6826 129.959C53.7458 129.77 53.9355 129.707 54.1252 129.707ZM55.8957 140.447H54.3781V132.044H55.8957V140.447ZM56.0854 129.707C56.2751 129.707 56.4648 129.77 56.5912 129.959C56.7177 130.086 56.8441 130.275 56.8441 130.528C56.8441 130.717 56.7809 130.907 56.6544 131.096C56.528 131.286 56.3383 131.349 56.0854 131.349C55.8957 131.349 55.706 131.286 55.5163 131.096C55.3898 130.97 55.2634 130.781 55.2634 130.528C55.2634 130.338 55.3266 130.149 55.5163 129.959C55.706 129.77 55.8957 129.707 56.0854 129.707Z" fill="#002169"/>
<path d="M67.0245 132.044V133.308H64.2423V140.447H62.6615V133.308H59.8794V132.044H67.0245Z" fill="#002169"/>
<path d="M71.0712 132.044L74.6121 140.447H72.9681L72.1461 138.426H68.6052L67.8464 140.447H66.2656L69.5536 132.044H71.0712ZM69.0478 137.162H71.6402L70.3124 133.877L69.0478 137.162Z" fill="#002169"/>
<path d="M84.0967 132.044V140.447H82.5792V137.099H82.263C81.7572 137.099 81.3146 137.225 80.9984 137.478C80.6823 137.731 80.3661 138.173 80.05 138.805L79.228 140.447H77.4575L78.3427 138.741C78.5957 138.173 78.9118 137.731 79.1647 137.415C79.4177 137.099 79.7338 136.846 80.05 136.657C78.9118 136.277 78.3427 135.582 78.3427 134.508C78.3427 133.75 78.5957 133.118 79.1015 132.676C79.6074 132.234 80.3029 132.044 81.1881 132.044H84.0967ZM79.9235 134.508C79.9235 134.887 80.05 135.203 80.3029 135.456C80.5558 135.709 80.9352 135.772 81.3778 135.772H82.516V133.245H81.3778C80.872 133.245 80.5558 133.371 80.2397 133.561C80.05 133.813 79.9235 134.129 79.9235 134.508Z" fill="#002169"/>
<path d="M87.1318 132.044V135.393H87.195C87.5112 135.393 87.8273 135.329 87.9538 135.203C88.1435 135.077 88.2699 134.95 88.4596 134.698C88.5861 134.445 88.7758 134.192 88.9023 133.75C89.0919 133.245 89.3449 132.865 89.5346 132.613C89.7243 132.36 89.9139 132.234 90.2301 132.107C90.483 131.981 90.7992 131.981 91.2418 131.981C91.3682 131.981 91.4947 131.981 91.6212 131.981V133.245C91.305 133.245 91.0521 133.245 90.9256 133.308C90.7992 133.371 90.6727 133.497 90.5462 133.624C90.4198 133.75 90.2933 134.066 90.1669 134.445C89.8507 135.203 89.4713 135.645 88.9655 135.898C89.3449 136.088 89.661 136.34 89.9772 136.656C90.2933 137.035 90.6095 137.541 90.9256 138.236L92.0005 140.321H90.2933L89.3449 138.362C89.0919 137.92 88.9022 137.541 88.6493 137.288C88.4596 137.035 88.2067 136.846 88.017 136.719C87.7641 136.593 87.5112 136.53 87.1318 136.53V140.321H85.6143V132.044H87.1318Z" fill="#002169"/>
<path d="M94.4033 132.044H92.8857V140.447H94.4033V132.044Z" fill="#002169"/>
<path d="M100.158 131.918C100.6 131.918 101.043 131.981 101.485 132.108C101.928 132.234 102.371 132.423 102.876 132.676V134.192C102.371 133.877 101.928 133.687 101.549 133.561C101.106 133.434 100.727 133.371 100.221 133.371C99.6517 133.371 99.1459 133.497 98.7033 133.75C98.2607 134.003 97.8813 134.319 97.6284 134.761C97.3754 135.203 97.249 135.709 97.249 136.277C97.249 136.846 97.3754 137.351 97.6284 137.794C97.8813 138.236 98.2607 138.552 98.7033 138.804C99.1459 139.057 99.6517 139.184 100.221 139.184C100.663 139.184 101.043 139.12 101.485 138.994C101.865 138.868 102.371 138.615 103.003 138.299V139.815C102.497 140.131 101.991 140.321 101.549 140.447C101.106 140.574 100.6 140.637 100.031 140.637C99.2091 140.637 98.4504 140.447 97.7548 140.131C97.1225 139.752 96.5534 139.247 96.1741 138.615C95.7947 137.983 95.605 137.225 95.605 136.467C95.605 135.646 95.7947 134.887 96.1741 134.192C96.5534 133.497 97.1225 132.992 97.7548 132.613C98.5768 132.108 99.3356 131.918 100.158 131.918Z" fill="#002169"/>
<path d="M110.843 132.044V133.308H107.998V140.447H106.48V133.308H103.635V132.044H110.843Z" fill="#002169"/>
<path d="M113.309 132.044V135.33H114.574C115.459 135.33 116.154 135.582 116.723 136.025C117.229 136.467 117.545 137.099 117.545 137.92C117.545 138.678 117.293 139.31 116.787 139.752C116.281 140.195 115.585 140.447 114.7 140.447H111.792V132.044H113.309ZM114.637 139.184C115.016 139.184 115.332 139.057 115.585 138.805C115.838 138.552 115.901 138.236 115.901 137.857C115.901 137.478 115.775 137.162 115.522 136.909C115.269 136.657 114.953 136.53 114.574 136.53H113.246V139.12H114.637V139.184Z" fill="#002169"/>
<path d="M36.6103 152.641V151.946C36.8632 151.946 37.1162 151.946 37.3059 151.946C37.4956 151.946 37.622 151.882 37.7485 151.882C37.8749 151.819 37.9382 151.756 38.0014 151.693C38.0646 151.63 38.0646 151.503 38.0646 151.377C38.0646 151.188 38.0014 151.061 37.8117 150.998C37.622 150.935 37.4323 150.872 37.1162 150.872C36.8632 150.872 36.6103 150.935 36.3574 150.998C36.1045 151.061 35.9148 151.188 35.7251 151.251V150.493C35.7883 150.429 35.9148 150.366 36.0412 150.303C36.1677 150.24 36.2942 150.177 36.4206 150.177C36.5471 150.113 36.6736 150.113 36.8632 150.113C36.9897 150.113 37.1162 150.05 37.2426 150.05C37.4956 150.05 37.6852 150.05 37.9382 150.113C38.1279 150.177 38.3175 150.24 38.5072 150.366C38.6969 150.493 38.8234 150.556 38.8866 150.745C38.9499 150.872 39.0131 151.061 39.0131 151.251C39.0131 151.503 38.9499 151.756 38.7602 151.946C38.5705 152.135 38.3808 152.262 38.1279 152.325C38.2543 152.325 38.3808 152.388 38.5072 152.451C38.6337 152.514 38.7602 152.577 38.8234 152.704C38.8866 152.83 39.0131 152.893 39.0763 153.02C39.1395 153.146 39.1395 153.272 39.1395 153.462C39.1395 153.715 39.0763 153.967 38.9499 154.094C38.8234 154.283 38.6969 154.41 38.5072 154.536C38.3175 154.662 38.1279 154.726 37.8749 154.726C37.622 154.789 37.4323 154.789 37.1794 154.789C37.1162 154.789 36.9897 154.789 36.8 154.789C36.6736 154.789 36.4839 154.726 36.3574 154.726C36.2309 154.662 36.0412 154.662 35.9148 154.599C35.7883 154.536 35.6619 154.473 35.5986 154.41V153.525C35.6619 153.588 35.7883 153.652 35.9148 153.715C36.0412 153.778 36.1677 153.841 36.2942 153.841C36.4206 153.904 36.5471 153.904 36.6736 153.967C36.8 153.967 36.9265 154.031 36.9897 154.031C37.3691 154.031 37.6852 153.967 37.8749 153.841C38.0646 153.715 38.1911 153.588 38.1911 153.336C38.1911 153.209 38.1279 153.146 38.1279 153.02C38.0646 152.957 38.0014 152.893 37.8749 152.83C37.7485 152.767 37.6852 152.767 37.5588 152.704C37.4323 152.704 37.3059 152.641 37.1794 152.641H36.6103Z" fill="#002169"/>
<path d="M45.0832 147.776H44.1348V154.599H45.0832V147.776Z" fill="#002169"/>
<path d="M47.9921 154.662L47.3598 153.967C47.8657 153.652 48.3083 153.272 48.6877 152.83C49.0671 152.388 49.32 151.883 49.4464 151.44C49.1303 151.63 48.7509 151.756 48.3715 151.756C47.8657 151.756 47.4231 151.567 47.0437 151.188C46.6643 150.808 46.4746 150.303 46.4746 149.798C46.4746 149.229 46.6643 148.724 47.0437 148.344C47.4231 147.965 47.9289 147.776 48.498 147.776C49.1303 147.776 49.6994 148.029 50.0788 148.471C50.5214 148.913 50.7111 149.545 50.7111 150.24C50.7111 151.061 50.4581 151.883 49.9523 152.767C49.4464 153.525 48.8141 154.22 47.9921 154.662ZM49.6994 150.429C49.7626 150.177 49.7626 149.987 49.7626 149.924C49.7626 149.545 49.6361 149.229 49.4464 148.976C49.1935 148.724 48.9406 148.597 48.6245 148.597C48.3083 148.597 48.0554 148.724 47.8657 148.913C47.676 149.103 47.5495 149.419 47.5495 149.734C47.5495 150.05 47.676 150.303 47.8657 150.493C48.1186 150.682 48.3715 150.808 48.6877 150.808C48.9406 150.808 49.32 150.682 49.6994 150.429Z" fill="#002169"/>
<path d="M53.0503 154.662L52.4179 153.967C52.9238 153.652 53.3664 153.272 53.7458 152.83C54.1252 152.388 54.3781 151.883 54.5046 151.44C54.1884 151.63 53.809 151.756 53.4296 151.756C52.9238 151.756 52.4812 151.567 52.1018 151.188C51.7224 150.808 51.5327 150.303 51.5327 149.798C51.5327 149.229 51.7224 148.724 52.1018 148.344C52.4812 147.965 52.987 147.776 53.5561 147.776C54.1884 147.776 54.7575 148.029 55.1369 148.471C55.5795 148.913 55.7692 149.545 55.7692 150.24C55.7692 151.061 55.5162 151.883 55.0104 152.767C54.5046 153.525 53.809 154.22 53.0503 154.662ZM54.6942 150.429C54.7575 150.177 54.7575 149.987 54.7575 149.924C54.7575 149.545 54.631 149.229 54.4413 148.976C54.2516 148.724 53.9355 148.597 53.6193 148.597C53.3032 148.597 53.0502 148.724 52.8606 148.913C52.6709 149.103 52.5444 149.419 52.5444 149.734C52.5444 150.05 52.6709 150.303 52.8606 150.493C53.1135 150.682 53.3664 150.808 53.6826 150.808C53.9987 150.808 54.3149 150.682 54.6942 150.429Z" fill="#002169"/>
<path d="M56.6548 147.776H61.0809L57.9826 154.662L57.0974 154.347L59.6266 148.724H56.6548V147.776Z" fill="#002169"/>
<path d="M66.1391 150.114C66.9611 150.114 67.5934 150.303 68.036 150.682C68.4786 151.061 68.6683 151.63 68.6683 152.388C68.6683 152.704 68.6051 153.02 68.4786 153.336C68.3522 153.589 68.2257 153.841 67.9728 154.094C67.7831 154.284 67.5302 154.473 67.2773 154.599C67.0243 154.726 66.7082 154.789 66.3288 154.789C66.2023 154.789 66.0126 154.789 65.8862 154.726C65.7597 154.663 65.57 154.663 65.3803 154.599V157H64.4951V150.177H66.1391V150.114ZM65.5068 150.935V153.715C65.7597 153.841 66.0759 153.905 66.3288 153.905C66.5185 153.905 66.7082 153.841 66.8979 153.778C67.0876 153.715 67.214 153.589 67.3405 153.462C67.467 153.336 67.5934 153.146 67.6566 152.957C67.7199 152.767 67.7831 152.578 67.7831 152.325C67.7831 152.072 67.7199 151.883 67.6566 151.693C67.5934 151.504 67.467 151.377 67.3405 151.251C67.214 151.125 67.0243 150.998 66.8979 150.935C66.7082 150.872 66.5185 150.809 66.3288 150.809H65.5068V150.935Z" fill="#002169"/>
<path d="M71.8303 150.05C72.2096 150.05 72.5258 150.113 72.7787 150.24C73.0949 150.366 73.3478 150.493 73.5375 150.745C73.7272 150.935 73.9169 151.188 74.0433 151.503C74.1698 151.756 74.233 152.072 74.233 152.451C74.233 152.83 74.1698 153.146 74.0433 153.399C73.9169 153.715 73.7272 153.967 73.5375 154.157C73.3478 154.346 73.0949 154.536 72.7787 154.662C72.4626 154.789 72.1464 154.852 71.767 154.852C71.4509 154.852 71.0715 154.789 70.8186 154.662C70.5024 154.536 70.2495 154.41 70.0598 154.157C69.8701 153.967 69.6804 153.715 69.5539 153.399C69.4275 153.083 69.3643 152.767 69.3643 152.451C69.3643 152.135 69.4275 151.819 69.5539 151.567C69.6804 151.314 69.8701 151.061 70.0598 150.808C70.2495 150.619 70.5024 150.429 70.8186 150.303C71.1347 150.05 71.4509 150.05 71.8303 150.05ZM71.767 150.808C71.5773 150.808 71.3876 150.872 71.1979 150.935C71.0083 150.998 70.8818 151.124 70.7553 151.251C70.6289 151.377 70.5024 151.567 70.4392 151.693C70.3759 151.882 70.3127 152.072 70.3127 152.262C70.3127 152.514 70.3759 152.704 70.4392 152.893C70.5024 153.083 70.6289 153.272 70.7553 153.399C70.8818 153.525 71.0083 153.652 71.1979 153.715C71.3876 153.778 71.5773 153.841 71.767 153.841C72.0199 153.841 72.2096 153.778 72.3993 153.715C72.589 153.652 72.7787 153.525 72.9052 153.399C73.0316 153.272 73.1581 153.083 73.2213 152.893C73.2846 152.704 73.3478 152.451 73.3478 152.262C73.3478 152.072 73.2846 151.819 73.2213 151.63C73.1581 151.44 73.0316 151.314 72.9052 151.124C72.7787 150.998 72.589 150.872 72.3993 150.808C72.2096 150.872 72.0199 150.808 71.767 150.808Z" fill="#002169"/>
<path d="M76.2563 151.946C76.446 151.946 76.6357 151.882 76.7622 151.819C76.8886 151.693 77.0151 151.567 77.1415 151.377L77.3945 150.872C77.4577 150.745 77.5209 150.619 77.6474 150.556C77.7106 150.492 77.7739 150.366 77.9003 150.366C77.9635 150.303 78.09 150.303 78.1532 150.24C78.2797 150.24 78.3429 150.24 78.5326 150.24H78.7223V151.061H78.5326C78.4062 151.061 78.3429 151.061 78.2797 151.124C78.2165 151.187 78.1532 151.251 78.09 151.377L77.8371 151.756C77.7739 151.882 77.7106 151.946 77.6474 152.009C77.5842 152.072 77.5209 152.135 77.4577 152.198C77.3945 152.261 77.3312 152.261 77.268 152.325C77.2048 152.388 77.1415 152.388 77.0783 152.388C77.2048 152.451 77.268 152.451 77.3945 152.514C77.4577 152.577 77.5842 152.641 77.6474 152.704C77.7106 152.767 77.8371 152.893 77.9003 153.02C77.9635 153.146 78.09 153.272 78.1532 153.462L78.8488 154.725H77.8371L77.2048 153.525C77.0783 153.272 76.8886 153.02 76.6989 152.956C76.5092 152.83 76.3195 152.767 76.1931 152.767H76.0666V154.725H75.2446V150.24H76.1299V152.072H76.2563V151.946Z" fill="#002169"/>
<path d="M83.4012 150.114L80.1765 156.937H79.1648L80.7456 153.652L78.9751 150.114H79.9868L81.1882 152.641L82.3896 150.114H83.4012Z" fill="#002169"/>
<path d="M59.5 118.903C26.6833 118.903 0 92.2414 0 59.4515V0H59.5C92.3167 0 119 26.6616 119 59.4515C119 92.2414 92.3167 118.903 59.5 118.903ZM3.28799 3.28531V59.4515C3.28799 90.4093 28.517 115.618 59.5 115.618C90.483 115.618 115.712 90.4093 115.712 59.4515C115.712 28.4938 90.483 3.28531 59.5 3.28531H3.28799Z" fill="#002169"/>
<path d="M30.7932 72.7193C30.7932 73.3511 30.6667 73.8565 30.477 74.3619C30.2873 74.8673 29.9712 75.3096 29.5286 75.6887C29.086 76.0678 28.5801 76.3205 27.9478 76.5732C27.3155 76.7627 26.4935 76.8891 25.4818 76.8891H22.0041C21.7512 76.8891 21.5615 76.8259 21.4351 76.6995C21.3086 76.5732 21.1821 76.3205 21.1821 76.0046V64.3164C21.1821 64.0006 21.2454 63.811 21.4351 63.6847C21.5615 63.5583 21.7512 63.4951 22.0041 63.4951H29.5286C29.5918 63.4951 29.655 63.4951 29.7183 63.5583C29.7815 63.6215 29.8447 63.6215 29.8447 63.7478C29.908 63.811 29.908 63.9374 29.908 64.0637C29.908 64.1901 29.908 64.3796 29.908 64.5692C29.908 64.7587 29.908 64.9482 29.908 65.0746C29.908 65.201 29.8447 65.3273 29.8447 65.3905C29.7815 65.4537 29.7815 65.5168 29.7183 65.58C29.655 65.6432 29.5918 65.6432 29.5286 65.6432H23.901V68.9917H26.1141C26.9993 68.9917 27.6949 69.0549 28.2007 69.2444C28.7698 69.4339 29.2124 69.6867 29.5918 70.0026C29.9712 70.3185 30.2873 70.6975 30.477 71.203C30.73 71.582 30.7932 72.1506 30.7932 72.7193ZM28.0743 72.9088C28.0743 72.5929 28.011 72.3402 27.9478 72.0875C27.8213 71.8348 27.6949 71.6452 27.5052 71.4557C27.3155 71.2661 27.0626 71.1398 26.8097 71.0766C26.4935 71.0134 26.1141 70.9502 25.6715 70.9502H23.9643V74.8042H25.7347C26.1773 74.8042 26.5567 74.741 26.8097 74.6778C27.0626 74.6146 27.3155 74.4883 27.5052 74.2987C27.6949 74.1092 27.8213 73.9197 27.9478 73.6669C28.011 73.4774 28.0743 73.2247 28.0743 72.9088Z" fill="#002169"/>
<path d="M38.4441 73.2244C38.128 73.9825 37.875 74.6143 37.5589 75.1198C37.2427 75.6252 36.9266 76.0043 36.6104 76.3202C36.2943 76.6361 35.9149 76.8256 35.5355 76.952C35.1561 77.0783 34.7135 77.1415 34.2077 77.1415C34.018 77.1415 33.8283 77.1415 33.6386 77.0783C33.4489 77.0783 33.3224 77.0151 33.1327 76.952C33.0063 76.8888 32.8166 76.8888 32.7534 76.8256C32.6269 76.7624 32.5637 76.6992 32.5004 76.6992C32.4372 76.6361 32.374 76.5729 32.374 76.5097C32.3107 76.4465 32.3107 76.3833 32.3107 76.257C32.3107 76.1306 32.2475 76.0675 32.2475 75.8779C32.2475 75.7516 32.2475 75.562 32.2475 75.3093C32.2475 74.9302 32.2475 74.6143 32.3107 74.4248C32.374 74.2353 32.4372 74.1721 32.5637 74.1721C32.6269 74.1721 32.6901 74.1721 32.7534 74.2353C32.8166 74.2984 32.9431 74.3616 33.0063 74.3616C33.1327 74.4248 33.2592 74.488 33.3857 74.488C33.5121 74.5512 33.7018 74.5512 33.8915 74.5512C34.018 74.5512 34.1444 74.5512 34.2709 74.488C34.3974 74.4248 34.5238 74.4248 34.6503 74.2984C34.7767 74.2353 34.84 74.1089 34.9664 73.9194C35.0929 73.7298 35.2194 73.5403 35.3458 73.2876L30.9197 64.4425C30.7932 64.253 30.7932 64.0634 30.73 63.9371C30.73 63.8107 30.73 63.6844 30.8564 63.6212C30.9197 63.558 31.0461 63.4948 31.2991 63.4948C31.4887 63.4948 31.7417 63.4316 32.0578 63.4316C32.374 63.4316 32.6269 63.4316 32.8166 63.4316C33.0063 63.4316 33.1327 63.4948 33.2592 63.4948C33.3857 63.558 33.4489 63.6212 33.5121 63.6844C33.5754 63.7475 33.6386 63.8739 33.7018 64.0003L35.5987 68.1069C35.7884 68.5491 35.9781 68.9914 36.1678 69.4337C36.3575 69.8759 36.5472 70.3182 36.6737 70.7604C36.8001 70.3182 36.9266 69.8127 37.1163 69.4337C37.2427 68.9914 37.4324 68.5491 37.6221 68.0437L39.1397 63.9371C39.2029 63.8107 39.2029 63.7475 39.2661 63.6844C39.3293 63.6212 39.3926 63.558 39.519 63.558C39.6455 63.4948 39.772 63.4948 39.9616 63.4948C40.1513 63.4948 40.4043 63.4948 40.7204 63.4948C41.0366 63.4948 41.2895 63.4948 41.4792 63.558C41.6689 63.558 41.7953 63.6212 41.8586 63.6844C41.9218 63.7475 41.985 63.8107 41.985 63.9371C41.985 64.0634 41.9218 64.1898 41.8586 64.3161L38.4441 73.2244Z" fill="#002169"/>
<path d="M52.2916 75.8779C52.3549 76.1306 52.4181 76.3202 52.4181 76.4465C52.4181 76.5729 52.4181 76.6992 52.3549 76.7624C52.2916 76.8256 52.1652 76.8888 51.9755 76.8888C51.7858 76.8888 51.5329 76.8888 51.2167 76.8888C50.8373 76.8888 50.5844 76.8888 50.3947 76.8888C50.205 76.8888 50.0786 76.8888 49.9521 76.8256C49.8257 76.7624 49.7624 76.7624 49.7624 76.6992C49.6992 76.6361 49.6992 76.5729 49.636 76.5097L48.7507 73.793H43.7555L42.9335 76.4465C42.9335 76.5729 42.8703 76.6361 42.8071 76.6992C42.7438 76.7624 42.6806 76.8256 42.6174 76.8256C42.4909 76.8888 42.3644 76.8888 42.1747 76.8888C41.9851 76.8888 41.7321 76.8888 41.4792 76.8888C41.1631 76.8888 40.9101 76.8888 40.7204 76.8888C40.5308 76.8888 40.4043 76.8256 40.3411 76.7624C40.2778 76.6992 40.2778 76.5729 40.2778 76.4465C40.2778 76.3202 40.3411 76.1306 40.4043 75.8779L44.5143 63.9371C44.5775 63.8107 44.5775 63.7475 44.6407 63.6844C44.704 63.6212 44.7672 63.558 44.8937 63.4948C45.0201 63.4316 45.2098 63.4316 45.3995 63.4316C45.5892 63.4316 45.9054 63.4316 46.2215 63.4316C46.6009 63.4316 46.917 63.4316 47.17 63.4316C47.4229 63.4316 47.6126 63.4948 47.739 63.4948C47.8655 63.558 47.992 63.6212 48.0552 63.6844C48.1184 63.7475 48.1817 63.8739 48.1817 64.0003L52.2916 75.8779ZM46.2215 66.022L44.3246 71.7713H48.1184L46.2215 66.022Z" fill="#002169"/>
<path d="M62.2192 74.8674C62.2192 75.057 62.2192 75.1833 62.2192 75.3097C62.2192 75.436 62.2192 75.5624 62.156 75.6256C62.156 75.6888 62.0927 75.8151 62.0927 75.8783C62.0295 75.9415 62.0295 76.0047 61.903 76.0678C61.8398 76.131 61.7134 76.2574 61.4604 76.3837C61.2707 76.5101 60.9546 76.6364 60.6384 76.7628C60.3223 76.8892 59.9429 76.9523 59.5635 77.0787C59.1841 77.1419 58.7415 77.2051 58.2357 77.2051C57.3504 77.2051 56.5284 77.0787 55.7697 76.7628C55.0109 76.5101 54.4418 76.0678 53.8728 75.4992C53.3669 74.9306 52.9875 74.2356 52.6714 73.3511C52.4185 72.5298 52.292 71.5189 52.292 70.3817C52.292 69.2445 52.4185 68.2336 52.7346 67.3491C53.0508 66.4646 53.4301 65.7065 53.9992 65.1379C54.5683 64.5061 55.2006 64.0638 55.9594 63.7479C56.7181 63.432 57.5401 63.3057 58.4886 63.3057C58.868 63.3057 59.1841 63.3057 59.5635 63.3688C59.8797 63.432 60.1958 63.4952 60.512 63.6216C60.8281 63.7479 61.081 63.8111 61.2707 64.0006C61.5237 64.127 61.6501 64.2534 61.7766 64.3165C61.8398 64.4429 61.903 64.5061 61.9663 64.5692C62.0295 64.6324 62.0295 64.6956 62.0295 64.822C62.0295 64.9483 62.0927 65.0115 62.0927 65.1379C62.0927 65.2642 62.0927 65.4538 62.0927 65.6433C62.0927 65.8328 62.0927 66.0224 62.0927 66.1487C62.0927 66.2751 62.0295 66.4014 62.0295 66.5278C61.9663 66.591 61.9663 66.6542 61.903 66.7173C61.8398 66.7805 61.7766 66.7805 61.7134 66.7805C61.5869 66.7805 61.4604 66.7173 61.334 66.591C61.1443 66.4646 60.9546 66.3383 60.7017 66.2119C60.4487 66.0855 60.1326 65.9592 59.8164 65.8328C59.5003 65.7065 59.0577 65.6433 58.5518 65.6433C58.046 65.6433 57.5401 65.7696 57.1607 65.9592C56.7181 66.1487 56.402 66.4646 56.0858 66.9069C55.7697 67.2859 55.58 67.7914 55.4535 68.36C55.3271 68.9286 55.2006 69.5604 55.2006 70.3185C55.2006 71.1399 55.2638 71.7717 55.4535 72.4035C55.6432 72.9721 55.8329 73.4775 56.1491 73.8566C56.4652 74.2356 56.7814 74.4884 57.224 74.6779C57.6666 74.8674 58.1092 74.9306 58.6783 74.9306C59.1841 74.9306 59.5635 74.8674 59.9429 74.7411C60.3223 74.6147 60.5752 74.4884 60.8281 74.362C61.081 74.2356 61.2707 74.1093 61.4604 73.9829C61.6501 73.8566 61.7766 73.7934 61.8398 73.7934C61.903 73.7934 61.9663 73.7934 62.0295 73.8566C62.0927 73.8566 62.0927 73.9197 62.156 74.0461C62.156 74.1093 62.2192 74.2356 62.2192 74.4252C62.2192 74.4252 62.2192 74.6147 62.2192 74.8674Z" fill="#002169"/>
<path d="M72.6523 74.8674C72.6523 75.057 72.6523 75.1833 72.6523 75.3097C72.6523 75.436 72.6523 75.5624 72.5891 75.6256C72.5891 75.6888 72.5258 75.8151 72.5258 75.8783C72.4626 75.9415 72.4626 76.0047 72.3362 76.0678C72.2729 76.131 72.0832 76.2574 71.8935 76.3837C71.7038 76.5101 71.3877 76.6364 71.0715 76.7628C70.7554 76.8892 70.376 76.9523 69.9966 77.0787C69.6172 77.1419 69.1746 77.2051 68.6688 77.2051C67.7835 77.2051 66.9615 77.0787 66.2028 76.7628C65.444 76.5101 64.8749 76.0678 64.3059 75.4992C63.8 74.9306 63.4206 74.2356 63.1045 73.3511C62.8516 72.5298 62.7251 71.5189 62.7251 70.3817C62.7251 69.2445 62.8516 68.2336 63.1677 67.3491C63.4839 66.4646 63.8632 65.7065 64.4323 65.1379C65.0014 64.5061 65.6337 64.0638 66.3925 63.7479C67.1512 63.432 67.9732 63.3057 68.9217 63.3057C69.3011 63.3057 69.6172 63.3057 69.9966 63.3688C70.3128 63.432 70.6289 63.4952 70.9451 63.6216C71.2612 63.7479 71.5142 63.8111 71.7038 64.0006C71.9568 64.127 72.0832 64.2534 72.2097 64.3165C72.2729 64.4429 72.3362 64.5061 72.3994 64.5692C72.4626 64.6324 72.4626 64.6956 72.4626 64.822C72.4626 64.9483 72.5258 65.0115 72.5258 65.1379C72.5258 65.2642 72.5258 65.4538 72.5258 65.6433C72.5258 65.8328 72.5258 66.0224 72.5258 66.1487C72.5258 66.2751 72.4626 66.4014 72.4626 66.5278C72.3994 66.591 72.3994 66.6542 72.3362 66.7173C72.2729 66.7805 72.2097 66.7805 72.1465 66.7805C72.02 66.7805 71.8935 66.7173 71.7671 66.591C71.5774 66.4646 71.3877 66.3383 71.1348 66.2119C70.8818 66.0855 70.5657 65.9592 70.2495 65.8328C69.9334 65.7065 69.4908 65.6433 68.9849 65.6433C68.4791 65.6433 67.9732 65.7696 67.5939 65.9592C67.1512 66.1487 66.8351 66.4646 66.5189 66.9069C66.2028 67.2859 66.0131 67.7914 65.8866 68.36C65.7602 68.9286 65.6337 69.5604 65.6337 70.3185C65.6337 71.1399 65.6969 71.7717 65.8866 72.4035C66.0763 72.9721 66.266 73.4775 66.5822 73.8566C66.8983 74.2356 67.2145 74.4884 67.6571 74.6779C68.0997 74.8674 68.5423 74.9306 69.0482 74.9306C69.554 74.9306 69.9334 74.8674 70.3128 74.7411C70.6922 74.6147 70.9451 74.4884 71.198 74.362C71.4509 74.2356 71.6406 74.1093 71.8303 73.9829C72.02 73.8566 72.1465 73.7934 72.2097 73.7934C72.2729 73.7934 72.3362 73.7934 72.3994 73.8566C72.4626 73.8566 72.4626 73.9197 72.5258 74.0461C72.5258 74.1093 72.5891 74.2356 72.5891 74.4252C72.6523 74.4252 72.6523 74.6147 72.6523 74.8674Z" fill="#002169"/>
<path d="M85.9938 70.0022C85.9938 71.1395 85.8673 72.0872 85.6144 72.9717C85.3615 73.8562 84.9189 74.6143 84.413 75.1829C83.8439 75.8147 83.2116 76.257 82.3896 76.5729C81.5676 76.8888 80.6824 77.0783 79.6075 77.0783C78.5958 77.0783 77.6473 76.9519 76.8886 76.6992C76.1298 76.4465 75.4975 76.0043 74.9917 75.4356C74.4858 74.867 74.1064 74.1721 73.8535 73.2876C73.6006 72.403 73.4741 71.3922 73.4741 70.1918C73.4741 69.1177 73.6006 68.1069 73.8535 67.2224C74.1064 66.3379 74.549 65.6429 75.0549 65.0111C75.624 64.3793 76.2563 63.937 77.0783 63.6212C77.9003 63.3053 78.7855 63.1157 79.8604 63.1157C80.8721 63.1157 81.7573 63.2421 82.5161 63.4948C83.2749 63.7475 83.9072 64.1898 84.4763 64.7584C84.9821 65.327 85.3615 66.022 85.6776 66.9065C85.8673 67.8542 85.9938 68.865 85.9938 70.0022ZM83.1484 70.1918C83.1484 69.4968 83.0852 68.865 82.9587 68.2332C82.8322 67.6646 82.6426 67.1592 82.3896 66.7169C82.1367 66.2747 81.7573 65.9588 81.3147 65.7692C80.8721 65.5165 80.303 65.4533 79.6707 65.4533C79.0384 65.4533 78.4693 65.5797 78.0267 65.8324C77.5841 66.0851 77.2047 66.401 76.9518 66.8433C76.6989 67.2855 76.5092 67.791 76.3827 68.2964C76.2563 68.865 76.193 69.4336 76.193 70.0654C76.193 70.8236 76.2563 71.4554 76.3827 72.024C76.5092 72.5926 76.6989 73.098 76.9518 73.5403C77.2047 73.9825 77.5841 74.2984 78.0267 74.488C78.4693 74.6775 79.0384 74.8039 79.6707 74.8039C80.3663 74.8039 80.8721 74.6775 81.3147 74.4248C81.7573 74.1721 82.1367 73.8562 82.3896 73.4139C82.6426 72.9717 82.8322 72.4662 82.9587 71.8976C83.1484 71.4554 83.1484 70.8236 83.1484 70.1918Z" fill="#002169"/>
<path d="M98.1337 76.5099C98.1337 76.5731 98.1337 76.6363 98.0705 76.6994C98.0073 76.7626 97.944 76.8258 97.8808 76.8258C97.7544 76.889 97.6279 76.889 97.5014 76.889C97.3117 76.889 97.122 76.889 96.8691 76.889C96.6162 76.889 96.3633 76.889 96.2368 76.889C96.0471 76.889 95.9207 76.8258 95.8574 76.8258C95.731 76.7626 95.6677 76.7626 95.6677 76.6994C95.6045 76.6363 95.6045 76.5731 95.6045 76.5099V71.0765H90.4196V76.5099C90.4196 76.5731 90.4196 76.6363 90.3564 76.6994C90.2931 76.7626 90.2299 76.8258 90.1667 76.8258C90.0402 76.889 89.9138 76.889 89.7873 76.889C89.5976 76.889 89.4079 76.889 89.155 76.889C88.9021 76.889 88.6491 76.889 88.5227 76.889C88.333 76.889 88.2065 76.8258 88.0801 76.8258C87.9536 76.7626 87.8904 76.7626 87.8904 76.6994C87.8271 76.6363 87.8271 76.5731 87.8271 76.5099V63.8109C87.8271 63.7477 87.8271 63.6845 87.8904 63.6214C87.9536 63.5582 88.0168 63.495 88.0801 63.495C88.2065 63.4318 88.333 63.4318 88.5227 63.4318C88.7124 63.4318 88.9021 63.3687 89.155 63.3687C89.4079 63.3687 89.6608 63.3687 89.7873 63.4318C89.977 63.4318 90.1035 63.495 90.1667 63.495C90.2931 63.5582 90.3564 63.5582 90.3564 63.6214C90.4196 63.6845 90.4196 63.7477 90.4196 63.8109V68.7389H95.4148V63.8109C95.4148 63.7477 95.4148 63.6845 95.4781 63.6214C95.5413 63.5582 95.6045 63.495 95.6677 63.495C95.7942 63.4318 95.9207 63.4318 96.0471 63.4318C96.2368 63.4318 96.4265 63.3687 96.6794 63.3687C96.9324 63.3687 97.1853 63.3687 97.3117 63.4318C97.5014 63.4318 97.6279 63.495 97.6911 63.495C97.8176 63.5582 97.8808 63.5582 97.8808 63.6214C97.944 63.6845 97.944 63.7477 97.944 63.8109V76.5099H98.1337Z" fill="#002169"/>
<path d="M70.7548 24.5767C71.1974 24.5767 71.64 24.703 72.0194 24.8926C72.462 25.1453 72.7782 25.4612 72.9679 25.8402C73.2208 26.2825 73.284 26.7247 73.284 27.167C73.284 27.6093 73.1576 28.0515 72.9679 28.4938C72.715 28.936 72.3988 29.2519 72.0194 29.5046C71.5768 29.7573 71.1974 29.8837 70.7548 29.8837C70.3122 29.8837 69.8696 29.7573 69.4902 29.5046C69.0476 29.2519 68.7314 28.936 68.5417 28.4938C68.2888 28.0515 68.2256 27.6093 68.2256 27.167C68.2256 26.7247 68.352 26.2825 68.5417 25.8402C68.7947 25.398 69.1108 25.0821 69.4902 24.8926C69.8696 24.703 70.3122 24.5767 70.7548 24.5767ZM70.7548 25.0189C70.3754 25.0189 70.0593 25.0821 69.6799 25.3348C69.3005 25.5243 69.0476 25.7771 68.8579 26.1561C68.6682 26.5352 68.5417 26.8511 68.5417 27.2302C68.5417 27.6093 68.6682 27.9883 68.8579 28.3042C69.0476 28.6201 69.3005 28.936 69.6799 29.1256C69.996 29.3151 70.3754 29.4414 70.7548 29.4414C71.1342 29.4414 71.5136 29.3151 71.8297 29.1256C72.1459 28.936 72.462 28.6833 72.6517 28.3042C72.8414 27.9252 72.9679 27.6093 72.9679 27.2302C72.9679 26.8511 72.8414 26.472 72.6517 26.1561C72.462 25.7771 72.2091 25.5243 71.8297 25.3348C71.4503 25.0821 71.1342 25.0189 70.7548 25.0189ZM69.7431 28.6201V25.7139H70.7548C71.071 25.7139 71.3239 25.7139 71.5136 25.7771C71.64 25.8402 71.7665 25.9034 71.893 26.0298C71.9562 26.1561 72.0194 26.2825 72.0194 26.472C72.0194 26.6616 71.9562 26.8511 71.7665 27.0406C71.64 27.167 71.3871 27.2934 71.1342 27.2934C71.2607 27.3565 71.3239 27.4197 71.3871 27.4197C71.5136 27.5461 71.64 27.7356 71.8297 27.9883L72.2091 28.5569H71.64L71.3871 28.1147C71.1974 27.7356 71.0077 27.5461 70.8813 27.4197C70.818 27.3565 70.6916 27.2934 70.5019 27.3565H70.249V28.6201H69.7431ZM70.249 26.9775H70.818C71.071 26.9775 71.2607 26.9143 71.3871 26.8511C71.5136 26.7879 71.5136 26.6616 71.5136 26.5352C71.5136 26.472 71.5136 26.3457 71.4503 26.2825C71.3871 26.2193 71.3239 26.1561 71.2607 26.1561C71.1974 26.093 71.0077 26.093 70.818 26.093H70.3122V26.9775H70.249Z" fill="#002169"/>
<path d="M58.0457 22.8076C58.0457 22.8076 43.4395 35.1275 43.4395 45.7416C43.4395 56.3557 49.9522 60.3992 58.0457 60.3992C66.076 60.3992 72.652 56.4189 72.652 45.7416C72.5888 35.1275 58.0457 22.8076 58.0457 22.8076ZM58.0457 57.177C52.4182 57.177 46.601 54.5235 46.601 46.1839C46.601 38.7287 54.8842 30.5155 54.8842 30.5155C54.8842 30.5155 53.8725 35.2539 58.931 42.0772C61.0808 44.9835 64.1159 47.5738 64.1159 51.4277C64.1159 53.7022 62.5351 57.177 58.0457 57.177Z" fill="#002169"/>
<path d="M41.163 49.5325C41.163 50.7961 40.9733 51.9333 40.5307 53.0074C40.0881 54.0814 39.4558 54.9659 38.6338 55.7241C37.8118 56.4822 36.7368 57.114 35.409 57.5562C34.1444 57.9985 32.4372 58.188 30.4138 58.188H22.5732C22.0674 58.188 21.688 58.0617 21.3718 57.7458C21.0557 57.4931 20.9292 56.9876 20.9292 56.2927V32.0319C20.9292 31.4001 21.0557 30.9579 21.3718 30.642C21.688 30.3892 22.0673 30.1997 22.51 30.1997H40.0248C40.2145 30.1997 40.341 30.3261 40.4042 30.4524C40.4675 30.5788 40.5307 30.7051 40.5307 30.9579C40.5307 31.1474 40.5307 31.4001 40.4042 31.716C40.341 32.0319 40.2145 32.3478 40.0248 32.79C39.8984 33.1691 39.7719 33.4218 39.6455 33.6746C39.519 33.9273 39.3293 34.1168 39.2028 34.3063C39.0764 34.4327 38.7602 34.6854 38.3176 34.6854H26.3038V41.6351H31.6152C33.3224 41.6351 34.7767 41.8247 35.9149 42.1406C37.053 42.5196 38.0015 43.0251 38.7602 43.6568C39.519 44.3518 40.1513 45.1731 40.5307 46.1208C40.9733 47.1949 41.163 48.3321 41.163 49.5325ZM35.5987 49.9116C35.5987 49.2798 35.4722 48.7112 35.2825 48.2057C35.0929 47.7003 34.7767 47.2581 34.4605 46.9422C34.0812 46.5631 33.5753 46.3104 33.0062 46.1208C32.4372 45.9313 31.6152 45.8681 30.6667 45.8681H26.367V53.955H30.7299C31.6152 53.955 32.3739 53.8919 32.943 53.7023C33.5121 53.5128 34.0179 53.2601 34.3973 52.9442C34.7767 52.6283 35.0929 52.186 35.3458 51.6806C35.5355 51.112 35.5987 50.5434 35.5987 49.9116Z" fill="#002169"/>
<path d="M98.1341 57.4933C98.1341 57.6196 98.0709 57.746 98.0076 57.8723C97.9444 57.9987 97.7547 58.0619 97.565 58.125C97.3753 58.1882 97.0592 58.2514 96.6798 58.3146C96.3004 58.3778 95.8578 58.3778 95.2887 58.3778C94.7197 58.3778 94.277 58.3778 93.8977 58.3146C93.5183 58.2514 93.2654 58.1882 93.0124 58.125C92.8227 58.0619 92.633 57.9355 92.5698 57.8723C92.5066 57.746 92.4434 57.6196 92.4434 57.4933V46.121H80.9354V57.4933C80.9354 57.6196 80.8722 57.746 80.8089 57.8723C80.7457 57.9987 80.556 58.0619 80.3663 58.125C80.1766 58.1882 79.8605 58.2514 79.4811 58.3146C79.1017 58.3778 78.6591 58.3778 78.09 58.3778C77.5209 58.3778 77.0783 58.3778 76.6989 58.3146C76.3196 58.2514 76.0666 58.1882 75.8137 58.125C75.624 58.0619 75.4343 57.9355 75.3711 57.8723C75.3079 57.746 75.2446 57.6196 75.2446 57.4933V31.0212C75.2446 30.8949 75.3079 30.7685 75.3711 30.6422C75.4343 30.5158 75.624 30.4526 75.8137 30.3894C76.0034 30.3263 76.3196 30.2631 76.6989 30.1999C77.0783 30.1367 77.5209 30.1367 78.09 30.1367C78.6591 30.1367 79.1017 30.1367 79.4811 30.1999C79.8605 30.2631 80.1134 30.3263 80.3663 30.3894C80.556 30.4526 80.7457 30.579 80.8089 30.6422C80.8722 30.7685 80.9354 30.8949 80.9354 31.0212V41.3194H92.4434V31.0212C92.4434 30.8949 92.5066 30.7685 92.5698 30.6422C92.633 30.5158 92.8227 30.4526 93.0124 30.3894C93.2021 30.3263 93.5183 30.2631 93.8977 30.1999C94.277 30.1367 94.7197 30.1367 95.2887 30.1367C95.8578 30.1367 96.3004 30.1367 96.6798 30.1999C97.0592 30.2631 97.3121 30.3263 97.565 30.3894C97.7547 30.4526 97.9444 30.579 98.0076 30.6422C98.0709 30.7685 98.1341 30.8949 98.1341 31.0212V57.4933Z" fill="#002169"/>
<path d="M32.311 96.1585V87.8188H37.3695V88.8929H33.4492V91.1673H35.03C35.4726 91.1673 35.8519 91.2305 36.1681 91.3569C36.5475 91.4832 36.8004 91.6096 37.0533 91.8623C37.3063 92.0518 37.4959 92.3677 37.6224 92.6205C37.7489 92.9364 37.8121 93.3154 37.8121 93.6945C37.8121 94.0736 37.7489 94.4527 37.6224 94.7685C37.4959 95.0844 37.3063 95.3372 37.0533 95.5267C36.8004 95.7162 36.4843 95.9058 36.1681 96.0321C35.7887 96.1585 35.4093 96.2217 35.03 96.2217H32.311V96.1585ZM33.4492 92.2414V95.0844H35.2196C35.4726 95.0844 35.6623 95.0213 35.8519 94.9581C36.0416 94.8949 36.2313 94.7685 36.3578 94.6422C36.4843 94.5158 36.6107 94.3895 36.6739 94.1999C36.7372 94.0104 36.8004 93.8209 36.8004 93.6313C36.8004 93.1891 36.6739 92.81 36.3578 92.5573C36.0416 92.3046 35.599 92.1782 35.03 92.1782H33.4492V92.2414Z" fill="#002169"/>
<path d="M44.1349 87.8188V88.8929H40.7837V91.4201H44.0716V92.4941H40.7837V95.0844H44.2613V96.1585H39.6455V87.8188H44.1349Z" fill="#002169"/>
<path d="M45.9687 96.1585V87.8188H48.2451C48.6877 87.8188 49.067 87.882 49.32 88.0084C49.6361 88.1347 49.889 88.3243 50.0787 88.5138C50.2684 88.7034 50.3949 88.9561 50.5214 89.2088C50.6478 89.4615 50.6478 89.7142 50.6478 89.9669C50.6478 90.4092 50.5214 90.7883 50.3317 91.041C50.142 91.3569 49.8258 91.5464 49.3832 91.7359C49.6994 91.7991 49.9523 91.8623 50.2052 91.9887C50.4581 92.115 50.6478 92.3046 50.8375 92.4309C51.0272 92.6205 51.1537 92.81 51.2169 93.0627C51.2801 93.3154 51.3433 93.5681 51.3433 93.8209C51.3433 94.0736 51.2801 94.3263 51.2169 94.579C51.0904 94.8317 50.964 95.0844 50.7743 95.274C50.5846 95.4635 50.2684 95.6531 49.9523 95.7794C49.6361 95.9058 49.1935 95.9689 48.6877 95.9689H45.9687V96.1585ZM47.1069 88.8929V91.4201H47.8657C48.4347 91.4201 48.8774 91.2937 49.1303 91.1042C49.3832 90.9146 49.5097 90.5356 49.5097 90.0933C49.5097 89.9669 49.5097 89.7774 49.4464 89.651C49.3832 89.5247 49.32 89.3983 49.1935 89.272C49.0671 89.1456 48.9406 89.0824 48.7509 89.0192C48.5612 88.9561 48.3715 88.8929 48.1186 88.8929H47.1069ZM47.1069 92.4941V95.1476H48.5612C48.8774 95.1476 49.1935 95.0844 49.3832 95.0213C49.5729 94.9581 49.7626 94.8317 49.889 94.7054C50.0155 94.579 50.0787 94.4526 50.142 94.2631C50.2052 94.1368 50.2052 93.9472 50.2052 93.8209C50.2052 93.6313 50.142 93.4418 50.0787 93.3154C50.0155 93.1891 49.889 92.9995 49.7626 92.9364C49.6361 92.81 49.4464 92.7468 49.1935 92.6836C49.0038 92.6205 48.6877 92.5573 48.4347 92.5573H47.1069V92.4941Z" fill="#002169"/>
<path d="M57.4767 87.8188V88.8929H54.1255V91.4201H57.3502V92.4941H54.1255V95.0844H57.6031V96.1585H52.9873V87.8188H57.4767Z" fill="#002169"/>
<path d="M59.1836 87.8188H61.6496C62.0922 87.8188 62.4716 87.882 62.7877 88.0084C63.1039 88.1347 63.3568 88.3243 63.5465 88.5138C63.7362 88.7034 63.9259 88.9561 63.9891 89.272C64.1156 89.5879 64.1156 89.9038 64.1156 90.2197C64.1156 90.5355 64.0523 90.8514 63.9259 91.1673C63.7994 91.4832 63.673 91.6728 63.42 91.9255C63.1671 92.115 62.9142 92.3046 62.598 92.4309C62.2819 92.5573 61.8393 92.6205 61.3967 92.6205H60.1953V96.2217H59.0571V87.8188H59.1836ZM60.3217 88.8929V91.4832H61.5864C61.776 91.4832 61.9657 91.4832 62.1554 91.4201C62.3451 91.3569 62.4716 91.2937 62.598 91.1673C62.7245 91.041 62.7877 90.9146 62.851 90.7251C62.9142 90.5356 62.9774 90.346 62.9774 90.1565C62.9774 90.0301 62.9774 89.8406 62.9142 89.7142C62.851 89.5879 62.7877 89.3983 62.6613 89.272C62.5348 89.1456 62.4084 89.0824 62.2187 88.9561C62.029 88.8929 61.8393 88.8297 61.5864 88.8297H60.3217V88.8929Z" fill="#002169"/>
<path d="M66.8349 87.8188H65.6968V96.2217H66.8349V87.8188Z" fill="#002169"/>
<path d="M75.8767 95.0846V97.675H74.7386V96.1587H69.4904V97.675H68.2891V95.0846H68.9846L71.5771 87.7559H72.3991L75.1812 95.0846H75.8767ZM72.0197 89.5249L70.1228 95.0846H73.9798L72.0197 89.5249Z" fill="#002169"/>
<path d="M77.331 87.8188C77.584 87.8188 77.8369 87.8189 78.0898 87.882C78.2795 87.9452 78.5324 88.0716 78.6589 88.1979C78.8486 88.3243 78.975 88.5138 79.1647 88.7665C79.2912 89.0193 79.4809 89.3351 79.6073 89.7142C79.7338 90.0301 79.8603 90.2828 79.9867 90.4724C80.1132 90.6619 80.2396 90.7883 80.3661 90.9146C80.4926 91.041 80.619 91.1042 80.7455 91.1042C80.8719 91.1673 80.9984 91.1673 81.1881 91.1673V87.8188H82.3263V91.2305C82.4527 91.2305 82.6424 91.2305 82.7689 91.1673C82.8953 91.1042 83.0218 91.041 83.1483 90.9778C83.2747 90.8514 83.4012 90.7251 83.5276 90.5355C83.6541 90.346 83.7806 90.0933 83.907 89.7774C84.0335 89.3983 84.2232 89.0824 84.3496 88.8297C84.4761 88.577 84.6658 88.3875 84.8555 88.2611C85.0452 88.1347 85.2349 88.0084 85.4246 87.9452C85.6775 87.882 85.8672 87.882 86.1833 87.882H86.373V88.9561C86.1201 88.9561 85.9304 88.9561 85.7407 89.0192C85.551 89.0824 85.4246 89.1456 85.2981 89.272C85.1716 89.3983 85.1084 89.5247 85.0452 89.7142C84.9819 89.9038 84.9187 90.0933 84.7923 90.346C84.729 90.4724 84.6658 90.6619 84.6026 90.7883C84.5393 90.9146 84.4129 91.1042 84.2864 91.2305C84.1599 91.3569 84.0335 91.4832 83.9703 91.6096C83.8438 91.736 83.7173 91.7991 83.5909 91.8623C83.7806 91.9255 83.907 91.9887 84.0335 92.0518C84.1599 92.115 84.2864 92.2414 84.3496 92.3046C84.4761 92.4309 84.5393 92.5573 84.6658 92.6836C84.7922 92.81 84.8555 92.9995 84.9819 93.2523L86.7524 96.2848H85.3613L83.907 93.7577C83.7806 93.505 83.6541 93.3154 83.5276 93.1259C83.4012 92.9363 83.2747 92.81 83.1483 92.6836C83.0218 92.5573 82.8953 92.4941 82.7056 92.4309C82.5792 92.3677 82.3895 92.3677 82.263 92.3677V96.348H81.1249V92.3677C80.9352 92.3677 80.8087 92.3677 80.6823 92.4309C80.5558 92.4941 80.4293 92.5573 80.2396 92.6836C80.1132 92.81 79.9867 92.9363 79.8603 93.1259C79.7338 93.3154 79.6073 93.505 79.4809 93.7577L78.0266 96.2848H76.6987L78.4692 93.2523C78.6589 92.8732 78.9118 92.6205 79.1015 92.3677C79.3544 92.115 79.6073 91.9887 79.8603 91.8623C79.7338 91.7991 79.6073 91.736 79.4809 91.6096C79.3544 91.4832 79.228 91.3569 79.1647 91.2305C79.0383 91.1042 78.975 90.9778 78.8486 90.7883C78.7853 90.6619 78.7221 90.4724 78.6589 90.346C78.5956 90.0933 78.4692 89.9038 78.406 89.7142C78.3427 89.5247 78.2163 89.3983 78.153 89.272C78.0266 89.1456 77.9001 89.0824 77.7104 89.0192C77.5207 88.9561 77.331 88.9561 77.0781 88.9561V87.8188H77.331Z" fill="#002169"/>
</svg>
