<svg width="512" height="618" viewBox="0 0 512 618" fill="none" xmlns="http://www.w3.org/2000/svg">
<path d="M256.187 617.487C255.147 616.562 254.37 615.938 253.669 615.238C193.268 554.824 132.404 494.821 72.6065 433.854C27.9299 388.292 4.19473 332.798 0.765392 269.023C-2.10957 215.627 10.751 165.998 38.8463 120.533C58.9659 88.2241 86.0562 60.825 118.135 40.3406C150.214 19.8562 186.469 6.80483 224.249 2.14144C277.904 -4.40729 328.709 4.98589 376.664 30.3209C403.251 44.4189 427.066 63.2171 446.954 85.8047C485.322 129.163 506.643 179.696 510.919 237.404C514.873 291.558 502.591 342.087 474.592 388.688C464.346 405.745 452.056 421.487 437.994 435.564C378.205 495.525 318.335 555.433 258.383 615.291C257.748 615.926 257.112 616.562 256.187 617.487Z" fill="#022169"/>
<path d="M256.187 617.487C255.147 616.562 254.37 615.938 253.669 615.238C193.268 554.824 132.404 494.821 72.6065 433.854C27.9299 388.292 4.19473 332.798 0.765392 269.023C-2.10957 215.627 10.751 165.998 38.8463 120.533C58.9659 88.2241 86.0562 60.825 118.135 40.3406C150.214 19.8562 186.469 6.80483 224.249 2.14144C277.904 -4.40729 328.709 4.98589 376.664 30.3209C403.251 44.4189 427.066 63.2171 446.954 85.8047C485.322 129.163 506.643 179.696 510.919 237.404C514.873 291.558 502.591 342.087 474.592 388.688C464.346 405.745 452.056 421.487 437.994 435.564C378.205 495.525 318.335 555.433 258.383 615.291C257.748 615.926 257.112 616.562 256.187 617.487Z" fill="url(#paint0_linear)" fill-opacity="0.2"/>
<defs>
<linearGradient id="paint0_linear" x1="256.813" y1="618.675" x2="257.503" y2="-108.089" gradientUnits="userSpaceOnUse">
<stop stop-color="white"/>
<stop offset="0.0001" stop-color="white"/>
<stop offset="0.961326" stop-color="white" stop-opacity="0"/>
</linearGradient>
</defs>
</svg>
