<svg width="512" height="610" viewBox="0 0 512 610" fill="none" xmlns="http://www.w3.org/2000/svg">
<path d="M256.398 609.616C255.38 608.711 254.619 608.102 253.934 607.417C194.839 548.332 135.292 489.648 76.787 430.023C33.0766 385.463 9.85469 331.19 6.49951 268.818C3.68672 216.596 16.2692 168.059 43.7569 123.594C63.4414 91.9959 89.9459 65.1996 121.331 45.1658C152.716 25.1321 188.188 12.3678 225.15 7.80698C277.645 1.4023 327.351 10.5889 374.269 35.3666C400.282 49.1544 423.582 67.5391 443.039 89.6298C480.577 132.035 501.437 181.456 505.621 237.894C509.489 290.857 497.473 340.274 470.079 385.851C460.055 402.532 448.03 417.928 434.273 431.695C375.777 490.337 317.201 548.927 258.546 607.468C257.924 608.09 257.303 608.711 256.398 609.616Z" fill="#022169" fill-opacity="0.4"/>
<path d="M256.398 609.616C255.38 608.711 254.619 608.102 253.934 607.417C194.839 548.332 135.292 489.648 76.787 430.023C33.0766 385.463 9.85469 331.19 6.49951 268.818C3.68672 216.596 16.2692 168.059 43.7569 123.594C63.4414 91.9959 89.9459 65.1996 121.331 45.1658C152.716 25.1321 188.188 12.3678 225.15 7.80698C277.645 1.4023 327.351 10.5889 374.269 35.3666C400.282 49.1544 423.582 67.5391 443.039 89.6298C480.577 132.035 501.437 181.456 505.621 237.894C509.489 290.857 497.473 340.274 470.079 385.851C460.055 402.532 448.03 417.928 434.273 431.695C375.777 490.337 317.201 548.927 258.546 607.468C257.924 608.09 257.303 608.711 256.398 609.616Z" fill="url(#paint0_linear)" fill-opacity="0.2"/>
<defs>
<linearGradient id="paint0_linear" x1="257.01" y1="610.778" x2="257.685" y2="-99.9983" gradientUnits="userSpaceOnUse">
<stop stop-color="white"/>
<stop offset="0.0001" stop-color="white"/>
<stop offset="0.961326" stop-color="white" stop-opacity="0"/>
</linearGradient>
</defs>
</svg>
