<svg width="95" height="88" viewBox="0 0 95 88" fill="none" xmlns="http://www.w3.org/2000/svg">
<path d="M38.6077 38.7449C38.65 38.7027 38.65 38.6182 38.6923 38.5759C38.6077 38.6182 38.5655 38.6182 38.481 38.6604C38.5232 38.6604 38.5655 38.7027 38.6077 38.7449C38.6077 38.7027 38.6077 38.7027 38.6077 38.7449Z" fill="#005934"/>
<path d="M94.0948 13.0566C93.5454 11.7134 92.4889 12.6788 91.7704 13.0146C89.1079 14.3158 86.5299 15.701 83.9097 17.0861C83.1067 17.5058 82.4305 18.1355 81.5853 17.0022C79.5145 14.1479 76.3871 12.469 73.8937 10.0765C68.5264 4.8717 61.9758 2.18537 54.5377 1.47181C53.608 1.38786 52.0866 0.842201 51.9598 2.18537C51.7907 3.78038 53.4389 3.10879 54.2419 3.19274C65.7371 3.94827 73.1752 11.2937 80.9514 18.7231C76.5984 21.4514 72.4145 23.5501 68.9913 26.7821C67.5544 28.1253 66.202 28.3771 64.4693 26.992C61.1729 24.3476 57.7074 24.3056 53.6925 26.0266C46.8884 28.9647 39.8729 31.3153 32.942 34.0016C30.6598 34.8831 28.4622 35.9744 26.2646 36.9818C24.236 37.9472 23.6021 39.5841 23.9825 41.7668C24.7854 46.0061 25.1235 50.4554 29.5188 52.9318C29.8146 53.0997 29.9836 53.5615 30.364 54.0232C25.2503 57.0873 20.1789 60.0674 15.1075 63.0895C11.5152 65.2302 11.3462 65.2722 9.86701 61.2847C6.7819 52.9738 4.79559 44.621 6.86642 35.5966C7.96523 30.8536 10.2051 26.7821 12.1491 22.5007C12.5295 21.6613 14.0932 20.5699 12.6563 19.7305C11.4307 19.0169 11.2616 20.7378 10.7122 21.4934C9.1063 23.5081 8.55689 26.0266 7.41582 28.2931C4.4575 33.9177 4.03488 40.2137 4.24619 46.216C4.4575 52.4701 6.57059 58.7242 9.48665 64.4327C10.2051 65.8178 9.90927 66.3215 8.72594 66.9931C6.19023 68.4622 3.78131 70.2251 1.03429 71.3164C0.400364 71.5683 -0.360349 72.072 0.189055 72.9114C0.611673 73.583 1.33012 73.2053 1.83727 72.9114C4.07714 71.6942 6.4438 70.6868 8.43011 69.1758C10.7968 67.3289 12.1914 67.7067 13.5438 70.2251C17.4319 77.4446 23.7289 81.8099 31.336 84.5802C33.914 85.5036 36.5342 86.3431 39.3235 86.469C39.9574 86.511 40.9294 86.7628 41.0562 85.7555C41.183 84.7481 40.3378 84.7901 39.6193 84.7061C28.3354 83.195 19.714 77.7384 13.9241 67.8746C13.0366 66.3215 13.6706 66.0277 14.6849 65.4401C19.7563 62.4599 24.9122 59.5218 29.8568 56.3737C31.5473 55.3244 32.2658 55.7861 33.2378 57.0873C35.2241 59.7736 37.3372 62.376 39.6193 64.8105C41.2675 66.5734 42.4931 66.5734 44.2259 65.1463C46.508 63.2994 49.1705 61.9562 51.7907 60.6131C59.905 56.5416 67.3853 51.4628 74.9079 46.4679C79.43 43.4457 78.9228 34.925 74.1895 32.3646C72.7526 31.6091 71.3579 30.7696 69.921 30.0561C68.9068 29.5524 68.8222 29.1746 69.752 28.3351C73.5133 25.1031 77.7395 22.6267 82.0079 20.1922C82.2192 19.6465 82.6841 19.5206 83.1913 19.5206C86.3186 17.8416 89.4883 16.2047 92.5734 14.5257C93.2496 14.2319 94.5597 14.1479 94.0948 13.0566ZM33.4914 52.0924C32.9842 52.4701 32.3926 53.2676 31.6741 52.5121C29.3497 50.0776 25.7997 48.3147 26.6027 43.7815C28.8426 46.174 30.9979 48.3987 33.111 50.6653C33.5336 51.043 34.2521 51.5047 33.4914 52.0924ZM39.1544 61.7464C37.3794 59.4798 35.6045 57.2552 33.8717 54.9886C33.3223 54.275 34.083 53.9812 34.5479 53.6034C35.2241 53.0997 35.689 53.1417 36.3652 53.7294C38.6473 55.828 39.3658 58.4724 39.8729 61.2427C39.6193 61.4526 39.408 61.5785 39.1544 61.7464ZM71.3157 47.0135C62.3984 52.68 53.1854 57.8008 44.0568 63.1315C43.1693 63.6352 42.6199 63.8451 42.2818 62.6278C42.2396 62.5439 42.2396 62.418 42.1973 62.334C40.211 55.1984 38.6896 56.4577 45.8741 53.3096C55.5943 49.0283 64.2157 42.9421 73.6824 38.241C74.3163 37.9472 74.8657 37.5694 75.5841 37.1496C76.8097 41.8927 75.1192 44.621 71.3157 47.0135ZM69.6675 31.777C70.4282 32.0288 71.1466 32.2387 71.6115 32.9523C72.7948 33.6658 73.9782 34.3374 75.246 35.1349C72.6681 36.9398 70.0478 38.3669 67.2586 39.5422C58.9752 45.2506 49.7199 49.2381 40.8449 53.8972C39.1122 54.8207 38.7318 53.7713 37.9289 52.9738C36.5342 51.5887 38.2247 51.4208 38.8164 50.8331C39.1122 50.5393 39.4925 50.3714 39.7884 50.1196C40.38 49.6159 41.4788 49.1962 40.7604 48.2727C40.0419 47.3493 39.239 48.2308 38.7318 48.7345C36.4074 51.001 34.7592 50.3295 32.942 47.937C31.167 45.5864 29.0539 43.5297 26.983 41.431C25.5884 39.9619 25.8842 39.0385 27.6592 38.241C29.2229 37.5274 30.7443 36.6879 32.3503 36.0583C40.1265 33.0782 47.9026 30.14 55.6788 27.2438C58.6371 26.1105 62.7788 27.1179 64.8074 29.3845C65.3145 29.9721 64.8074 30.5178 64.9342 31.1054C66.6246 30.9795 68.2306 30.8536 69.6675 31.777Z" fill="#005934"/>
<path d="M85.8531 25.6059C84.4162 26.2355 85.8109 27.7466 86.2335 28.754C90.0793 37.8623 89.7835 47.3484 87.3745 56.4148C84.7966 66.3626 78.0769 73.9179 69.5401 79.7523C68.7371 80.298 66.7508 80.5918 67.5537 81.851C68.399 83.1102 69.7091 81.6411 70.6811 81.0955C77.1894 77.4437 81.2888 71.4834 85.3882 65.6071C90.1638 58.8073 90.5019 50.9162 90.6287 41.556C90.9668 37.7364 89.8257 32.7415 87.7126 27.9565C87.3323 27.0331 87.4591 24.8924 85.8531 25.6059Z" fill="#095B37"/>
<path d="M69.2449 75.597C70.2592 74.3378 68.3997 73.918 67.808 73.1205C67.5545 72.8267 67.1741 72.5749 66.7938 72.4909C64.3003 71.9453 64.5116 70.3083 65.2723 68.5873C65.5259 67.9997 66.5402 67.496 65.5259 66.9084C64.4271 66.2788 63.9622 67.2442 63.4551 67.9997C62.5676 69.3009 63.6241 71.0218 62.3563 72.407C61.4265 71.1478 61.511 68.7972 59.4825 69.0491C56.3551 69.4268 57.6652 72.7428 56.5241 74.5896C54.9182 73.4563 54.5378 70.9799 52.1289 71.3157C52.1289 71.6934 52.1289 72.0712 52.1289 72.4489C53.27 73.8761 54.411 75.2612 55.5521 76.6463C56.2706 77.5278 56.2706 78.3253 55.1718 78.871C54.4533 79.2487 53.3968 79.4166 54.1997 80.466C54.8337 81.2635 55.7634 80.7178 56.3973 80.34C57.6652 79.6265 57.9188 78.2833 58.1723 76.9821C58.5527 75.0933 58.595 73.1205 59.7783 70.728C60.2009 73.7501 62.1027 75.3451 63.0325 77.4438C63.3283 78.1574 63.9622 78.745 64.6807 78.3253C65.4836 77.8636 64.8074 77.15 64.6384 76.4784C64.4271 75.597 62.9057 74.7575 64.1313 73.8761C64.9765 73.2884 66.033 74.1279 66.8783 74.6736C67.5967 75.1773 68.2729 76.8142 69.2449 75.597Z" fill="#0E5D3A"/>
<path d="M17.0094 22.0381C16.3332 22.9196 17.0517 23.5492 17.5588 24.1368C18.235 24.9763 19.038 25.7738 19.7987 26.6553C18.6154 27.075 17.7702 26.2775 16.7559 26.2775C15.7416 26.2775 14.6005 26.0676 14.1779 27.2849C13.7553 28.5021 14.685 29.1317 15.5725 29.6354C17.4321 30.6848 19.2493 31.6921 21.1088 32.7415C21.5737 32.9933 22.1231 33.2032 22.4612 32.6995C22.9261 32.0699 22.588 31.5662 21.9963 31.2304C20.6862 30.5169 19.5451 29.4675 17.3898 29.0898C19.3338 28.4182 20.3059 29.2157 21.4047 29.2996C22.2499 29.3416 23.3487 30.1391 23.9826 29.2157C24.7856 28.0404 23.1797 27.9145 22.757 27.2009C22.3344 26.5293 21.4892 26.0257 21.616 24.8084C22.757 25.438 23.6445 25.9417 24.4898 26.4454C25.0392 26.7392 25.6309 27.159 26.0957 26.5293C26.7297 25.6899 25.9689 25.2282 25.3773 24.8924C23.3487 23.7591 21.2779 22.6677 19.2071 21.6604C18.4463 21.2406 17.6011 21.2826 17.0094 22.0381Z" fill="#0C5C39"/>
<path d="M22.6285 11.7126C24.6993 10.2436 26.094 8.06091 28.5029 6.92761C34.4195 4.24128 40.5898 2.73022 47.0558 2.56232C47.8165 2.56232 48.9576 2.89811 48.9999 1.76482C49.0844 0.589547 47.9433 0.841391 47.1826 0.799417C46.76 0.757443 46.3796 0.799417 45.957 0.799417C36.8707 1.80679 27.9535 3.2339 21.3606 10.4534C20.8112 11.0411 19.2475 11.2509 20.0928 12.3422C21.0225 13.5595 21.91 12.2583 22.6285 11.7126Z" fill="#0E5D3A"/>
<path d="M46.1697 11.9645C45.9161 9.61399 46.6768 8.01898 46.0429 6.42397C45.8316 5.87831 45.6203 5.45857 44.9864 5.71041C44.6905 5.83634 44.3102 6.25607 44.2679 6.54989C44.1834 9.06833 44.1834 11.5868 44.1411 14.1052C44.1411 14.7768 44.4369 15.3224 45.0286 15.5743C45.8316 15.9101 46.381 15.4064 46.8036 14.7768C47.7756 13.2657 48.7476 11.7127 49.9732 9.78188C50.6072 11.9645 49.1703 13.6015 49.7619 15.2805C49.931 15.7002 50.3113 16.2459 50.6917 16.3298C51.3256 16.4977 51.5792 15.9101 51.5369 15.3644C51.3256 13.1398 52.3822 10.9991 52.0018 8.73254C51.875 7.93503 51.9173 7.05358 50.9453 6.75976C50.0155 6.46594 49.4238 7.05358 48.959 7.76714C48.1137 9.06833 47.2685 10.2856 46.1697 11.9645Z" fill="#15603D"/>
<path d="M52.0449 71.3154C50.2699 70.9376 49.1711 71.2734 49.3401 73.456C49.4669 74.7572 49.0443 76.1004 49.2556 77.3596C49.5092 78.9126 49.002 79.1645 47.6074 79.3743C45.7479 79.6682 45.8324 78.5768 45.7901 77.4435C45.7479 75.9325 45.7479 74.4214 45.7479 72.9104C45.7479 72.1968 45.8747 71.3153 44.9449 71.2314C43.8884 71.1055 43.9729 72.0709 43.9729 72.7425C43.9306 74.4634 43.9729 76.1843 43.9729 77.9053C44.0151 80.3397 44.9026 81.7249 47.7342 81.2632C48.6217 81.0953 50.1008 80.8015 50.3122 82.3965C50.3967 83.0681 50.4812 83.7816 51.1574 83.7816C52.0449 83.8236 52.1294 82.9421 52.2562 82.2286C52.5098 81.0953 52.2139 80.1718 51.7068 79.1225C50.6925 76.9399 50.4389 74.5893 52.0872 72.4486C51.6645 72.0709 51.7068 71.6931 52.0449 71.3154Z" fill="#1C623F"/>
<path d="M52.0406 72.4487C52.0406 72.071 52.0406 71.6932 52.0406 71.3154C51.7026 71.6932 51.6603 72.071 52.0406 72.4487Z" fill="#1C623F"/>
<path d="M13.4634 41.6819C13.4634 42.3954 13.1253 42.8152 12.3645 42.8571C11.477 42.9411 11.0544 42.5633 11.0544 41.6399C11.0544 40.6325 11.0967 39.6671 11.5193 38.6597C11.7306 38.1141 11.6461 37.4005 10.8854 37.1907C10.0401 36.9808 9.99789 37.6524 9.74432 38.24C7.71575 42.8991 8.73003 44.5361 13.8437 44.62C14.1395 44.62 14.4776 44.62 14.7735 44.62C18.7461 45.0398 18.7461 45.0398 19.0419 40.8424C18.9997 39.835 20.0985 37.7363 18.2389 37.6104C16.8443 37.4845 17.6473 39.835 17.1824 41.0103C17.0979 41.1782 17.1824 41.43 17.1401 41.5979C16.9288 42.1436 17.6473 43.1929 16.3372 43.109C15.3651 43.067 15.5342 42.1856 15.2384 41.5559C14.6467 40.3387 15.9145 37.9042 14.3509 37.9462C12.4913 38.0721 13.4211 40.2967 13.4634 41.6819Z" fill="#115E3B"/>
<path d="M11.3902 54.274C10.8408 54.6098 10.2491 54.9036 10.545 55.6591C10.7563 56.2468 11.3479 56.1628 11.8551 56.0369C14.3485 55.4912 16.7997 54.9875 19.2932 54.3999C20.0116 54.232 21.195 54.1061 20.7723 52.9728C20.392 51.9234 19.3777 52.4271 18.7015 52.7209C16.9688 53.4765 15.8277 53.4345 15.7432 51.1259C15.7009 49.5729 16.9265 49.7828 17.7717 49.363C18.5325 49.0272 19.9271 49.0692 19.6313 47.852C19.2932 46.3409 18.1521 47.5581 17.3914 47.5581C15.236 47.5581 13.1652 48.1038 11.1366 48.7754C10.3759 49.0272 9.23486 48.9433 9.31938 49.9926C9.44617 51.2519 10.5872 50.5383 11.3902 50.6642C13.5033 50.1186 14.5176 51.1259 14.0527 53.1827C13.7991 54.232 12.2354 53.8123 11.3902 54.274Z" fill="#175F3C"/>
<path d="M33.1946 19.7297C34.4625 18.8902 35.1386 17.7149 35.0119 16.1619C34.9696 15.4483 34.9696 14.5669 34.0398 14.5249C33.0678 14.4829 33.1523 15.3644 33.1523 16.0779C33.1523 17.4631 32.6452 18.6383 31.0392 18.2606C29.222 17.7989 27.9964 16.4977 28.1654 14.5249C28.3345 12.9719 29.4333 12.4262 30.4898 12.6361C31.6309 13.0558 32.4339 13.3916 32.772 12.5101C33.0678 11.6707 32.1803 11.3769 31.5464 11.0411C30.4898 10.4534 29.5178 10.3695 28.4613 11.167C27.1934 12.0904 26.1369 13.0138 26.3059 14.8187C26.5172 17.0014 27.5315 18.5544 29.4756 19.6037C30.7011 20.2753 31.9267 20.5272 33.1946 19.7297Z" fill="#135F3C"/>
<path d="M62.5662 9.15229C60.3686 8.35478 58.2132 7.64123 56.4382 7.01162C55.3817 6.88569 54.9168 7.13754 54.79 7.6832C54.621 8.27083 55.1281 8.6486 55.6352 8.73255C57.9174 9.06834 57.4525 10.3695 57.0721 11.9645C56.8186 12.9719 56.3114 13.8114 56.0579 14.7768C55.8043 15.7422 54.8323 17.1693 56.2692 17.589C57.4948 17.9248 57.368 16.2879 57.7483 15.4064C58.0864 14.5669 58.6358 13.7694 58.7626 12.9299C59.0162 10.9152 59.4811 9.53005 61.89 10.7893C62.3971 11.0411 62.862 11.0411 63.1156 10.4115C63.2846 9.82387 63.0733 9.36216 62.5662 9.15229Z" fill="#19603E"/>
<path d="M41.0542 8.39648C41.2655 8.3545 41.4346 7.97674 41.5613 7.80884C41.6459 6.75949 40.9274 6.67555 40.3358 6.84344C38.2649 7.34713 36.2364 7.93476 34.2078 8.5224C33.4893 8.73227 32.7709 9.11003 33.1512 9.99149C33.4471 10.705 34.1655 10.4952 34.7149 10.2433C36.7012 9.3199 37.2084 10.3693 37.4197 12.0902C37.5465 12.9716 37.9268 13.8531 38.1381 14.6926C38.3917 15.616 37.7155 17.4209 39.4483 17.0851C40.7584 16.8332 39.9131 15.1963 39.9131 14.1889C39.9131 13.6852 39.7441 13.1815 39.575 12.7198C39.0256 10.9149 38.0114 8.98411 41.0542 8.39648Z" fill="#1E6340"/>
<path d="M63.747 82.2709C60.0703 83.74 56.2244 84.7054 52.3786 85.7548C51.7447 85.9227 51.1953 86.1745 51.3221 86.93C51.4488 87.7695 52.1673 87.7275 52.759 87.5596C56.6471 86.3844 60.5351 85.1671 64.381 83.9919C64.8881 83.824 65.2685 83.4882 65.3952 82.8166C65.1417 82.0191 64.4655 82.0191 63.747 82.2709Z" fill="#1C603E"/>
<path d="M21.5314 16.2876C21.2356 16.5394 20.8975 16.6654 20.8552 16.8752C20.6861 17.4209 20.9397 17.8406 21.3623 18.1764C23.2219 19.9813 25.0814 21.8282 26.9832 23.633C27.4058 24.0528 27.9129 24.6404 28.5046 24.1367C29.2653 23.5071 28.7582 22.8775 28.2088 22.3738C26.4338 20.6109 24.6588 18.806 22.8415 17.0851C22.4611 16.7493 21.9963 16.5814 21.5314 16.2876Z" fill="#175F3D"/>
<path d="M14.7283 18.2605C15.5736 18.3445 18.7432 14.6508 18.4051 13.8952C18.2361 13.4755 17.8135 13.2236 17.4754 13.4755C15.9962 14.4829 14.6016 15.6162 14.0522 17.421C13.9676 17.7568 14.2212 18.2605 14.7283 18.2605Z" fill="#266546"/>
<path d="M45.9601 85.3347C44.9881 85.6705 43.0863 84.7051 43.0018 86.3421C42.9173 87.8532 44.7768 87.2236 45.7066 87.1816C46.7208 87.1396 48.6226 87.8532 48.5804 86.0483C48.5381 84.7051 46.9322 85.5026 45.9601 85.3347Z" fill="#2D6A4A"/>
<path d="M82.0103 20.2751C82.6864 21.4504 83.3626 22.6676 83.9966 23.8429C84.3347 24.3885 84.7995 24.8502 85.4335 24.4725C86.0674 24.0947 85.8138 23.4231 85.6025 22.8775C85.0954 21.5763 84.1656 20.5689 83.1936 19.5615C82.94 20.0232 82.5597 20.2751 82.0103 20.2751Z" fill="#2D6849"/>
<path d="M82.0103 20.2751C82.5597 20.2751 82.94 20.0233 83.1936 19.6036C82.6864 19.5616 82.2216 19.7295 82.0103 20.2751Z" fill="#2D6849"/>
<path d="M67.0038 35.2597C66.877 35.2597 66.7503 35.2177 66.6657 35.1758C66.5389 35.4696 66.4544 35.7214 66.3276 36.0152C66.4544 36.1831 66.5389 36.351 66.6657 36.477C66.708 36.435 66.708 36.393 66.7503 36.351C68.652 35.5955 69.5395 33.3709 71.6526 32.9511C71.1877 32.2376 70.427 32.0277 69.7086 31.7759C70.5116 34.2523 68.7366 34.7141 67.0038 35.2597Z" fill="#1A613F"/>
<path d="M66.6689 36.4772C66.7112 36.5612 66.7957 36.6451 66.838 36.7291C69.0779 36.2674 70.4302 34.6723 71.6558 32.9514C69.5427 33.3712 68.6552 35.5958 66.7535 36.3513C66.7112 36.3933 66.6689 36.4353 66.6689 36.4772Z" fill="#1A613F"/>
<path d="M66.8343 34.8402C66.792 34.9662 66.7498 35.0501 66.7075 35.176C66.8343 35.218 66.9188 35.218 67.0456 35.26C68.7784 34.7563 70.5533 34.2526 69.7081 31.8181C69.8349 33.8329 68.0599 34.1267 66.8343 34.8402Z" fill="#1A613F"/>
<path d="M66.5823 67.286C66.6246 70.0143 68.9067 72.197 71.6537 72.113C74.1894 72.0711 75.7109 70.3921 75.6686 67.7897C75.6263 65.1873 73.0061 62.6689 70.5549 62.7948C68.2305 62.9207 66.5401 64.8096 66.5823 67.286ZM73.7668 67.9156C73.9359 69.3008 73.1752 70.3081 71.6537 70.3081C69.7097 70.3081 68.6109 69.1749 68.4841 67.328C68.3573 65.8589 69.118 64.8096 70.7662 64.5997C72.6258 64.8935 73.5133 66.2367 73.7668 67.9156Z" fill="#1A613F"/>
<path d="M67.1752 12.6359C67.6824 12.2161 68.2318 11.7964 67.7669 11.2088C67.2175 10.4952 66.4568 10.873 65.8651 11.2927C64.5128 12.3001 64.1324 13.979 63.2026 15.3222C62.4842 16.4135 60.7092 17.3789 61.6812 18.89C62.6532 20.443 64.4705 21.1146 65.8651 21.4084C67.5979 21.5763 68.5699 21.1146 68.9925 19.8974C69.4997 18.3863 68.9503 17.0012 67.6824 16.2036C65.8229 15.1123 65.2735 14.063 67.1752 12.6359ZM67.2598 18.932C67.0907 19.8134 66.3723 19.7714 65.9074 19.5196C65.0622 19.1418 63.7943 19.0159 63.752 17.8406C63.7098 17.253 64.2169 16.3296 65.0622 16.7073C66.0342 17.1271 67.0907 17.6727 67.2598 18.932Z" fill="#175F3C"/>
<path d="M76.7244 56.2047C74.1464 55.3652 73.3857 57.38 72.2869 58.933C71.7375 59.6885 71.019 60.528 72.1601 61.2416C74.4 62.6267 76.6821 63.9279 78.9643 65.2711C79.3446 65.4809 79.8518 65.5229 80.0208 65.0612C80.1476 64.7674 80.1053 64.0538 79.9785 64.0118C77.4428 62.8366 77.5696 61.0317 78.5416 59.3527C78.6684 57.5898 78.119 56.6664 76.7244 56.2047ZM76.7666 59.2268C76.5553 59.9823 76.3018 60.7798 75.2875 60.8638C74.8226 60.528 73.9351 60.4441 74.1464 59.6885C74.4 58.891 74.7381 57.8417 75.9214 57.9256C76.6399 57.9676 76.9357 58.5552 76.7666 59.2268Z" fill="#115E3B"/>
<path d="M59.987 30.3071C56.9019 31.4404 53.5632 32.07 51.3233 34.8403C51.281 34.8823 51.281 34.9242 51.2388 34.9662C51.6614 35.4279 51.9995 35.9736 52.1263 36.6452C52.9292 37.0229 53.69 37.4427 54.4929 37.8204C55.9298 37.8624 57.3667 37.8624 58.8036 37.9044C60.0715 37.1069 59.5221 35.8896 59.2685 34.7563C61.0858 34.7144 61.8042 36.2254 63.0721 36.6032C63.5792 36.897 64.0864 37.2328 64.5935 37.5266C64.5935 37.5266 64.5935 37.5266 64.6358 37.5266C65.0584 37.4846 65.4387 37.6525 65.8191 37.8624C65.8614 37.9044 65.8614 37.9044 65.9036 37.9464C66.1572 37.5266 66.3262 37.1069 66.5375 36.6871C66.3685 36.6032 66.2417 36.4773 66.1149 36.3513C65.6923 36.855 65.312 36.3094 65.1006 35.9316C64.7203 35.2181 65.2697 34.9242 65.6923 34.5465C65.1006 33.5811 64.1709 32.7836 64.2554 31.5663C63.2411 31.6083 62.3959 31.0626 61.4239 30.7688C60.959 30.5589 60.4096 30.1812 59.987 30.3071ZM52.5489 33.8329C54.5775 33.749 55.9721 34.0008 57.1554 35.7217C54.9578 36.5192 53.9013 35.4279 52.5489 33.8329ZM63.7483 33.5391C61.8465 33.3712 60.1983 33.4132 59.0572 31.3565C61.0435 31.4404 62.5227 31.7762 63.7483 33.5391Z" fill="#065C37"/>
<path d="M54.6228 37.9054C54.5801 37.8629 54.5374 37.8629 54.4946 37.8203C54.5374 37.8629 54.5801 37.9054 54.6228 37.9054Z" fill="#065C37"/>
<path d="M65.8174 37.8623C65.4793 37.6105 65.0567 37.4845 64.6341 37.5265C64.6341 37.5265 64.6341 37.5265 64.5918 37.5265C64.6763 37.5685 64.7608 37.6524 64.8454 37.6944C65.0567 37.9462 65.268 38.1561 65.5216 38.408C65.6483 38.282 65.7751 38.1141 65.9019 37.9462C65.8596 37.9043 65.8597 37.8623 65.8174 37.8623Z" fill="#065C37"/>
<path d="M51.3272 34.8401C53.5248 32.0698 56.9058 31.4402 59.9909 30.3069C60.3713 30.181 60.9629 30.5587 61.4278 30.6847C62.3576 30.9785 63.2028 31.5241 64.2593 31.4822C64.2593 31.3562 64.3016 31.2303 64.3016 31.1044C61.9772 30.097 59.6951 28.4181 57.0326 30.3069C55.6802 31.2723 54.4123 32.2797 52.5106 32.1957C51.1582 32.1118 50.8623 33.413 50.9469 34.6302C51.0737 34.7142 51.1582 34.8401 51.285 34.966C51.285 34.924 51.3272 34.8821 51.3272 34.8401Z" fill="#065C37"/>
<path d="M65.9087 37.9042C66.2045 38.1561 66.6271 38.324 66.923 38.5758C67.092 38.5338 67.2188 38.4079 67.3456 38.1981C67.726 37.5684 67.092 37.1907 66.8385 36.729C66.7539 36.729 66.6694 36.687 66.5849 36.645C66.3313 37.0648 66.1623 37.5265 65.9087 37.9042Z" fill="#065C37"/>
<path d="M65.5269 38.366C65.9917 38.366 66.4989 38.7018 66.9215 38.5759C66.6257 38.324 66.203 38.1561 65.9072 37.9043C65.8227 38.0722 65.6959 38.2401 65.5269 38.366Z" fill="#065C37"/>
<path d="M64.2578 31.5244C64.1733 32.7416 65.1031 33.5811 65.6947 34.5045C65.8638 34.3786 65.9906 34.2107 66.0328 34.0428C65.5257 33.1614 65.0185 32.3219 64.4691 31.4404C64.4269 31.4824 64.3424 31.4824 64.3001 31.4824C64.3001 31.5244 64.2578 31.5244 64.2578 31.5244Z" fill="#065C37"/>
<path d="M64.2563 31.5253H64.2986C64.3831 31.5253 64.4254 31.4833 64.4677 31.4833C64.3831 31.3571 64.3409 31.2729 64.2563 31.1467C64.2563 31.2729 64.2563 31.3991 64.2563 31.5253Z" fill="#065C37"/>
<path d="M66.5425 36.645C66.5848 36.603 66.5848 36.5191 66.627 36.4771C66.5003 36.3092 66.4157 36.1413 66.2889 36.0154C66.2044 36.1413 66.1622 36.2252 66.0776 36.3092C66.2467 36.4771 66.3735 36.561 66.5425 36.645Z" fill="#065C37"/>
<path d="M66.8351 36.7291C66.7929 36.6452 66.7083 36.5612 66.6661 36.4773C66.6238 36.5193 66.5815 36.5612 66.5815 36.6452C66.6238 36.6872 66.7083 36.7291 66.8351 36.7291Z" fill="#065C37"/>
<path d="M36.4929 37.9043C37.2537 39.2894 38.5638 40.0869 39.5358 41.1783C40.2542 41.9758 41.2685 42.8992 40.3388 44.0325C39.2822 45.2917 38.0566 44.9139 36.831 44.0745C35.1828 42.9412 34.1685 41.1363 32.0132 39.5833C33.0275 41.1363 33.9995 41.8498 34.7179 42.7733C36.4507 44.83 38.3102 46.3411 41.184 44.4522C43.0858 43.193 44.5649 45.3757 46.3399 45.3337C46.4245 45.3337 46.4667 45.3337 46.5512 45.3337C46.5512 45.2917 46.5512 45.2497 46.5512 45.1658C44.903 43.9485 43.2548 42.6893 41.6489 41.4721C40.6769 40.5067 38.9019 40.3388 38.606 38.6598C38.5638 38.6179 38.5638 38.6179 38.5215 38.5759C37.7185 38.7438 37.2537 38.0722 36.4929 37.9043Z" fill="#135D3B"/>
<path d="M46.5518 45.3756C46.4673 45.3756 46.425 45.3756 46.3405 45.3756C44.5655 45.4176 43.0864 43.235 41.1846 44.4942C38.3108 46.383 36.4512 44.8719 34.7185 42.8152C33.9578 41.8918 32.9858 41.1782 32.0138 39.6252C34.1268 41.1782 35.1834 42.9831 36.8316 44.1164C38.0572 44.9559 39.3251 45.2917 40.3393 44.0744C41.3114 42.8992 40.2971 42.0177 39.5364 41.2202C38.5643 40.1289 37.212 39.3734 36.4935 37.9462C37.212 38.1141 37.7191 38.7857 38.4798 38.7018C37.9304 38.1981 37.381 37.6524 36.7893 37.1907C36.2822 36.771 35.7328 35.9315 35.0143 36.729C34.3804 37.4426 35.0143 37.9882 35.5215 38.5339C36.7048 39.6672 37.9304 40.7165 38.987 41.9338C39.4096 42.4375 41.1423 42.7313 39.7477 43.9065C38.9447 44.5781 38.0995 44.8719 37.1697 43.7387C35.8173 42.1017 34.1691 40.7585 32.7322 39.2055C32.3096 38.7438 31.9292 38.1561 31.253 38.6178C30.4078 39.2055 30.915 40.003 31.3376 40.4647C32.8167 42.1017 34.5495 43.5288 35.9864 45.2077C37.212 46.5929 38.3108 46.8867 39.959 45.9213C41.5227 44.9979 43.1709 44.0744 44.7346 46.1312C45.1994 46.7608 46.0024 46.7188 46.5518 46.0052C46.5941 45.7534 46.5941 45.5435 46.5518 45.3756Z" fill="#135D3B"/>
<path d="M42.4933 40.7585C44.057 40.8845 45.2403 41.9758 46.5927 42.6054C48.2409 43.3609 47.9028 44.2424 46.804 45.0399C46.804 45.0819 46.8463 45.0819 46.8463 45.1238C46.8463 45.2078 46.8463 45.2917 46.8463 45.3757C47.607 45.3757 48.3677 45.3337 49.1707 45.4177C48.4522 42.8153 47.3111 40.4228 45.4094 38.408C44.9867 37.9883 44.8599 37.3587 45.1135 36.729C45.1558 36.6871 45.2403 36.6451 45.2826 36.6031C45.1558 36.4772 45.029 36.3513 44.9022 36.2673C44.3951 36.6451 44.1415 37.1068 44.057 37.7364C43.8879 39.3734 42.8736 39.4574 41.6903 38.8277C40.7183 38.2821 39.7463 38.0722 38.732 38.5759C38.6897 38.6179 38.6897 38.7018 38.6475 38.7438C40.1266 38.9956 41.3945 39.7092 42.4933 40.7585Z" fill="#135F3C"/>
<path d="M41.6444 38.7858C42.8277 39.4154 43.842 39.3734 44.011 37.6944C44.0955 37.0648 44.3914 36.6031 44.8563 36.2253C44.7295 36.0994 44.6027 36.0155 44.4759 35.8896C40.8414 35.5538 44.9408 38.45 42.3206 38.9956C41.6444 39.1635 40.3342 34.9661 38.686 38.5339C39.7003 38.0302 40.6301 38.2401 41.6444 38.7858Z" fill="#135F3C"/>
<path d="M49.1299 45.4175C48.3692 45.3335 47.6085 45.4175 46.8055 45.3755C46.8055 45.5854 46.721 45.7533 46.5942 45.9211C47.524 46.7606 48.3692 45.9211 49.2145 45.7533C49.2145 45.6273 49.1722 45.5434 49.1299 45.4175Z" fill="#135F3C"/>
<path d="M46.8456 45.1239C46.8456 45.0819 46.8034 45.0819 46.8034 45.0398C46.7189 45.0819 46.6343 45.166 46.5498 45.2081C46.5498 45.2501 46.5498 45.2922 46.5498 45.3763C46.6343 45.3763 46.7189 45.3763 46.8456 45.3763C46.8456 45.2922 46.8456 45.2081 46.8456 45.1239Z" fill="#135F3C"/>
<path d="M46.5498 45.3755C46.5498 45.5438 46.5921 45.7541 46.5921 45.9223C46.7189 45.7541 46.8034 45.5858 46.8034 45.3755C46.7611 45.3755 46.6343 45.3755 46.5498 45.3755Z" fill="#135F3C"/>
<path d="M47.8171 40.297C46.8873 39.1637 45.4927 38.3662 45.3236 36.6872C45.2814 36.6452 45.2391 36.6452 45.2391 36.6033C45.1968 36.6452 45.1123 36.6872 45.07 36.7292C44.8165 37.3588 44.9433 37.9884 45.3659 38.4081C47.2677 40.4229 48.4087 42.8154 49.1272 45.4178C49.2117 45.4178 49.254 45.4598 49.3385 45.5017C49.9302 43.487 49.0849 41.85 47.8171 40.297Z" fill="#135F3C"/>
<path d="M49.1309 45.4175C49.1731 45.5437 49.2154 45.6699 49.2576 45.7961C49.2999 45.7119 49.3422 45.5857 49.3422 45.5016C49.2999 45.4595 49.2154 45.4175 49.1309 45.4175Z" fill="#135F3C"/>
<path d="M45.3687 36.519C46.4675 35.8054 47.355 36.6449 47.9466 37.4004C50.2288 40.4225 52.849 40.1287 55.6805 38.7016C55.6383 38.6596 55.596 38.6177 55.5115 38.5757C55.2579 38.5757 55.0466 38.5337 54.793 38.4917C53.7365 38.2819 52.7645 37.8202 52.0038 37.0226C51.877 36.8967 51.7924 36.8128 51.7079 36.6869C50.9895 36.6869 50.5246 36.3091 50.3555 35.5536C48.6228 35.0079 47.0169 35.8474 45.3687 36.1412C45.3687 36.2251 45.3687 36.3511 45.3687 36.519Z" fill="#135D3B"/>
<path d="M45.3257 36.1413C46.9739 35.8475 48.5376 35.008 50.3126 35.5537C50.3126 35.5117 50.2703 35.4278 50.2703 35.3858C49.7209 34.5883 49.2138 32.1958 48.1572 34.2525C47.2275 36.0994 46.8894 35.008 46.0442 34.7142C44.9031 34.2945 44.6918 35.134 44.4805 35.9315C44.9876 35.7636 45.2412 35.8475 45.3257 36.1413Z" fill="#135D3B"/>
<path d="M51.6631 36.687C51.7476 36.8129 51.8321 36.9389 51.9589 37.0228C52.7619 37.7783 53.6917 38.24 54.7482 38.4919C55.0018 38.5339 55.2131 38.5339 55.4666 38.5758C55.1708 38.366 54.875 38.1561 54.6214 37.9462C54.5791 37.9043 54.5369 37.9043 54.4946 37.8623C53.6917 37.4845 52.9309 37.0648 52.128 36.687C52.0012 36.687 51.8321 36.687 51.6631 36.687Z" fill="#135D3B"/>
<path d="M47.9466 37.3583C47.3972 36.6028 46.5097 35.8053 45.3687 36.4769C45.3687 36.5189 45.3687 36.6028 45.3687 36.6448C47.6931 37.4843 48.9609 39.7509 51.074 40.8422C51.7924 41.2199 53.018 41.8496 52.9758 40.9261C52.9335 38.6176 53.9055 39.7928 54.793 40.0447C55.6383 40.2965 56.1877 40.0027 56.2299 39.0793C56.0186 38.9534 55.8496 38.7855 55.6383 38.6595C52.8067 40.0867 50.1865 40.3805 47.9466 37.3583Z" fill="#135D3B"/>
<path d="M45.3194 36.1414C45.1926 36.1834 45.0235 36.1834 44.8968 36.1834L44.8545 36.2255C44.9813 36.3517 45.1081 36.4779 45.2348 36.562C45.2771 36.5199 45.3194 36.5199 45.3616 36.4779C45.3616 36.3517 45.3616 36.2255 45.3194 36.1414Z" fill="#135D3B"/>
<path d="M44.9031 36.1841C45.0299 36.1841 45.1989 36.142 45.3257 36.142C45.2412 35.8476 44.9876 35.7634 44.4805 35.9317C44.6073 36.0579 44.734 36.142 44.8608 36.2682C44.8608 36.2262 44.9031 36.2262 44.9031 36.1841Z" fill="#135D3B"/>
<path d="M45.3702 36.519C45.3277 36.5613 45.2852 36.5613 45.2427 36.6035C45.2852 36.6458 45.3277 36.6458 45.3277 36.688C45.3702 36.6035 45.3702 36.5613 45.3702 36.519Z" fill="#135D3B"/>
<path d="M62.4841 38.1564C58.8073 40.8007 55.2573 43.6969 51.327 45.9635C51.1579 46.0475 50.9889 46.1734 50.8198 46.2993C51.8341 46.5512 52.5948 45.6277 53.3555 45.124C57.1591 42.8155 60.371 39.6674 64.3436 37.6107C63.921 37.5687 63.4984 37.4848 63.0757 37.3169C63.0335 37.6947 62.7799 37.9465 62.4841 38.1564Z" fill="#19603D"/>
<path d="M53.3982 45.1657C52.5953 45.6274 51.8768 46.5508 50.8625 46.341C50.4399 46.5928 50.0173 46.7187 49.5947 46.0471C49.4256 48.7335 50.9893 47.7261 52.0036 47.0125C56.3566 43.9904 60.625 40.8424 64.8935 37.7363C64.7244 37.7363 64.5554 37.6943 64.3863 37.6943C60.4137 39.7091 57.2018 42.8571 53.3982 45.1657Z" fill="#19603D"/>
<path d="M63.1179 37.3588C63.5406 37.5267 63.9632 37.6106 64.3858 37.6526C64.4703 37.6106 64.5548 37.5687 64.5971 37.5267C64.09 37.2329 63.5828 36.8971 63.0757 36.6033C63.2025 36.8971 63.2025 37.107 63.1179 37.3588Z" fill="#19603D"/>
<path d="M64.3848 37.6531C64.5538 37.6531 64.7229 37.6954 64.8919 37.6954C64.8074 37.6531 64.7229 37.5686 64.6383 37.5264C64.5538 37.5686 64.4693 37.6109 64.3848 37.6531Z" fill="#19603D"/>
<path d="M62.4854 38.1562C62.7812 37.9464 63.0348 37.6526 63.1193 37.3168C62.908 37.2328 62.7389 37.1489 62.5276 37.0229C58.5127 40.213 54.5401 43.4869 49.9336 45.7955C50.0181 45.8375 50.1026 45.9214 50.1872 46.0054C50.4407 46.1733 50.652 46.2572 50.8634 46.2992C51.0324 46.1733 51.2014 46.0473 51.3705 45.9634C55.2586 43.6968 58.8086 40.8426 62.4854 38.1562Z" fill="#19603D"/>
<path d="M50.8172 46.3411C50.6059 46.2991 50.3946 46.2152 50.141 46.0473C50.0565 45.9633 49.9719 45.9214 49.8874 45.8374C49.7606 45.8794 49.6338 45.9633 49.5493 46.0053C49.9719 46.7189 50.4368 46.5929 50.8172 46.3411Z" fill="#19603D"/>
<path d="M63.1185 37.3588C63.203 37.1489 63.203 36.8971 63.0763 36.6033C62.9072 36.7712 62.6959 36.8971 62.5269 37.065C62.7382 37.1909 62.9072 37.2749 63.1185 37.3588Z" fill="#19603D"/>
<path d="M56.0229 38.6203C56.0229 38.5771 55.9792 38.5771 55.9355 38.5339L56.0229 38.6203Z" fill="#ABBEB2"/>
<path d="M38.562 38.7017C38.562 38.7017 38.6084 38.7475 38.562 38.7017C38.6084 38.7475 38.6084 38.7475 38.562 38.7017Z" fill="#E7ECE9"/>
</svg>
