<svg width="45" height="44" viewBox="0 0 45 44" fill="none" xmlns="http://www.w3.org/2000/svg">
<path d="M44.5 0H0V44H44.5V0Z" fill="#55ACEE"/>
<path d="M35 15.1307C34.154 15.4923 33.2446 15.7364 32.2898 15.8462C33.264 15.2837 34.0123 14.3932 34.3645 13.3322C33.453 13.8528 32.4431 14.2312 31.3683 14.4349C30.5075 13.5516 29.281 13 27.9239 13C25.3177 13 23.205 15.0345 23.205 17.5439C23.205 17.9003 23.2468 18.247 23.3272 18.5796C19.4054 18.39 15.9285 16.581 13.6012 13.8316C13.195 14.5028 12.9623 15.2834 12.9623 16.1163C12.9623 17.6927 13.7953 19.0835 15.0614 19.8985C14.2879 19.875 13.5603 19.6704 12.9242 19.33C12.9238 19.349 12.9238 19.368 12.9238 19.3874C12.9238 21.589 14.5504 23.4255 16.709 23.8431C16.313 23.947 15.896 24.0025 15.4658 24.0025C15.1617 24.0025 14.8661 23.9738 14.5779 23.921C15.1785 25.7261 16.9212 27.04 18.986 27.0768C17.371 28.2956 15.3364 29.022 13.1256 29.022C12.7447 29.022 12.3691 29.0005 12 28.9586C14.0883 30.248 16.5685 31 19.2334 31C27.9129 31 32.6593 24.0758 32.6593 18.0708C32.6593 17.8737 32.6546 17.6779 32.6455 17.4829C33.5674 16.8423 34.3677 16.0421 35 15.1307Z" fill="white"/>
</svg>
