<svg width="106" height="106" viewBox="0 0 106 106" fill="none" xmlns="http://www.w3.org/2000/svg">
<g id="white-cone">
<path d="M0 0.0917735C0 0.367128 0 0.550697 0 0.734266C0 3.80905 0 6.88384 0 9.98157C5.43972 9.98157 9.86954 5.55296 9.86954 0.11472C9.86954 0.0917735 9.86954 0.0688273 9.86954 0.0458811C6.81687 0.0458811 3.7642 0.0458811 0.711525 0.0458811C0.504953 0.0458811 0.298381 0.0688273 0 0.0917735Z" fill="white"/>
<path d="M13.0829 0.114697C13.0829 7.3198 7.20706 13.194 0 13.194C0 15.9476 0 18.7011 0 21.4546C11.7746 21.4546 21.3457 11.8861 21.3457 0.114697C21.3457 0.0917511 21.3457 0.0458587 21.3457 0.0229126C18.5915 0.0229126 15.8372 0.0229126 13.0829 0.0458587C13.0829 0.0458587 13.0829 0.0917511 13.0829 0.114697Z" fill="white"/>
<path d="M24.5591 0.114731C24.5591 13.653 13.5419 24.6671 0 24.6671C0 27.4207 0 30.1742 0 32.9278C18.0865 32.9278 32.822 18.1963 32.822 0.114731C32.822 0.0688385 32.822 0.0458924 32.822 0C30.0677 0 27.3134 0 24.5591 0C24.5591 0.0458924 24.5591 0.0688385 24.5591 0.114731Z" fill="white"/>
<path d="M36.0353 0.114731C36.0353 19.9861 19.8768 36.1402 0 36.1402C0 38.8938 0 41.6473 0 44.4008C24.4214 44.4008 44.2982 24.5295 44.2982 0.114731C44.2982 0.0917847 44.2982 0.0688385 44.2982 0.0229462C41.5439 0.0229462 38.7896 0 36.0353 0C36.0353 0.0458924 36.0353 0.0688385 36.0353 0.114731Z" fill="white"/>
<path d="M105.443 45.4564C105.237 43.9878 104.961 42.5192 104.594 41.0507C103.86 37.9071 102.873 34.9011 101.656 32.0558C100.646 35.2683 99.4758 38.4578 98.1445 41.5785C92.7737 54.2677 85.1076 65.649 75.3069 75.4241C65.5062 85.1991 54.1218 92.8861 41.4521 98.2555C38.3535 99.5634 35.209 100.734 32.0186 101.72C36.2648 103.556 40.7635 104.818 45.4917 105.461C72.3231 93.8498 93.8754 72.2804 105.443 45.4564Z" fill="white"/>
<path d="M99.5676 27.719C97.4789 23.887 94.9312 20.3533 91.8785 17.0949C90.662 23.7263 88.7111 30.2201 86.0716 36.4844C81.3663 47.6133 74.6413 57.5949 66.057 66.1768C57.4728 74.7586 47.4885 81.4819 36.3566 86.1858C30.1365 88.8246 23.6869 90.7521 17.0995 91.9683C17.5127 92.3583 17.9258 92.7255 18.3619 93.0926C21.3228 95.6626 24.4673 97.8425 27.7495 99.6323C62.4994 89.9261 89.9276 62.4824 99.5676 27.719Z" fill="white"/>
<path d="M83.455 83.5241C74.2281 92.7485 63.7159 100.275 52.102 105.988C57.6335 106.103 63.0503 105.369 68.3523 103.74C79.0711 100.458 87.9077 94.3547 94.7935 85.5434C100.394 78.3841 103.906 70.3071 105.329 61.3122C105.811 58.2145 106.04 55.1167 105.994 52.0419C100.279 63.6986 92.7048 74.2538 83.455 83.5241Z" fill="white"/>
<path d="M55.7744 0.137643C55.1087 0.114697 54.4431 0.0917511 53.7775 0.0688049C51.6888 0.0458587 49.6002 0.0229126 47.5115 0.0229126C47.5115 0.0458587 47.5115 0.0688049 47.5115 0.0917511C47.5115 26.2733 26.2117 47.5903 0 47.5903C0 49.5178 0 51.4223 0 53.3498C0 54.1759 0.0229524 55.0249 0.0688572 55.851C30.7792 55.828 55.7514 30.8396 55.7744 0.137643Z" fill="white"/>
<path d="M89.0783 14.2955C88.8717 14.089 88.6422 13.9054 88.4356 13.6989C86.2092 11.7025 83.914 9.93569 81.527 8.37535C80.7236 16.5212 78.7038 24.4377 75.4905 31.987C71.359 41.7391 65.4603 50.5045 57.9319 58.0309C50.4035 65.5572 41.6357 71.4544 31.8809 75.5847C24.3525 78.7742 16.4569 80.7935 8.35466 81.5966C10.0761 84.2813 12.05 86.7824 14.2764 89.1459C52.6299 83.0422 82.9959 52.6615 89.0783 14.2955Z" fill="white"/>
<path d="M78.4743 6.53965C75.8807 5.09404 73.1953 3.87789 70.418 2.91415C69.7294 20.6745 62.4765 37.2875 49.8297 49.9309C37.2288 62.5283 20.6801 69.7564 2.98381 70.4906C3.97077 73.313 5.14134 75.9977 6.54144 78.5447C44.7802 75.3782 75.3528 44.768 78.4743 6.53965Z" fill="white"/>
<path d="M67.2276 1.92747C64.5651 1.19319 61.8109 0.688374 58.9877 0.390074C58.9188 16.0394 52.7906 30.7479 41.7045 41.8079C30.6415 52.868 15.9749 58.9946 0.344286 59.0864C0.596763 61.2663 0.986954 63.4462 1.51486 65.6031C1.65257 66.1768 1.81324 66.7504 1.97391 67.3241C37.5502 66.2685 66.2866 37.494 67.2276 1.92747Z" fill="white"/>
</g>
</svg>
